%
M48
M72
T01C0.0138
T02C0.0177
T03C0.0197
T04C0.0236
T05C0.0320
T06C0.0400
T07C0.0440
T08C0.0472
T09C0.0512
T10C0.0520
T11C0.1181
T12C0.1260
%
T01
X15514Y6127
X47503Y8095
T02
X48979Y8095
X49569Y8095
X49569Y7504
X48979Y7504
X48979Y6914
X49569Y6914
X49569Y6323
X48979Y6323
X50160Y6323
X50160Y6914
X50160Y7504
X50160Y8095
X46223Y18036
X46223Y18528
X46223Y19020
X46223Y19512
T03
X55967Y3961
X12069Y3961
X8723Y6127
X6656Y3961
X3999Y6127
T04
X14629Y6717
X14629Y7209
X14629Y7701
X15436Y3469
X15416Y3016
X15416Y2564
X15928Y2564
X15928Y3016
X15928Y3469
X36134Y15674
X44845Y15674
T05
X46420Y6089
X46920Y5339
X45920Y5339
X39341Y2977
X38341Y2977
X24479Y2977
X23479Y2977
X16695Y8132
X16195Y8882
X17195Y8882
X62357Y18036
X63357Y18036
T06
X63186Y14213
X63186Y13213
X63186Y12213
X57050Y12107
X57050Y15107
X49569Y15107
X49569Y12107
X38034Y16868
X37034Y16868
X36034Y16868
X36034Y17868
X37034Y17868
X38034Y17868
X38215Y20670
X37215Y20670
X35215Y20670
X34215Y20670
X33215Y20670
X32215Y20670
X31215Y20670
X30215Y20670
X29215Y20670
X28215Y20670
X27215Y22670
X26215Y22670
X26215Y23670
X27215Y23670
X27215Y24670
X26215Y24670
X26215Y25670
X27215Y25670
X27215Y26670
X26215Y26670
X26215Y27670
X27215Y27670
X27215Y28670
X26215Y28670
X26215Y29670
X27215Y29670
X27215Y30670
X26215Y30670
X26215Y31670
X27215Y31670
X27215Y32670
X26215Y32670
X26215Y33670
X27215Y33670
X27215Y34670
X26215Y34670
X26215Y35670
X27215Y35670
X27215Y36670
X26215Y36670
X26215Y37670
X27215Y37670
X27215Y38670
X26215Y38670
X26215Y39670
X27215Y39670
X30215Y39670
X31215Y39670
X32215Y39670
X33215Y39670
X34215Y39670
X35215Y39670
X36215Y39670
X37215Y39670
X39215Y39670
X40215Y39670
X41215Y39670
X42215Y39670
X43215Y39670
X44215Y39670
X45215Y39670
X46215Y39670
X47815Y39670
X48815Y39670
X49815Y39670
X50815Y39670
X51815Y39670
X52815Y39670
X53815Y39670
X54815Y39670
X51215Y20670
X50215Y20670
X49215Y20670
X48215Y20670
X47215Y20670
X46215Y20670
X44215Y20670
X43215Y20670
X42215Y20670
X41215Y20670
X40215Y20670
X39215Y20670
X20141Y20674
X20041Y19674
X20141Y18674
X20041Y17674
X20141Y16674
X20041Y15674
X20041Y21674
X20141Y22674
X20041Y23674
X20141Y24674
X20041Y25674
X20141Y26674
X20041Y27674
X20141Y28674
X20041Y29674
X20141Y30674
X19168Y38213
X18168Y38213
X18168Y39213
X19168Y39213
X17168Y39213
X16168Y39213
X16168Y38213
X17168Y38213
X15168Y38213
X14168Y38213
X14168Y39213
X15168Y39213
X13168Y39213
X12168Y39213
X12168Y38213
X13168Y38213
X47585Y2402
X48585Y2402
X49585Y2402
X52900Y2402
X53900Y2402
X54900Y2402
T07
X44648Y5111
X44648Y9111
X18467Y9111
X18317Y12278
X17317Y12278
X16317Y12278
X15317Y12278
X18467Y5111
T08
X3310Y2583
X4688Y2583
X6066Y2583
X8034Y2583
X9412Y2583
X10790Y2583
X26932Y2583
X28310Y2583
X29688Y2583
X33034Y2583
X34412Y2583
X35790Y2583
X41695Y2583
X43073Y2583
X44451Y2583
X60003Y2583
X61380Y2583
X62758Y2583
T09
X42522Y5623
X42522Y8599
X36569Y8599
X34585Y8599
X32601Y8599
X30317Y8599
X28333Y8599
X26349Y8599
X26349Y5623
X28333Y5623
X30317Y5623
X32601Y5623
X34585Y5623
X36569Y5623
X20396Y5623
X20396Y8599
T10
X54125Y7504
X63125Y7504
T11
X62168Y10064
X21420Y3371
X3113Y12819
X3113Y39197
X62168Y39197
T12
X58215Y39670
X58715Y20670
M30
