G75*
G70*
%OFA0B0*%
%FSLAX24Y24*%
%IPPOS*%
%LPD*%
%AMOC8*
5,1,8,0,0,1.08239X$1,22.5*
%
%ADD10C,0.0000*%
%ADD11C,0.0160*%
%ADD12C,0.0120*%
%ADD13C,0.0070*%
%ADD14OC8,0.0557*%
%ADD15C,0.0557*%
%ADD16C,0.0597*%
%ADD17OC8,0.0477*%
%ADD18C,0.1181*%
%ADD19C,0.0669*%
%ADD20C,0.0866*%
%ADD21OC8,0.1240*%
%ADD22C,0.1240*%
%ADD23C,0.0677*%
%ADD24OC8,0.0740*%
%ADD25C,0.0740*%
%ADD26C,0.0740*%
%ADD27R,0.0394X0.0394*%
%ADD28C,0.0860*%
%ADD29C,0.0100*%
%ADD30C,0.0335*%
%ADD31C,0.0354*%
%ADD32C,0.0200*%
%ADD33C,0.0394*%
%ADD34C,0.0295*%
%ADD35C,0.0150*%
%ADD36C,0.0080*%
%ADD37C,0.0800*%
%ADD38C,0.0500*%
%ADD39C,0.0300*%
D10*
X002522Y012819D02*
X002524Y012867D01*
X002530Y012915D01*
X002540Y012962D01*
X002553Y013008D01*
X002571Y013053D01*
X002591Y013097D01*
X002616Y013139D01*
X002644Y013178D01*
X002674Y013215D01*
X002708Y013249D01*
X002745Y013281D01*
X002783Y013310D01*
X002824Y013335D01*
X002867Y013357D01*
X002912Y013375D01*
X002958Y013389D01*
X003005Y013400D01*
X003053Y013407D01*
X003101Y013410D01*
X003149Y013409D01*
X003197Y013404D01*
X003245Y013395D01*
X003291Y013383D01*
X003336Y013366D01*
X003380Y013346D01*
X003422Y013323D01*
X003462Y013296D01*
X003500Y013266D01*
X003535Y013233D01*
X003567Y013197D01*
X003597Y013159D01*
X003623Y013118D01*
X003645Y013075D01*
X003665Y013031D01*
X003680Y012986D01*
X003692Y012939D01*
X003700Y012891D01*
X003704Y012843D01*
X003704Y012795D01*
X003700Y012747D01*
X003692Y012699D01*
X003680Y012652D01*
X003665Y012607D01*
X003645Y012563D01*
X003623Y012520D01*
X003597Y012479D01*
X003567Y012441D01*
X003535Y012405D01*
X003500Y012372D01*
X003462Y012342D01*
X003422Y012315D01*
X003380Y012292D01*
X003336Y012272D01*
X003291Y012255D01*
X003245Y012243D01*
X003197Y012234D01*
X003149Y012229D01*
X003101Y012228D01*
X003053Y012231D01*
X003005Y012238D01*
X002958Y012249D01*
X002912Y012263D01*
X002867Y012281D01*
X002824Y012303D01*
X002783Y012328D01*
X002745Y012357D01*
X002708Y012389D01*
X002674Y012423D01*
X002644Y012460D01*
X002616Y012499D01*
X002591Y012541D01*
X002571Y012585D01*
X002553Y012630D01*
X002540Y012676D01*
X002530Y012723D01*
X002524Y012771D01*
X002522Y012819D01*
X020829Y003371D02*
X020831Y003419D01*
X020837Y003467D01*
X020847Y003514D01*
X020860Y003560D01*
X020878Y003605D01*
X020898Y003649D01*
X020923Y003691D01*
X020951Y003730D01*
X020981Y003767D01*
X021015Y003801D01*
X021052Y003833D01*
X021090Y003862D01*
X021131Y003887D01*
X021174Y003909D01*
X021219Y003927D01*
X021265Y003941D01*
X021312Y003952D01*
X021360Y003959D01*
X021408Y003962D01*
X021456Y003961D01*
X021504Y003956D01*
X021552Y003947D01*
X021598Y003935D01*
X021643Y003918D01*
X021687Y003898D01*
X021729Y003875D01*
X021769Y003848D01*
X021807Y003818D01*
X021842Y003785D01*
X021874Y003749D01*
X021904Y003711D01*
X021930Y003670D01*
X021952Y003627D01*
X021972Y003583D01*
X021987Y003538D01*
X021999Y003491D01*
X022007Y003443D01*
X022011Y003395D01*
X022011Y003347D01*
X022007Y003299D01*
X021999Y003251D01*
X021987Y003204D01*
X021972Y003159D01*
X021952Y003115D01*
X021930Y003072D01*
X021904Y003031D01*
X021874Y002993D01*
X021842Y002957D01*
X021807Y002924D01*
X021769Y002894D01*
X021729Y002867D01*
X021687Y002844D01*
X021643Y002824D01*
X021598Y002807D01*
X021552Y002795D01*
X021504Y002786D01*
X021456Y002781D01*
X021408Y002780D01*
X021360Y002783D01*
X021312Y002790D01*
X021265Y002801D01*
X021219Y002815D01*
X021174Y002833D01*
X021131Y002855D01*
X021090Y002880D01*
X021052Y002909D01*
X021015Y002941D01*
X020981Y002975D01*
X020951Y003012D01*
X020923Y003051D01*
X020898Y003093D01*
X020878Y003137D01*
X020860Y003182D01*
X020847Y003228D01*
X020837Y003275D01*
X020831Y003323D01*
X020829Y003371D01*
X058085Y020670D02*
X058087Y020720D01*
X058093Y020770D01*
X058103Y020819D01*
X058117Y020867D01*
X058134Y020914D01*
X058155Y020959D01*
X058180Y021003D01*
X058208Y021044D01*
X058240Y021083D01*
X058274Y021120D01*
X058311Y021154D01*
X058351Y021184D01*
X058393Y021211D01*
X058437Y021235D01*
X058483Y021256D01*
X058530Y021272D01*
X058578Y021285D01*
X058628Y021294D01*
X058677Y021299D01*
X058728Y021300D01*
X058778Y021297D01*
X058827Y021290D01*
X058876Y021279D01*
X058924Y021264D01*
X058970Y021246D01*
X059015Y021224D01*
X059058Y021198D01*
X059099Y021169D01*
X059138Y021137D01*
X059174Y021102D01*
X059206Y021064D01*
X059236Y021024D01*
X059263Y020981D01*
X059286Y020937D01*
X059305Y020891D01*
X059321Y020843D01*
X059333Y020794D01*
X059341Y020745D01*
X059345Y020695D01*
X059345Y020645D01*
X059341Y020595D01*
X059333Y020546D01*
X059321Y020497D01*
X059305Y020449D01*
X059286Y020403D01*
X059263Y020359D01*
X059236Y020316D01*
X059206Y020276D01*
X059174Y020238D01*
X059138Y020203D01*
X059099Y020171D01*
X059058Y020142D01*
X059015Y020116D01*
X058970Y020094D01*
X058924Y020076D01*
X058876Y020061D01*
X058827Y020050D01*
X058778Y020043D01*
X058728Y020040D01*
X058677Y020041D01*
X058628Y020046D01*
X058578Y020055D01*
X058530Y020068D01*
X058483Y020084D01*
X058437Y020105D01*
X058393Y020129D01*
X058351Y020156D01*
X058311Y020186D01*
X058274Y020220D01*
X058240Y020257D01*
X058208Y020296D01*
X058180Y020337D01*
X058155Y020381D01*
X058134Y020426D01*
X058117Y020473D01*
X058103Y020521D01*
X058093Y020570D01*
X058087Y020620D01*
X058085Y020670D01*
X061577Y010064D02*
X061579Y010112D01*
X061585Y010160D01*
X061595Y010207D01*
X061608Y010253D01*
X061626Y010298D01*
X061646Y010342D01*
X061671Y010384D01*
X061699Y010423D01*
X061729Y010460D01*
X061763Y010494D01*
X061800Y010526D01*
X061838Y010555D01*
X061879Y010580D01*
X061922Y010602D01*
X061967Y010620D01*
X062013Y010634D01*
X062060Y010645D01*
X062108Y010652D01*
X062156Y010655D01*
X062204Y010654D01*
X062252Y010649D01*
X062300Y010640D01*
X062346Y010628D01*
X062391Y010611D01*
X062435Y010591D01*
X062477Y010568D01*
X062517Y010541D01*
X062555Y010511D01*
X062590Y010478D01*
X062622Y010442D01*
X062652Y010404D01*
X062678Y010363D01*
X062700Y010320D01*
X062720Y010276D01*
X062735Y010231D01*
X062747Y010184D01*
X062755Y010136D01*
X062759Y010088D01*
X062759Y010040D01*
X062755Y009992D01*
X062747Y009944D01*
X062735Y009897D01*
X062720Y009852D01*
X062700Y009808D01*
X062678Y009765D01*
X062652Y009724D01*
X062622Y009686D01*
X062590Y009650D01*
X062555Y009617D01*
X062517Y009587D01*
X062477Y009560D01*
X062435Y009537D01*
X062391Y009517D01*
X062346Y009500D01*
X062300Y009488D01*
X062252Y009479D01*
X062204Y009474D01*
X062156Y009473D01*
X062108Y009476D01*
X062060Y009483D01*
X062013Y009494D01*
X061967Y009508D01*
X061922Y009526D01*
X061879Y009548D01*
X061838Y009573D01*
X061800Y009602D01*
X061763Y009634D01*
X061729Y009668D01*
X061699Y009705D01*
X061671Y009744D01*
X061646Y009786D01*
X061626Y009830D01*
X061608Y009875D01*
X061595Y009921D01*
X061585Y009968D01*
X061579Y010016D01*
X061577Y010064D01*
X061577Y039197D02*
X061579Y039245D01*
X061585Y039293D01*
X061595Y039340D01*
X061608Y039386D01*
X061626Y039431D01*
X061646Y039475D01*
X061671Y039517D01*
X061699Y039556D01*
X061729Y039593D01*
X061763Y039627D01*
X061800Y039659D01*
X061838Y039688D01*
X061879Y039713D01*
X061922Y039735D01*
X061967Y039753D01*
X062013Y039767D01*
X062060Y039778D01*
X062108Y039785D01*
X062156Y039788D01*
X062204Y039787D01*
X062252Y039782D01*
X062300Y039773D01*
X062346Y039761D01*
X062391Y039744D01*
X062435Y039724D01*
X062477Y039701D01*
X062517Y039674D01*
X062555Y039644D01*
X062590Y039611D01*
X062622Y039575D01*
X062652Y039537D01*
X062678Y039496D01*
X062700Y039453D01*
X062720Y039409D01*
X062735Y039364D01*
X062747Y039317D01*
X062755Y039269D01*
X062759Y039221D01*
X062759Y039173D01*
X062755Y039125D01*
X062747Y039077D01*
X062735Y039030D01*
X062720Y038985D01*
X062700Y038941D01*
X062678Y038898D01*
X062652Y038857D01*
X062622Y038819D01*
X062590Y038783D01*
X062555Y038750D01*
X062517Y038720D01*
X062477Y038693D01*
X062435Y038670D01*
X062391Y038650D01*
X062346Y038633D01*
X062300Y038621D01*
X062252Y038612D01*
X062204Y038607D01*
X062156Y038606D01*
X062108Y038609D01*
X062060Y038616D01*
X062013Y038627D01*
X061967Y038641D01*
X061922Y038659D01*
X061879Y038681D01*
X061838Y038706D01*
X061800Y038735D01*
X061763Y038767D01*
X061729Y038801D01*
X061699Y038838D01*
X061671Y038877D01*
X061646Y038919D01*
X061626Y038963D01*
X061608Y039008D01*
X061595Y039054D01*
X061585Y039101D01*
X061579Y039149D01*
X061577Y039197D01*
X057585Y039670D02*
X057587Y039720D01*
X057593Y039770D01*
X057603Y039819D01*
X057617Y039867D01*
X057634Y039914D01*
X057655Y039959D01*
X057680Y040003D01*
X057708Y040044D01*
X057740Y040083D01*
X057774Y040120D01*
X057811Y040154D01*
X057851Y040184D01*
X057893Y040211D01*
X057937Y040235D01*
X057983Y040256D01*
X058030Y040272D01*
X058078Y040285D01*
X058128Y040294D01*
X058177Y040299D01*
X058228Y040300D01*
X058278Y040297D01*
X058327Y040290D01*
X058376Y040279D01*
X058424Y040264D01*
X058470Y040246D01*
X058515Y040224D01*
X058558Y040198D01*
X058599Y040169D01*
X058638Y040137D01*
X058674Y040102D01*
X058706Y040064D01*
X058736Y040024D01*
X058763Y039981D01*
X058786Y039937D01*
X058805Y039891D01*
X058821Y039843D01*
X058833Y039794D01*
X058841Y039745D01*
X058845Y039695D01*
X058845Y039645D01*
X058841Y039595D01*
X058833Y039546D01*
X058821Y039497D01*
X058805Y039449D01*
X058786Y039403D01*
X058763Y039359D01*
X058736Y039316D01*
X058706Y039276D01*
X058674Y039238D01*
X058638Y039203D01*
X058599Y039171D01*
X058558Y039142D01*
X058515Y039116D01*
X058470Y039094D01*
X058424Y039076D01*
X058376Y039061D01*
X058327Y039050D01*
X058278Y039043D01*
X058228Y039040D01*
X058177Y039041D01*
X058128Y039046D01*
X058078Y039055D01*
X058030Y039068D01*
X057983Y039084D01*
X057937Y039105D01*
X057893Y039129D01*
X057851Y039156D01*
X057811Y039186D01*
X057774Y039220D01*
X057740Y039257D01*
X057708Y039296D01*
X057680Y039337D01*
X057655Y039381D01*
X057634Y039426D01*
X057617Y039473D01*
X057603Y039521D01*
X057593Y039570D01*
X057587Y039620D01*
X057585Y039670D01*
X002522Y039197D02*
X002524Y039245D01*
X002530Y039293D01*
X002540Y039340D01*
X002553Y039386D01*
X002571Y039431D01*
X002591Y039475D01*
X002616Y039517D01*
X002644Y039556D01*
X002674Y039593D01*
X002708Y039627D01*
X002745Y039659D01*
X002783Y039688D01*
X002824Y039713D01*
X002867Y039735D01*
X002912Y039753D01*
X002958Y039767D01*
X003005Y039778D01*
X003053Y039785D01*
X003101Y039788D01*
X003149Y039787D01*
X003197Y039782D01*
X003245Y039773D01*
X003291Y039761D01*
X003336Y039744D01*
X003380Y039724D01*
X003422Y039701D01*
X003462Y039674D01*
X003500Y039644D01*
X003535Y039611D01*
X003567Y039575D01*
X003597Y039537D01*
X003623Y039496D01*
X003645Y039453D01*
X003665Y039409D01*
X003680Y039364D01*
X003692Y039317D01*
X003700Y039269D01*
X003704Y039221D01*
X003704Y039173D01*
X003700Y039125D01*
X003692Y039077D01*
X003680Y039030D01*
X003665Y038985D01*
X003645Y038941D01*
X003623Y038898D01*
X003597Y038857D01*
X003567Y038819D01*
X003535Y038783D01*
X003500Y038750D01*
X003462Y038720D01*
X003422Y038693D01*
X003380Y038670D01*
X003336Y038650D01*
X003291Y038633D01*
X003245Y038621D01*
X003197Y038612D01*
X003149Y038607D01*
X003101Y038606D01*
X003053Y038609D01*
X003005Y038616D01*
X002958Y038627D01*
X002912Y038641D01*
X002867Y038659D01*
X002824Y038681D01*
X002783Y038706D01*
X002745Y038735D01*
X002708Y038767D01*
X002674Y038801D01*
X002644Y038838D01*
X002616Y038877D01*
X002591Y038919D01*
X002571Y038963D01*
X002553Y039008D01*
X002540Y039054D01*
X002530Y039101D01*
X002524Y039149D01*
X002522Y039197D01*
D11*
X001144Y040772D02*
X001144Y001402D01*
X064136Y001402D01*
X064136Y040772D01*
X001144Y040772D01*
X001624Y040292D02*
X025878Y040292D01*
X025536Y039951D01*
X025536Y039598D01*
X019872Y039598D01*
X019487Y039983D01*
X018849Y039983D01*
X018668Y039802D01*
X018487Y039983D01*
X017849Y039983D01*
X017668Y039802D01*
X017487Y039983D01*
X016849Y039983D01*
X016497Y039631D01*
X016387Y039742D01*
X016188Y039742D01*
X016188Y039233D01*
X016148Y039233D01*
X016148Y039193D01*
X015639Y039193D01*
X015188Y039193D01*
X015188Y039233D01*
X016148Y039233D01*
X016148Y039742D01*
X015949Y039742D01*
X015668Y039461D01*
X015387Y039742D01*
X015188Y039742D01*
X015188Y039233D01*
X015148Y039233D01*
X015148Y039193D01*
X014639Y039193D01*
X014188Y039193D01*
X014188Y039233D01*
X015148Y039233D01*
X015148Y039742D01*
X014949Y039742D01*
X014668Y039461D01*
X014387Y039742D01*
X014188Y039742D01*
X014188Y039233D01*
X014148Y039233D01*
X014148Y039742D01*
X013949Y039742D01*
X013838Y039631D01*
X013487Y039983D01*
X012849Y039983D01*
X012668Y039802D01*
X012487Y039983D01*
X011849Y039983D01*
X011398Y039532D01*
X011398Y038894D01*
X011579Y038713D01*
X011398Y038532D01*
X011398Y037894D01*
X011849Y037443D01*
X012301Y037443D01*
X017966Y031778D01*
X018132Y031710D01*
X025536Y031710D01*
X025536Y031389D01*
X025755Y031170D01*
X025536Y030951D01*
X025536Y030389D01*
X025755Y030170D01*
X025536Y029951D01*
X025536Y029389D01*
X025755Y029170D01*
X025536Y028951D01*
X025536Y028389D01*
X025755Y028170D01*
X025536Y027951D01*
X025536Y027389D01*
X025755Y027170D01*
X025536Y026951D01*
X025536Y026389D01*
X025755Y026170D01*
X025536Y025951D01*
X025536Y025389D01*
X025755Y025170D01*
X025536Y024951D01*
X025536Y024389D01*
X025755Y024170D01*
X025536Y023951D01*
X025536Y023389D01*
X025926Y022999D01*
X025778Y022851D01*
X025778Y022690D01*
X026195Y022690D01*
X026195Y022650D01*
X025778Y022650D01*
X025778Y022489D01*
X026034Y022232D01*
X026195Y022232D01*
X026195Y022650D01*
X026235Y022650D01*
X026235Y022690D01*
X026653Y022690D01*
X026653Y022851D01*
X026504Y022999D01*
X026715Y023210D01*
X026926Y022999D01*
X026778Y022851D01*
X026778Y022690D01*
X027195Y022690D01*
X027195Y022650D01*
X026778Y022650D01*
X026778Y022489D01*
X027034Y022232D01*
X027195Y022232D01*
X027195Y022650D01*
X027235Y022650D01*
X027235Y022690D01*
X027653Y022690D01*
X027653Y022851D01*
X027504Y022999D01*
X027701Y023196D01*
X035554Y023196D01*
X035881Y022869D01*
X035881Y021114D01*
X035791Y021333D01*
X035600Y021524D01*
X035350Y021627D01*
X035080Y021627D01*
X034831Y021524D01*
X034715Y021408D01*
X034600Y021524D01*
X034350Y021627D01*
X034080Y021627D01*
X033831Y021524D01*
X033715Y021408D01*
X033600Y021524D01*
X033350Y021627D01*
X033080Y021627D01*
X032831Y021524D01*
X032715Y021408D01*
X032600Y021524D01*
X032350Y021627D01*
X032080Y021627D01*
X031831Y021524D01*
X031715Y021408D01*
X031600Y021524D01*
X031350Y021627D01*
X031080Y021627D01*
X030831Y021524D01*
X030715Y021408D01*
X030600Y021524D01*
X030350Y021627D01*
X030080Y021627D01*
X029831Y021524D01*
X029715Y021408D01*
X029600Y021524D01*
X029350Y021627D01*
X029080Y021627D01*
X028831Y021524D01*
X028715Y021408D01*
X028600Y021524D01*
X028350Y021627D01*
X028080Y021627D01*
X027831Y021524D01*
X027640Y021333D01*
X027536Y021084D01*
X027536Y020256D01*
X027640Y020007D01*
X027831Y019816D01*
X028080Y019712D01*
X028350Y019712D01*
X028600Y019816D01*
X028715Y019931D01*
X028831Y019816D01*
X029080Y019712D01*
X029350Y019712D01*
X029600Y019816D01*
X029715Y019931D01*
X029831Y019816D01*
X030080Y019712D01*
X030350Y019712D01*
X030600Y019816D01*
X030715Y019931D01*
X030831Y019816D01*
X031080Y019712D01*
X031350Y019712D01*
X031600Y019816D01*
X031715Y019931D01*
X031831Y019816D01*
X032080Y019712D01*
X032350Y019712D01*
X032600Y019816D01*
X032715Y019931D01*
X032831Y019816D01*
X033080Y019712D01*
X033350Y019712D01*
X033600Y019816D01*
X033715Y019931D01*
X033831Y019816D01*
X034080Y019712D01*
X034350Y019712D01*
X034600Y019816D01*
X034715Y019931D01*
X034831Y019816D01*
X035080Y019712D01*
X035350Y019712D01*
X035600Y019816D01*
X035791Y020007D01*
X035881Y020226D01*
X035881Y019669D01*
X035950Y019503D01*
X036076Y019377D01*
X036584Y018869D01*
X036584Y018378D01*
X036534Y018328D01*
X036315Y018547D01*
X035753Y018547D01*
X035355Y018149D01*
X035355Y017587D01*
X035574Y017368D01*
X035355Y017149D01*
X035355Y016587D01*
X035554Y016388D01*
X035554Y015990D01*
X035538Y015950D01*
X035538Y015397D01*
X035598Y015250D01*
X035711Y015138D01*
X035858Y015077D01*
X036411Y015077D01*
X036558Y015138D01*
X036670Y015250D01*
X036731Y015397D01*
X036731Y015950D01*
X036670Y016097D01*
X036558Y016210D01*
X036514Y016228D01*
X036514Y016388D01*
X036534Y016408D01*
X036753Y016189D01*
X037315Y016189D01*
X037705Y016579D01*
X037853Y016430D01*
X038014Y016430D01*
X038014Y016848D01*
X038054Y016848D01*
X038054Y016888D01*
X038471Y016888D01*
X038471Y017049D01*
X038323Y017197D01*
X038713Y017587D01*
X038713Y018149D01*
X038315Y018547D01*
X037753Y018547D01*
X037534Y018328D01*
X037484Y018378D01*
X037484Y019145D01*
X037416Y019311D01*
X036967Y019759D01*
X037080Y019712D01*
X037350Y019712D01*
X037600Y019816D01*
X037715Y019931D01*
X037831Y019816D01*
X038080Y019712D01*
X038350Y019712D01*
X038600Y019816D01*
X038715Y019931D01*
X038831Y019816D01*
X039080Y019712D01*
X039350Y019712D01*
X039600Y019816D01*
X039715Y019931D01*
X039831Y019816D01*
X040080Y019712D01*
X040350Y019712D01*
X040600Y019816D01*
X040715Y019931D01*
X040743Y019903D01*
X040743Y011212D01*
X018650Y011212D01*
X018754Y011255D01*
X018970Y011472D01*
X019087Y011755D01*
X019087Y012801D01*
X018970Y013084D01*
X018754Y013301D01*
X018471Y013418D01*
X018164Y013418D01*
X017881Y013301D01*
X017817Y013237D01*
X017754Y013301D01*
X017471Y013418D01*
X017164Y013418D01*
X016881Y013301D01*
X016665Y013084D01*
X016654Y013057D01*
X016595Y013100D01*
X016520Y013138D01*
X016441Y013164D01*
X016359Y013177D01*
X016347Y013177D01*
X016347Y012308D01*
X016287Y012308D01*
X016287Y012248D01*
X015789Y012248D01*
X015347Y012248D01*
X015347Y011379D01*
X015359Y011379D01*
X015441Y011392D01*
X015520Y011418D01*
X015595Y011456D01*
X015662Y011505D01*
X015721Y011564D01*
X015770Y011631D01*
X015807Y011705D01*
X015828Y011705D01*
X015827Y011705D02*
X015865Y011631D01*
X015914Y011564D01*
X015973Y011505D01*
X016040Y011456D01*
X016115Y011418D01*
X016194Y011392D01*
X016276Y011379D01*
X016287Y011379D01*
X016287Y012248D01*
X016347Y012248D01*
X016347Y011379D01*
X016359Y011379D01*
X016441Y011392D01*
X016520Y011418D01*
X016595Y011456D01*
X016654Y011499D01*
X016665Y011472D01*
X016881Y011255D01*
X016985Y011212D01*
X004104Y011212D01*
X003935Y011142D01*
X003840Y011048D01*
X001624Y011048D01*
X001624Y040292D01*
X001624Y040235D02*
X025820Y040235D01*
X025662Y040076D02*
X003580Y040076D01*
X003674Y040037D02*
X003310Y040188D01*
X002916Y040188D01*
X002552Y040037D01*
X002273Y039758D01*
X002122Y039394D01*
X002122Y039000D01*
X002273Y038636D01*
X002552Y038358D01*
X002916Y038207D01*
X003310Y038207D01*
X003674Y038358D01*
X003953Y038636D01*
X004103Y039000D01*
X004103Y039394D01*
X003953Y039758D01*
X003674Y040037D01*
X003793Y039918D02*
X011783Y039918D01*
X011625Y039759D02*
X003952Y039759D01*
X004018Y039601D02*
X011466Y039601D01*
X011398Y039442D02*
X004084Y039442D01*
X004103Y039284D02*
X011398Y039284D01*
X011398Y039125D02*
X004103Y039125D01*
X004089Y038967D02*
X011398Y038967D01*
X011484Y038808D02*
X004024Y038808D01*
X003958Y038650D02*
X011515Y038650D01*
X011398Y038491D02*
X003807Y038491D01*
X003614Y038333D02*
X011398Y038333D01*
X011398Y038174D02*
X001624Y038174D01*
X001624Y038016D02*
X011398Y038016D01*
X011435Y037857D02*
X001624Y037857D01*
X001624Y037699D02*
X011593Y037699D01*
X011752Y037540D02*
X001624Y037540D01*
X001624Y037382D02*
X012363Y037382D01*
X012521Y037223D02*
X001624Y037223D01*
X001624Y037065D02*
X012680Y037065D01*
X012838Y036906D02*
X001624Y036906D01*
X001624Y036748D02*
X012997Y036748D01*
X013155Y036589D02*
X001624Y036589D01*
X001624Y036431D02*
X013314Y036431D01*
X013472Y036272D02*
X001624Y036272D01*
X001624Y036114D02*
X013631Y036114D01*
X013789Y035955D02*
X001624Y035955D01*
X001624Y035797D02*
X013948Y035797D01*
X014106Y035638D02*
X001624Y035638D01*
X001624Y035480D02*
X014265Y035480D01*
X014423Y035321D02*
X001624Y035321D01*
X001624Y035163D02*
X014582Y035163D01*
X014740Y035004D02*
X001624Y035004D01*
X001624Y034846D02*
X014899Y034846D01*
X015057Y034687D02*
X001624Y034687D01*
X001624Y034529D02*
X015216Y034529D01*
X015374Y034370D02*
X001624Y034370D01*
X001624Y034212D02*
X015533Y034212D01*
X015691Y034053D02*
X001624Y034053D01*
X001624Y033895D02*
X015850Y033895D01*
X016008Y033736D02*
X001624Y033736D01*
X001624Y033578D02*
X016167Y033578D01*
X016325Y033419D02*
X001624Y033419D01*
X001624Y033261D02*
X016484Y033261D01*
X016642Y033102D02*
X001624Y033102D01*
X001624Y032944D02*
X016801Y032944D01*
X016959Y032785D02*
X001624Y032785D01*
X001624Y032627D02*
X017118Y032627D01*
X017276Y032468D02*
X001624Y032468D01*
X001624Y032310D02*
X017435Y032310D01*
X017593Y032151D02*
X001624Y032151D01*
X001624Y031993D02*
X017752Y031993D01*
X017910Y031834D02*
X001624Y031834D01*
X001624Y031676D02*
X025536Y031676D01*
X025536Y031517D02*
X001624Y031517D01*
X001624Y031359D02*
X019782Y031359D01*
X019705Y031327D02*
X019488Y031110D01*
X019371Y030827D01*
X019371Y030521D01*
X019488Y030238D01*
X019502Y030224D01*
X019388Y030110D01*
X019271Y029827D01*
X019271Y029521D01*
X019388Y029238D01*
X019502Y029124D01*
X019488Y029110D01*
X019371Y028827D01*
X019371Y028521D01*
X019488Y028238D01*
X019502Y028224D01*
X019388Y028110D01*
X019271Y027827D01*
X019271Y027521D01*
X019388Y027238D01*
X001624Y027238D01*
X001624Y027396D02*
X019323Y027396D01*
X019271Y027555D02*
X001624Y027555D01*
X001624Y027713D02*
X019271Y027713D01*
X019290Y027872D02*
X001624Y027872D01*
X001624Y028030D02*
X019355Y028030D01*
X019467Y028189D02*
X001624Y028189D01*
X001624Y028347D02*
X019443Y028347D01*
X019377Y028506D02*
X001624Y028506D01*
X001624Y028664D02*
X019371Y028664D01*
X019371Y028823D02*
X001624Y028823D01*
X001624Y028981D02*
X019435Y028981D01*
X019486Y029140D02*
X001624Y029140D01*
X001624Y029298D02*
X019363Y029298D01*
X019298Y029457D02*
X001624Y029457D01*
X001624Y029615D02*
X019271Y029615D01*
X019271Y029774D02*
X001624Y029774D01*
X001624Y029932D02*
X019315Y029932D01*
X019380Y030091D02*
X001624Y030091D01*
X001624Y030249D02*
X019484Y030249D01*
X019418Y030408D02*
X001624Y030408D01*
X001624Y030566D02*
X019371Y030566D01*
X019371Y030725D02*
X001624Y030725D01*
X001624Y030883D02*
X019394Y030883D01*
X019460Y031042D02*
X001624Y031042D01*
X001624Y031200D02*
X019579Y031200D01*
X019705Y031327D02*
X019988Y031444D01*
X020294Y031444D01*
X020577Y031327D01*
X020794Y031110D01*
X020911Y030827D01*
X020911Y030521D01*
X020794Y030238D01*
X020680Y030124D01*
X020694Y030110D01*
X020811Y029827D01*
X020811Y029521D01*
X020694Y029238D01*
X020680Y029224D01*
X020794Y029110D01*
X020911Y028827D01*
X020911Y028521D01*
X020794Y028238D01*
X020680Y028124D01*
X020694Y028110D01*
X020811Y027827D01*
X020811Y027521D01*
X020694Y027238D01*
X025687Y027238D01*
X025665Y027079D02*
X020807Y027079D01*
X020794Y027110D02*
X020680Y027224D01*
X020694Y027238D01*
X020794Y027110D02*
X020911Y026827D01*
X020911Y026521D01*
X020794Y026238D01*
X020680Y026124D01*
X020694Y026110D01*
X020811Y025827D01*
X020811Y025521D01*
X020694Y025238D01*
X020680Y025224D01*
X020794Y025110D01*
X020911Y024827D01*
X020911Y024521D01*
X020794Y024238D01*
X020680Y024124D01*
X020694Y024110D01*
X020811Y023827D01*
X020811Y023521D01*
X020694Y023238D01*
X020680Y023224D01*
X020794Y023110D01*
X020911Y022827D01*
X020911Y022521D01*
X020794Y022238D01*
X020680Y022124D01*
X020694Y022110D01*
X020811Y021827D01*
X020811Y021521D01*
X020694Y021238D01*
X020680Y021224D01*
X020794Y021110D01*
X020911Y020827D01*
X020911Y020521D01*
X020794Y020238D01*
X020680Y020124D01*
X020694Y020110D01*
X020811Y019827D01*
X020811Y019521D01*
X020694Y019238D01*
X020680Y019224D01*
X020794Y019110D01*
X020911Y018827D01*
X020911Y018521D01*
X020794Y018238D01*
X020680Y018124D01*
X020694Y018110D01*
X020811Y017827D01*
X020811Y017521D01*
X020694Y017238D01*
X020680Y017224D01*
X020794Y017110D01*
X020911Y016827D01*
X020911Y016521D01*
X020794Y016238D01*
X020680Y016124D01*
X020694Y016110D01*
X020811Y015827D01*
X020811Y015521D01*
X020694Y015238D01*
X020477Y015021D01*
X020194Y014904D01*
X019888Y014904D01*
X019605Y015021D01*
X019388Y015238D01*
X019271Y015521D01*
X019271Y015827D01*
X019388Y016110D01*
X019502Y016224D01*
X019488Y016238D01*
X019371Y016521D01*
X019371Y016827D01*
X019488Y017110D01*
X019502Y017124D01*
X019388Y017238D01*
X019271Y017521D01*
X019271Y017827D01*
X019388Y018110D01*
X019502Y018224D01*
X019488Y018238D01*
X019371Y018521D01*
X019371Y018827D01*
X019488Y019110D01*
X019502Y019124D01*
X019388Y019238D01*
X019271Y019521D01*
X019271Y019827D01*
X019388Y020110D01*
X019502Y020224D01*
X019488Y020238D01*
X019371Y020521D01*
X019371Y020827D01*
X019488Y021110D01*
X019502Y021124D01*
X019388Y021238D01*
X019271Y021521D01*
X019271Y021827D01*
X019388Y022110D01*
X019502Y022224D01*
X019488Y022238D01*
X019371Y022521D01*
X019371Y022827D01*
X019488Y023110D01*
X019502Y023124D01*
X019388Y023238D01*
X019271Y023521D01*
X019271Y023827D01*
X019388Y024110D01*
X019502Y024224D01*
X019488Y024238D01*
X019371Y024521D01*
X019371Y024827D01*
X019488Y025110D01*
X019502Y025124D01*
X019388Y025238D01*
X019271Y025521D01*
X019271Y025827D01*
X019388Y026110D01*
X019502Y026224D01*
X019488Y026238D01*
X019371Y026521D01*
X019371Y026827D01*
X019488Y027110D01*
X019502Y027124D01*
X019388Y027238D01*
X019476Y027079D02*
X001624Y027079D01*
X001624Y026921D02*
X019410Y026921D01*
X019371Y026762D02*
X001624Y026762D01*
X001624Y026604D02*
X019371Y026604D01*
X019402Y026445D02*
X001624Y026445D01*
X001624Y026287D02*
X019468Y026287D01*
X019407Y026128D02*
X001624Y026128D01*
X001624Y025970D02*
X019330Y025970D01*
X019271Y025811D02*
X001624Y025811D01*
X001624Y025653D02*
X019271Y025653D01*
X019282Y025494D02*
X001624Y025494D01*
X001624Y025336D02*
X019348Y025336D01*
X019449Y025177D02*
X001624Y025177D01*
X001624Y025019D02*
X019451Y025019D01*
X019385Y024860D02*
X001624Y024860D01*
X001624Y024702D02*
X019371Y024702D01*
X019371Y024543D02*
X001624Y024543D01*
X001624Y024385D02*
X019427Y024385D01*
X019500Y024226D02*
X001624Y024226D01*
X001624Y024068D02*
X019371Y024068D01*
X019305Y023909D02*
X001624Y023909D01*
X001624Y023751D02*
X019271Y023751D01*
X019271Y023592D02*
X001624Y023592D01*
X001624Y023434D02*
X019307Y023434D01*
X019373Y023275D02*
X001624Y023275D01*
X001624Y023117D02*
X019495Y023117D01*
X019425Y022958D02*
X001624Y022958D01*
X001624Y022800D02*
X019371Y022800D01*
X019371Y022641D02*
X001624Y022641D01*
X001624Y022483D02*
X019387Y022483D01*
X019452Y022324D02*
X001624Y022324D01*
X001624Y022166D02*
X019444Y022166D01*
X019346Y022007D02*
X001624Y022007D01*
X001624Y021849D02*
X019280Y021849D01*
X019271Y021690D02*
X001624Y021690D01*
X001624Y021532D02*
X019271Y021532D01*
X019332Y021373D02*
X001624Y021373D01*
X001624Y021215D02*
X019411Y021215D01*
X019466Y021056D02*
X001624Y021056D01*
X001624Y020898D02*
X019400Y020898D01*
X019371Y020739D02*
X001624Y020739D01*
X001624Y020581D02*
X019371Y020581D01*
X019412Y020422D02*
X001624Y020422D01*
X001624Y020264D02*
X019478Y020264D01*
X019386Y020105D02*
X001624Y020105D01*
X001624Y019947D02*
X019321Y019947D01*
X019271Y019788D02*
X001624Y019788D01*
X001624Y019630D02*
X019271Y019630D01*
X019292Y019471D02*
X001624Y019471D01*
X001624Y019313D02*
X019357Y019313D01*
X019472Y019154D02*
X001624Y019154D01*
X001624Y018996D02*
X019441Y018996D01*
X019375Y018837D02*
X001624Y018837D01*
X001624Y018679D02*
X019371Y018679D01*
X019371Y018520D02*
X001624Y018520D01*
X001624Y018362D02*
X019437Y018362D01*
X019482Y018203D02*
X001624Y018203D01*
X001624Y018045D02*
X019361Y018045D01*
X019296Y017886D02*
X001624Y017886D01*
X001624Y017728D02*
X019271Y017728D01*
X019271Y017569D02*
X001624Y017569D01*
X001624Y017411D02*
X019317Y017411D01*
X019382Y017252D02*
X001624Y017252D01*
X001624Y017094D02*
X019482Y017094D01*
X019416Y016935D02*
X001624Y016935D01*
X001624Y016777D02*
X019371Y016777D01*
X019371Y016618D02*
X001624Y016618D01*
X001624Y016460D02*
X019396Y016460D01*
X019462Y016301D02*
X001624Y016301D01*
X001624Y016143D02*
X019421Y016143D01*
X019336Y015984D02*
X001624Y015984D01*
X001624Y015826D02*
X019271Y015826D01*
X019271Y015667D02*
X001624Y015667D01*
X001624Y015509D02*
X019276Y015509D01*
X019342Y015350D02*
X001624Y015350D01*
X001624Y015192D02*
X019434Y015192D01*
X019593Y015033D02*
X001624Y015033D01*
X001624Y014875D02*
X040743Y014875D01*
X040743Y015033D02*
X020489Y015033D01*
X020648Y015192D02*
X035657Y015192D01*
X035557Y015350D02*
X020740Y015350D01*
X020806Y015509D02*
X035538Y015509D01*
X035538Y015667D02*
X020811Y015667D01*
X020811Y015826D02*
X035538Y015826D01*
X035552Y015984D02*
X020746Y015984D01*
X020699Y016143D02*
X035554Y016143D01*
X035554Y016301D02*
X020820Y016301D01*
X020886Y016460D02*
X035482Y016460D01*
X035355Y016618D02*
X020911Y016618D01*
X020911Y016777D02*
X035355Y016777D01*
X035355Y016935D02*
X020866Y016935D01*
X020801Y017094D02*
X035355Y017094D01*
X035458Y017252D02*
X020700Y017252D01*
X020766Y017411D02*
X035531Y017411D01*
X035373Y017569D02*
X020811Y017569D01*
X020811Y017728D02*
X035355Y017728D01*
X035355Y017886D02*
X020787Y017886D01*
X020721Y018045D02*
X035355Y018045D01*
X035409Y018203D02*
X020759Y018203D01*
X020845Y018362D02*
X035568Y018362D01*
X035726Y018520D02*
X020911Y018520D01*
X020911Y018679D02*
X036584Y018679D01*
X036584Y018837D02*
X020907Y018837D01*
X020841Y018996D02*
X036458Y018996D01*
X036299Y019154D02*
X020750Y019154D01*
X020725Y019313D02*
X036141Y019313D01*
X035982Y019471D02*
X020791Y019471D01*
X020811Y019630D02*
X035898Y019630D01*
X035881Y019788D02*
X035533Y019788D01*
X035731Y019947D02*
X035881Y019947D01*
X035881Y020105D02*
X035831Y020105D01*
X034897Y019788D02*
X034533Y019788D01*
X033897Y019788D02*
X033533Y019788D01*
X032897Y019788D02*
X032533Y019788D01*
X031897Y019788D02*
X031533Y019788D01*
X030897Y019788D02*
X030533Y019788D01*
X029897Y019788D02*
X029533Y019788D01*
X028897Y019788D02*
X028533Y019788D01*
X027897Y019788D02*
X020811Y019788D01*
X020762Y019947D02*
X027700Y019947D01*
X027599Y020105D02*
X020696Y020105D01*
X020805Y020264D02*
X027536Y020264D01*
X027536Y020422D02*
X020870Y020422D01*
X020911Y020581D02*
X027536Y020581D01*
X027536Y020739D02*
X020911Y020739D01*
X020882Y020898D02*
X027536Y020898D01*
X027536Y021056D02*
X020816Y021056D01*
X020689Y021215D02*
X027591Y021215D01*
X027680Y021373D02*
X020750Y021373D01*
X020811Y021532D02*
X027849Y021532D01*
X028581Y021532D02*
X028849Y021532D01*
X029581Y021532D02*
X029849Y021532D01*
X030581Y021532D02*
X030849Y021532D01*
X031581Y021532D02*
X031849Y021532D01*
X032581Y021532D02*
X032849Y021532D01*
X033581Y021532D02*
X033849Y021532D01*
X034581Y021532D02*
X034849Y021532D01*
X035581Y021532D02*
X035881Y021532D01*
X035881Y021690D02*
X020811Y021690D01*
X020802Y021849D02*
X035881Y021849D01*
X035881Y022007D02*
X020736Y022007D01*
X020722Y022166D02*
X035881Y022166D01*
X035881Y022324D02*
X027488Y022324D01*
X027396Y022232D02*
X027653Y022489D01*
X027653Y022650D01*
X027235Y022650D01*
X027235Y022232D01*
X027396Y022232D01*
X027235Y022324D02*
X027195Y022324D01*
X027195Y022483D02*
X027235Y022483D01*
X027235Y022641D02*
X027195Y022641D01*
X026942Y022324D02*
X026488Y022324D01*
X026396Y022232D02*
X026653Y022489D01*
X026653Y022650D01*
X026235Y022650D01*
X026235Y022232D01*
X026396Y022232D01*
X026235Y022324D02*
X026195Y022324D01*
X026195Y022483D02*
X026235Y022483D01*
X026235Y022641D02*
X026195Y022641D01*
X025942Y022324D02*
X020830Y022324D01*
X020895Y022483D02*
X025784Y022483D01*
X025778Y022641D02*
X020911Y022641D01*
X020911Y022800D02*
X025778Y022800D01*
X025885Y022958D02*
X020857Y022958D01*
X020787Y023117D02*
X025808Y023117D01*
X025650Y023275D02*
X020709Y023275D01*
X020775Y023434D02*
X025536Y023434D01*
X025536Y023592D02*
X020811Y023592D01*
X020811Y023751D02*
X025536Y023751D01*
X025536Y023909D02*
X020777Y023909D01*
X020711Y024068D02*
X025653Y024068D01*
X025699Y024226D02*
X020782Y024226D01*
X020855Y024385D02*
X025540Y024385D01*
X025536Y024543D02*
X020911Y024543D01*
X020911Y024702D02*
X025536Y024702D01*
X025536Y024860D02*
X020897Y024860D01*
X020832Y025019D02*
X025604Y025019D01*
X025748Y025177D02*
X020727Y025177D01*
X020734Y025336D02*
X025589Y025336D01*
X025536Y025494D02*
X020800Y025494D01*
X020811Y025653D02*
X025536Y025653D01*
X025536Y025811D02*
X020811Y025811D01*
X020752Y025970D02*
X025555Y025970D01*
X025714Y026128D02*
X020684Y026128D01*
X020814Y026287D02*
X025638Y026287D01*
X025536Y026445D02*
X020880Y026445D01*
X020911Y026604D02*
X025536Y026604D01*
X025536Y026762D02*
X020911Y026762D01*
X020872Y026921D02*
X025536Y026921D01*
X025536Y027396D02*
X020760Y027396D01*
X020811Y027555D02*
X025536Y027555D01*
X025536Y027713D02*
X020811Y027713D01*
X020793Y027872D02*
X025536Y027872D01*
X025616Y028030D02*
X020727Y028030D01*
X020745Y028189D02*
X025736Y028189D01*
X025578Y028347D02*
X020839Y028347D01*
X020905Y028506D02*
X025536Y028506D01*
X025536Y028664D02*
X020911Y028664D01*
X020911Y028823D02*
X025536Y028823D01*
X025567Y028981D02*
X020847Y028981D01*
X020764Y029140D02*
X025725Y029140D01*
X025627Y029298D02*
X020719Y029298D01*
X020785Y029457D02*
X025536Y029457D01*
X025536Y029615D02*
X020811Y029615D01*
X020811Y029774D02*
X025536Y029774D01*
X025536Y029932D02*
X020768Y029932D01*
X020702Y030091D02*
X025676Y030091D01*
X025676Y030249D02*
X020799Y030249D01*
X020864Y030408D02*
X025536Y030408D01*
X025536Y030566D02*
X020911Y030566D01*
X020911Y030725D02*
X025536Y030725D01*
X025536Y030883D02*
X020888Y030883D01*
X020822Y031042D02*
X025627Y031042D01*
X025725Y031200D02*
X020704Y031200D01*
X020500Y031359D02*
X025566Y031359D01*
X027675Y031170D02*
X027894Y030951D01*
X027894Y030389D01*
X027675Y030170D01*
X027894Y029951D01*
X027894Y029389D01*
X027675Y029170D01*
X027894Y028951D01*
X027894Y028389D01*
X027675Y028170D01*
X027894Y027951D01*
X027894Y027389D01*
X027675Y027170D01*
X027894Y026951D01*
X027894Y026389D01*
X027675Y026170D01*
X027894Y025951D01*
X027894Y025389D01*
X027675Y025170D01*
X027894Y024951D01*
X027894Y024389D01*
X027675Y024170D01*
X027749Y024096D01*
X035830Y024096D01*
X035996Y024028D01*
X036122Y023901D01*
X036713Y023311D01*
X036781Y023145D01*
X036781Y021475D01*
X036831Y021524D01*
X037080Y021627D01*
X037350Y021627D01*
X037600Y021524D01*
X037715Y021408D01*
X037831Y021524D01*
X038080Y021627D01*
X038350Y021627D01*
X038600Y021524D01*
X038715Y021408D01*
X038831Y021524D01*
X039080Y021627D01*
X039350Y021627D01*
X039600Y021524D01*
X039715Y021408D01*
X039831Y021524D01*
X040080Y021627D01*
X040350Y021627D01*
X040600Y021524D01*
X040715Y021408D01*
X040831Y021524D01*
X041080Y021627D01*
X041350Y021627D01*
X041600Y021524D01*
X041715Y021408D01*
X041831Y021524D01*
X042080Y021627D01*
X042350Y021627D01*
X042600Y021524D01*
X042715Y021408D01*
X042831Y021524D01*
X043080Y021627D01*
X043350Y021627D01*
X043600Y021524D01*
X043715Y021408D01*
X043831Y021524D01*
X044080Y021627D01*
X044350Y021627D01*
X044513Y021560D01*
X044513Y021921D01*
X044586Y022097D01*
X044733Y022245D01*
X044868Y022380D01*
X045045Y022453D01*
X049074Y022453D01*
X049251Y022380D01*
X049448Y022183D01*
X049583Y022048D01*
X049656Y021872D01*
X049656Y021468D01*
X049715Y021408D01*
X049831Y021524D01*
X050080Y021627D01*
X050350Y021627D01*
X050600Y021524D01*
X050715Y021408D01*
X050831Y021524D01*
X051080Y021627D01*
X051350Y021627D01*
X051600Y021524D01*
X051791Y021333D01*
X051894Y021084D01*
X051894Y020256D01*
X051791Y020007D01*
X051600Y019816D01*
X051350Y019712D01*
X051080Y019712D01*
X050831Y019816D01*
X050715Y019931D01*
X050600Y019816D01*
X050350Y019712D01*
X050080Y019712D01*
X049831Y019816D01*
X049715Y019931D01*
X049600Y019816D01*
X049350Y019712D01*
X049080Y019712D01*
X048831Y019816D01*
X048640Y020007D01*
X048580Y020150D01*
X048549Y020106D01*
X048500Y020057D01*
X048444Y020017D01*
X048383Y019986D01*
X048318Y019964D01*
X048250Y019954D01*
X048235Y019954D01*
X048235Y020650D01*
X048195Y020650D01*
X047778Y020650D01*
X047778Y020357D01*
X047788Y020289D01*
X047810Y020223D01*
X047841Y020162D01*
X047881Y020106D01*
X047930Y020057D01*
X047986Y020017D01*
X048047Y019986D01*
X048113Y019964D01*
X048181Y019954D01*
X048195Y019954D01*
X048195Y020650D01*
X048195Y020690D01*
X048195Y021386D01*
X048181Y021386D01*
X048113Y021375D01*
X048047Y021354D01*
X047986Y021323D01*
X047930Y021282D01*
X047881Y021234D01*
X047841Y021178D01*
X047810Y021116D01*
X047788Y021051D01*
X047778Y020983D01*
X047778Y020690D01*
X048195Y020690D01*
X048235Y020690D01*
X048235Y021386D01*
X048250Y021386D01*
X048318Y021375D01*
X048383Y021354D01*
X048444Y021323D01*
X048500Y021282D01*
X048549Y021234D01*
X048580Y021190D01*
X048640Y021333D01*
X048696Y021389D01*
X048696Y021493D01*
X046631Y021493D01*
X046791Y021333D01*
X046850Y021190D01*
X046881Y021234D01*
X046930Y021282D01*
X046986Y021323D01*
X047047Y021354D01*
X047113Y021375D01*
X047181Y021386D01*
X047195Y021386D01*
X047195Y020690D01*
X047235Y020690D01*
X047235Y021386D01*
X047250Y021386D01*
X047318Y021375D01*
X047383Y021354D01*
X047444Y021323D01*
X047500Y021282D01*
X047549Y021234D01*
X047589Y021178D01*
X047621Y021116D01*
X047642Y021051D01*
X047653Y020983D01*
X047653Y020690D01*
X047235Y020690D01*
X047235Y020650D01*
X047653Y020650D01*
X047653Y020357D01*
X047642Y020289D01*
X047621Y020223D01*
X047589Y020162D01*
X047549Y020106D01*
X047500Y020057D01*
X047444Y020017D01*
X047383Y019986D01*
X047318Y019964D01*
X047250Y019954D01*
X047235Y019954D01*
X047235Y020650D01*
X047195Y020650D01*
X047195Y019954D01*
X047181Y019954D01*
X047113Y019964D01*
X047047Y019986D01*
X047015Y020002D01*
X047015Y010945D01*
X047306Y010654D01*
X047306Y017150D01*
X059806Y017150D01*
X061774Y015378D01*
X063656Y015306D01*
X063656Y017773D01*
X063521Y017638D01*
X063357Y017638D01*
X063357Y018036D01*
X063357Y018036D01*
X063357Y018433D01*
X063521Y018433D01*
X063656Y018299D01*
X063656Y040292D01*
X059045Y040292D01*
X059175Y040067D01*
X059245Y039805D01*
X059245Y039534D01*
X059175Y039272D01*
X059039Y039037D01*
X058848Y038846D01*
X058613Y038710D01*
X058351Y038640D01*
X058080Y038640D01*
X057818Y038710D01*
X057583Y038846D01*
X057391Y039037D01*
X057255Y039272D01*
X057185Y039534D01*
X057185Y039805D01*
X057255Y040067D01*
X057385Y040292D01*
X055407Y040292D01*
X055494Y040084D01*
X055494Y039256D01*
X055391Y039007D01*
X055200Y038816D01*
X054950Y038712D01*
X054680Y038712D01*
X054431Y038816D01*
X054240Y039007D01*
X054180Y039150D01*
X054149Y039106D01*
X054100Y039057D01*
X054044Y039017D01*
X053983Y038986D01*
X053918Y038964D01*
X053850Y038954D01*
X053835Y038954D01*
X053835Y039650D01*
X053795Y039650D01*
X053795Y038954D01*
X053781Y038954D01*
X053713Y038964D01*
X053647Y038986D01*
X053586Y039017D01*
X053530Y039057D01*
X053481Y039106D01*
X053450Y039150D01*
X053391Y039007D01*
X053200Y038816D01*
X052950Y038712D01*
X052680Y038712D01*
X052431Y038816D01*
X052315Y038931D01*
X052200Y038816D01*
X051950Y038712D01*
X051680Y038712D01*
X051431Y038816D01*
X051315Y038931D01*
X051200Y038816D01*
X050950Y038712D01*
X050680Y038712D01*
X050431Y038816D01*
X050315Y038931D01*
X050200Y038816D01*
X049950Y038712D01*
X049680Y038712D01*
X049431Y038816D01*
X049315Y038931D01*
X049200Y038816D01*
X048950Y038712D01*
X048680Y038712D01*
X048431Y038816D01*
X048315Y038931D01*
X048200Y038816D01*
X047950Y038712D01*
X047680Y038712D01*
X047431Y038816D01*
X047240Y039007D01*
X047136Y039256D01*
X047136Y040084D01*
X047223Y040292D01*
X046807Y040292D01*
X046894Y040084D01*
X046894Y039256D01*
X046791Y039007D01*
X046600Y038816D01*
X046350Y038712D01*
X046080Y038712D01*
X045831Y038816D01*
X045715Y038931D01*
X045600Y038816D01*
X045350Y038712D01*
X045080Y038712D01*
X044831Y038816D01*
X044715Y038931D01*
X044600Y038816D01*
X044350Y038712D01*
X044080Y038712D01*
X043997Y038747D01*
X037156Y031905D01*
X037029Y031778D01*
X036864Y031710D01*
X027894Y031710D01*
X027894Y031389D01*
X027675Y031170D01*
X027705Y031200D02*
X063656Y031200D01*
X063656Y031042D02*
X027803Y031042D01*
X027894Y030883D02*
X063656Y030883D01*
X063656Y030725D02*
X027894Y030725D01*
X027894Y030566D02*
X063656Y030566D01*
X063656Y030408D02*
X027894Y030408D01*
X027754Y030249D02*
X063656Y030249D01*
X063656Y030091D02*
X027754Y030091D01*
X027894Y029932D02*
X063656Y029932D01*
X063656Y029774D02*
X027894Y029774D01*
X027894Y029615D02*
X063656Y029615D01*
X063656Y029457D02*
X027894Y029457D01*
X027803Y029298D02*
X063656Y029298D01*
X063656Y029140D02*
X027705Y029140D01*
X027864Y028981D02*
X063656Y028981D01*
X063656Y028823D02*
X027894Y028823D01*
X027894Y028664D02*
X063656Y028664D01*
X063656Y028506D02*
X027894Y028506D01*
X027852Y028347D02*
X063656Y028347D01*
X063656Y028189D02*
X027694Y028189D01*
X027815Y028030D02*
X063656Y028030D01*
X063656Y027872D02*
X027894Y027872D01*
X027894Y027713D02*
X063656Y027713D01*
X063656Y027555D02*
X027894Y027555D01*
X027894Y027396D02*
X063656Y027396D01*
X063656Y027238D02*
X027743Y027238D01*
X027766Y027079D02*
X063656Y027079D01*
X063656Y026921D02*
X027894Y026921D01*
X027894Y026762D02*
X063656Y026762D01*
X063656Y026604D02*
X027894Y026604D01*
X027894Y026445D02*
X063656Y026445D01*
X063656Y026287D02*
X027792Y026287D01*
X027717Y026128D02*
X063656Y026128D01*
X063656Y025970D02*
X027875Y025970D01*
X027894Y025811D02*
X063656Y025811D01*
X063656Y025653D02*
X027894Y025653D01*
X027894Y025494D02*
X063656Y025494D01*
X063656Y025336D02*
X027841Y025336D01*
X027682Y025177D02*
X063656Y025177D01*
X063656Y025019D02*
X027826Y025019D01*
X027894Y024860D02*
X063656Y024860D01*
X063656Y024702D02*
X027894Y024702D01*
X027894Y024543D02*
X063656Y024543D01*
X063656Y024385D02*
X027890Y024385D01*
X027731Y024226D02*
X063656Y024226D01*
X063656Y024068D02*
X035899Y024068D01*
X036114Y023909D02*
X063656Y023909D01*
X063656Y023751D02*
X036273Y023751D01*
X036431Y023592D02*
X063656Y023592D01*
X063656Y023434D02*
X036590Y023434D01*
X036727Y023275D02*
X063656Y023275D01*
X063656Y023117D02*
X036781Y023117D01*
X036781Y022958D02*
X063656Y022958D01*
X063656Y022800D02*
X036781Y022800D01*
X036781Y022641D02*
X063656Y022641D01*
X063656Y022483D02*
X036781Y022483D01*
X036781Y022324D02*
X044813Y022324D01*
X044654Y022166D02*
X036781Y022166D01*
X036781Y022007D02*
X044548Y022007D01*
X044513Y021849D02*
X036781Y021849D01*
X036781Y021690D02*
X044513Y021690D01*
X044993Y021825D02*
X045140Y021973D01*
X048979Y021973D01*
X049176Y021776D01*
X049176Y020709D01*
X049215Y020670D01*
X048599Y020105D02*
X048548Y020105D01*
X048700Y019947D02*
X047015Y019947D01*
X047015Y019788D02*
X048897Y019788D01*
X049533Y019788D02*
X049897Y019788D01*
X050533Y019788D02*
X050897Y019788D01*
X051533Y019788D02*
X058182Y019788D01*
X058083Y019846D02*
X058318Y019710D01*
X058580Y019640D01*
X058851Y019640D01*
X059113Y019710D01*
X059348Y019846D01*
X059539Y020037D01*
X059675Y020272D01*
X059745Y020534D01*
X059745Y020805D01*
X059675Y021067D01*
X059539Y021302D01*
X059348Y021494D01*
X059113Y021630D01*
X058851Y021700D01*
X058580Y021700D01*
X058318Y021630D01*
X058083Y021494D01*
X057891Y021302D01*
X057755Y021067D01*
X057685Y020805D01*
X057685Y020534D01*
X057755Y020272D01*
X057891Y020037D01*
X058083Y019846D01*
X057982Y019947D02*
X051731Y019947D01*
X051831Y020105D02*
X057852Y020105D01*
X057760Y020264D02*
X051894Y020264D01*
X051894Y020422D02*
X057715Y020422D01*
X057685Y020581D02*
X051894Y020581D01*
X051894Y020739D02*
X057685Y020739D01*
X057710Y020898D02*
X051894Y020898D01*
X051894Y021056D02*
X057752Y021056D01*
X057840Y021215D02*
X051840Y021215D01*
X051750Y021373D02*
X057962Y021373D01*
X058148Y021532D02*
X051581Y021532D01*
X050849Y021532D02*
X050581Y021532D01*
X049849Y021532D02*
X049656Y021532D01*
X049656Y021690D02*
X058544Y021690D01*
X058887Y021690D02*
X063656Y021690D01*
X063656Y021532D02*
X059282Y021532D01*
X059468Y021373D02*
X063656Y021373D01*
X063656Y021215D02*
X059590Y021215D01*
X059678Y021056D02*
X063656Y021056D01*
X063656Y020898D02*
X059720Y020898D01*
X059745Y020739D02*
X063656Y020739D01*
X063656Y020581D02*
X059745Y020581D01*
X059715Y020422D02*
X063656Y020422D01*
X063656Y020264D02*
X059670Y020264D01*
X059578Y020105D02*
X063656Y020105D01*
X063656Y019947D02*
X059448Y019947D01*
X059248Y019788D02*
X063656Y019788D01*
X063656Y019630D02*
X047015Y019630D01*
X047015Y019471D02*
X063656Y019471D01*
X063656Y019313D02*
X047015Y019313D01*
X047015Y019154D02*
X063656Y019154D01*
X063656Y018996D02*
X047015Y018996D01*
X047015Y018837D02*
X063656Y018837D01*
X063656Y018679D02*
X047015Y018679D01*
X047015Y018520D02*
X061938Y018520D01*
X062092Y018675D02*
X061718Y018301D01*
X061718Y017771D01*
X062092Y017397D01*
X062621Y017397D01*
X062996Y017771D01*
X062996Y017835D01*
X063192Y017638D01*
X063357Y017638D01*
X063357Y018036D01*
X063357Y018036D01*
X063357Y018433D01*
X063192Y018433D01*
X062996Y018237D01*
X062996Y018301D01*
X062621Y018675D01*
X062092Y018675D01*
X061779Y018362D02*
X047015Y018362D01*
X047015Y018203D02*
X061718Y018203D01*
X061718Y018045D02*
X047015Y018045D01*
X047015Y017886D02*
X061718Y017886D01*
X061762Y017728D02*
X047015Y017728D01*
X047015Y017569D02*
X061920Y017569D01*
X062079Y017411D02*
X047015Y017411D01*
X047015Y017252D02*
X063656Y017252D01*
X063656Y017094D02*
X059868Y017094D01*
X060045Y016935D02*
X063656Y016935D01*
X063656Y016777D02*
X060221Y016777D01*
X060397Y016618D02*
X063656Y016618D01*
X063656Y016460D02*
X060573Y016460D01*
X060749Y016301D02*
X063656Y016301D01*
X063656Y016143D02*
X060925Y016143D01*
X061101Y015984D02*
X063656Y015984D01*
X063656Y015826D02*
X061277Y015826D01*
X061453Y015667D02*
X063656Y015667D01*
X063656Y015509D02*
X061630Y015509D01*
X062511Y015350D02*
X063656Y015350D01*
X063656Y017411D02*
X062635Y017411D01*
X062793Y017569D02*
X063656Y017569D01*
X063656Y017728D02*
X063611Y017728D01*
X063357Y017728D02*
X063357Y017728D01*
X063357Y017886D02*
X063357Y017886D01*
X063357Y018045D02*
X063357Y018045D01*
X063357Y018203D02*
X063357Y018203D01*
X063357Y018362D02*
X063357Y018362D01*
X063593Y018362D02*
X063656Y018362D01*
X063656Y018520D02*
X062776Y018520D01*
X062934Y018362D02*
X063120Y018362D01*
X063103Y017728D02*
X062952Y017728D01*
X063656Y021849D02*
X049656Y021849D01*
X049600Y022007D02*
X063656Y022007D01*
X063656Y022166D02*
X049465Y022166D01*
X049307Y022324D02*
X063656Y022324D01*
X063656Y031359D02*
X027864Y031359D01*
X027894Y031517D02*
X063656Y031517D01*
X063656Y031676D02*
X027894Y031676D01*
X037085Y031834D02*
X063656Y031834D01*
X063656Y031993D02*
X037243Y031993D01*
X037402Y032151D02*
X063656Y032151D01*
X063656Y032310D02*
X037560Y032310D01*
X037719Y032468D02*
X063656Y032468D01*
X063656Y032627D02*
X037877Y032627D01*
X038036Y032785D02*
X063656Y032785D01*
X063656Y032944D02*
X038194Y032944D01*
X038353Y033102D02*
X063656Y033102D01*
X063656Y033261D02*
X038511Y033261D01*
X038670Y033419D02*
X063656Y033419D01*
X063656Y033578D02*
X038828Y033578D01*
X038987Y033736D02*
X063656Y033736D01*
X063656Y033895D02*
X039145Y033895D01*
X039304Y034053D02*
X063656Y034053D01*
X063656Y034212D02*
X039462Y034212D01*
X039621Y034370D02*
X063656Y034370D01*
X063656Y034529D02*
X039779Y034529D01*
X039938Y034687D02*
X063656Y034687D01*
X063656Y034846D02*
X040096Y034846D01*
X040255Y035004D02*
X063656Y035004D01*
X063656Y035163D02*
X040413Y035163D01*
X040572Y035321D02*
X063656Y035321D01*
X063656Y035480D02*
X040730Y035480D01*
X040889Y035638D02*
X063656Y035638D01*
X063656Y035797D02*
X041047Y035797D01*
X041206Y035955D02*
X063656Y035955D01*
X063656Y036114D02*
X041364Y036114D01*
X041523Y036272D02*
X061966Y036272D01*
X061989Y036249D02*
X062158Y036179D01*
X062711Y036179D01*
X062880Y036249D01*
X063010Y036379D01*
X063080Y036548D01*
X063080Y037101D01*
X063080Y037288D01*
X063080Y037471D01*
X063010Y037640D01*
X062880Y037770D01*
X062711Y037840D01*
X062158Y037840D01*
X061989Y037770D01*
X061865Y037646D01*
X061736Y037517D01*
X061666Y037348D01*
X061666Y037042D01*
X061679Y037010D01*
X061666Y036978D01*
X061666Y036671D01*
X061736Y036502D01*
X061859Y036379D01*
X061989Y036249D01*
X061807Y036431D02*
X041681Y036431D01*
X041840Y036589D02*
X061700Y036589D01*
X061666Y036748D02*
X041998Y036748D01*
X042157Y036906D02*
X061666Y036906D01*
X061666Y037065D02*
X042315Y037065D01*
X042474Y037223D02*
X061666Y037223D01*
X061680Y037382D02*
X042632Y037382D01*
X042791Y037540D02*
X061759Y037540D01*
X061918Y037699D02*
X042949Y037699D01*
X043108Y037857D02*
X063656Y037857D01*
X063656Y037699D02*
X062951Y037699D01*
X063051Y037540D02*
X063656Y037540D01*
X063656Y037382D02*
X063080Y037382D01*
X063080Y037223D02*
X063656Y037223D01*
X063656Y037065D02*
X063080Y037065D01*
X063080Y036906D02*
X063656Y036906D01*
X063656Y036748D02*
X063080Y036748D01*
X063080Y036589D02*
X063656Y036589D01*
X063656Y036431D02*
X063031Y036431D01*
X062903Y036272D02*
X063656Y036272D01*
X063656Y038016D02*
X043266Y038016D01*
X043425Y038174D02*
X063656Y038174D01*
X063656Y038333D02*
X062669Y038333D01*
X062729Y038358D02*
X063008Y038636D01*
X063158Y039000D01*
X063158Y039394D01*
X063008Y039758D01*
X062729Y040037D01*
X062365Y040188D01*
X061971Y040188D01*
X061607Y040037D01*
X061328Y039758D01*
X061177Y039394D01*
X061177Y039000D01*
X061328Y038636D01*
X061607Y038358D01*
X061971Y038207D01*
X062365Y038207D01*
X062729Y038358D01*
X062863Y038491D02*
X063656Y038491D01*
X063656Y038650D02*
X063013Y038650D01*
X063079Y038808D02*
X063656Y038808D01*
X063656Y038967D02*
X063144Y038967D01*
X063158Y039125D02*
X063656Y039125D01*
X063656Y039284D02*
X063158Y039284D01*
X063139Y039442D02*
X063656Y039442D01*
X063656Y039601D02*
X063073Y039601D01*
X063007Y039759D02*
X063656Y039759D01*
X063656Y039918D02*
X062848Y039918D01*
X062635Y040076D02*
X063656Y040076D01*
X063656Y040235D02*
X059078Y040235D01*
X059170Y040076D02*
X061701Y040076D01*
X061487Y039918D02*
X059215Y039918D01*
X059245Y039759D02*
X061329Y039759D01*
X061263Y039601D02*
X059245Y039601D01*
X059220Y039442D02*
X061197Y039442D01*
X061177Y039284D02*
X059178Y039284D01*
X059090Y039125D02*
X061177Y039125D01*
X061191Y038967D02*
X058968Y038967D01*
X058783Y038808D02*
X061257Y038808D01*
X061323Y038650D02*
X058387Y038650D01*
X058043Y038650D02*
X043900Y038650D01*
X043742Y038491D02*
X061473Y038491D01*
X061667Y038333D02*
X043583Y038333D01*
X044581Y038808D02*
X044849Y038808D01*
X045581Y038808D02*
X045849Y038808D01*
X046581Y038808D02*
X047449Y038808D01*
X047280Y038967D02*
X046751Y038967D01*
X046840Y039125D02*
X047191Y039125D01*
X047136Y039284D02*
X046894Y039284D01*
X046894Y039442D02*
X047136Y039442D01*
X047136Y039601D02*
X046894Y039601D01*
X046894Y039759D02*
X047136Y039759D01*
X047136Y039918D02*
X046894Y039918D01*
X046894Y040076D02*
X047136Y040076D01*
X047199Y040235D02*
X046831Y040235D01*
X048181Y038808D02*
X048449Y038808D01*
X049181Y038808D02*
X049449Y038808D01*
X050181Y038808D02*
X050449Y038808D01*
X051181Y038808D02*
X051449Y038808D01*
X052181Y038808D02*
X052449Y038808D01*
X053181Y038808D02*
X054449Y038808D01*
X054280Y038967D02*
X053925Y038967D01*
X053835Y038967D02*
X053795Y038967D01*
X053706Y038967D02*
X053351Y038967D01*
X053440Y039125D02*
X053468Y039125D01*
X053795Y039125D02*
X053835Y039125D01*
X053835Y039284D02*
X053795Y039284D01*
X053795Y039442D02*
X053835Y039442D01*
X053835Y039601D02*
X053795Y039601D01*
X054163Y039125D02*
X054191Y039125D01*
X055181Y038808D02*
X057648Y038808D01*
X057462Y038967D02*
X055351Y038967D01*
X055440Y039125D02*
X057340Y039125D01*
X057252Y039284D02*
X055494Y039284D01*
X055494Y039442D02*
X057210Y039442D01*
X057185Y039601D02*
X055494Y039601D01*
X055494Y039759D02*
X057185Y039759D01*
X057215Y039918D02*
X055494Y039918D01*
X055494Y040076D02*
X057260Y040076D01*
X057352Y040235D02*
X055431Y040235D01*
X035792Y022958D02*
X027545Y022958D01*
X027622Y023117D02*
X035634Y023117D01*
X035881Y022800D02*
X027653Y022800D01*
X027653Y022641D02*
X035881Y022641D01*
X035881Y022483D02*
X027647Y022483D01*
X026784Y022483D02*
X026647Y022483D01*
X026653Y022641D02*
X026778Y022641D01*
X026778Y022800D02*
X026653Y022800D01*
X026545Y022958D02*
X026885Y022958D01*
X026808Y023117D02*
X026622Y023117D01*
X035750Y021373D02*
X035881Y021373D01*
X035881Y021215D02*
X035840Y021215D01*
X036781Y021532D02*
X036849Y021532D01*
X037581Y021532D02*
X037849Y021532D01*
X038581Y021532D02*
X038849Y021532D01*
X039581Y021532D02*
X039849Y021532D01*
X040581Y021532D02*
X040849Y021532D01*
X041581Y021532D02*
X041849Y021532D01*
X042581Y021532D02*
X042849Y021532D01*
X043581Y021532D02*
X043849Y021532D01*
X044215Y020670D02*
X044254Y020630D01*
X044254Y010260D01*
X043664Y009670D01*
X043664Y008587D01*
X044156Y008095D01*
X047503Y008095D01*
X047306Y010754D02*
X047206Y010754D01*
X047306Y010912D02*
X047048Y010912D01*
X047015Y011071D02*
X047306Y011071D01*
X047306Y011229D02*
X047015Y011229D01*
X047015Y011388D02*
X047306Y011388D01*
X047306Y011546D02*
X047015Y011546D01*
X047015Y011705D02*
X047306Y011705D01*
X047306Y011863D02*
X047015Y011863D01*
X047015Y012022D02*
X047306Y012022D01*
X047306Y012180D02*
X047015Y012180D01*
X047015Y012339D02*
X047306Y012339D01*
X047306Y012497D02*
X047015Y012497D01*
X047015Y012656D02*
X047306Y012656D01*
X047306Y012814D02*
X047015Y012814D01*
X047015Y012973D02*
X047306Y012973D01*
X047306Y013131D02*
X047015Y013131D01*
X047015Y013290D02*
X047306Y013290D01*
X047306Y013448D02*
X047015Y013448D01*
X047015Y013607D02*
X047306Y013607D01*
X047306Y013765D02*
X047015Y013765D01*
X047015Y013924D02*
X047306Y013924D01*
X047306Y014082D02*
X047015Y014082D01*
X047015Y014241D02*
X047306Y014241D01*
X047306Y014399D02*
X047015Y014399D01*
X047015Y014558D02*
X047306Y014558D01*
X047306Y014716D02*
X047015Y014716D01*
X047015Y014875D02*
X047306Y014875D01*
X047306Y015033D02*
X047015Y015033D01*
X047015Y015192D02*
X047306Y015192D01*
X047306Y015350D02*
X047015Y015350D01*
X047015Y015509D02*
X047306Y015509D01*
X047306Y015667D02*
X047015Y015667D01*
X047015Y015826D02*
X047306Y015826D01*
X047306Y015984D02*
X047015Y015984D01*
X047015Y016143D02*
X047306Y016143D01*
X047306Y016301D02*
X047015Y016301D01*
X047015Y016460D02*
X047306Y016460D01*
X047306Y016618D02*
X047015Y016618D01*
X047015Y016777D02*
X047306Y016777D01*
X047306Y016935D02*
X047015Y016935D01*
X047015Y017094D02*
X047306Y017094D01*
X044993Y015821D02*
X044845Y015674D01*
X044993Y015821D02*
X044993Y021825D01*
X046750Y021373D02*
X047106Y021373D01*
X047195Y021373D02*
X047235Y021373D01*
X047324Y021373D02*
X048106Y021373D01*
X048195Y021373D02*
X048235Y021373D01*
X048324Y021373D02*
X048680Y021373D01*
X048591Y021215D02*
X048563Y021215D01*
X048235Y021215D02*
X048195Y021215D01*
X048195Y021056D02*
X048235Y021056D01*
X048235Y020898D02*
X048195Y020898D01*
X048195Y020739D02*
X048235Y020739D01*
X048235Y020581D02*
X048195Y020581D01*
X048195Y020422D02*
X048235Y020422D01*
X048235Y020264D02*
X048195Y020264D01*
X048195Y020105D02*
X048235Y020105D01*
X047882Y020105D02*
X047548Y020105D01*
X047634Y020264D02*
X047797Y020264D01*
X047778Y020422D02*
X047653Y020422D01*
X047653Y020581D02*
X047778Y020581D01*
X047778Y020739D02*
X047653Y020739D01*
X047653Y020898D02*
X047778Y020898D01*
X047790Y021056D02*
X047640Y021056D01*
X047563Y021215D02*
X047868Y021215D01*
X047235Y021215D02*
X047195Y021215D01*
X047195Y021056D02*
X047235Y021056D01*
X047235Y020898D02*
X047195Y020898D01*
X047195Y020739D02*
X047235Y020739D01*
X047235Y020581D02*
X047195Y020581D01*
X047195Y020422D02*
X047235Y020422D01*
X047235Y020264D02*
X047195Y020264D01*
X047195Y020105D02*
X047235Y020105D01*
X046868Y021215D02*
X046840Y021215D01*
X040743Y019788D02*
X040533Y019788D01*
X040743Y019630D02*
X037096Y019630D01*
X037255Y019471D02*
X040743Y019471D01*
X040743Y019313D02*
X037413Y019313D01*
X037480Y019154D02*
X040743Y019154D01*
X040743Y018996D02*
X037484Y018996D01*
X037484Y018837D02*
X040743Y018837D01*
X040743Y018679D02*
X037484Y018679D01*
X037484Y018520D02*
X037726Y018520D01*
X037568Y018362D02*
X037500Y018362D01*
X038342Y018520D02*
X040743Y018520D01*
X040743Y018362D02*
X038500Y018362D01*
X038659Y018203D02*
X040743Y018203D01*
X040743Y018045D02*
X038713Y018045D01*
X038713Y017886D02*
X040743Y017886D01*
X040743Y017728D02*
X038713Y017728D01*
X038695Y017569D02*
X040743Y017569D01*
X040743Y017411D02*
X038537Y017411D01*
X038378Y017252D02*
X040743Y017252D01*
X040743Y017094D02*
X038427Y017094D01*
X038471Y016935D02*
X040743Y016935D01*
X040743Y016777D02*
X038471Y016777D01*
X038471Y016848D02*
X038054Y016848D01*
X038054Y016430D01*
X038215Y016430D01*
X038471Y016687D01*
X038471Y016848D01*
X038403Y016618D02*
X040743Y016618D01*
X040743Y016460D02*
X038244Y016460D01*
X038054Y016460D02*
X038014Y016460D01*
X038014Y016618D02*
X038054Y016618D01*
X038054Y016777D02*
X038014Y016777D01*
X037824Y016460D02*
X037586Y016460D01*
X037427Y016301D02*
X040743Y016301D01*
X040743Y016143D02*
X036625Y016143D01*
X036641Y016301D02*
X036514Y016301D01*
X036717Y015984D02*
X040743Y015984D01*
X040743Y015826D02*
X036731Y015826D01*
X036731Y015667D02*
X040743Y015667D01*
X040743Y015509D02*
X036731Y015509D01*
X036712Y015350D02*
X040743Y015350D01*
X040743Y015192D02*
X036612Y015192D01*
X036134Y015674D02*
X036034Y015774D01*
X036034Y016868D01*
X036500Y018362D02*
X036568Y018362D01*
X036584Y018520D02*
X036342Y018520D01*
X037533Y019788D02*
X037897Y019788D01*
X038533Y019788D02*
X038897Y019788D01*
X039533Y019788D02*
X039897Y019788D01*
X040743Y014716D02*
X001624Y014716D01*
X001624Y014558D02*
X040743Y014558D01*
X040743Y014399D02*
X001624Y014399D01*
X001624Y014241D02*
X040743Y014241D01*
X040743Y014082D02*
X001624Y014082D01*
X001624Y013924D02*
X040743Y013924D01*
X040743Y013765D02*
X003418Y013765D01*
X003310Y013810D02*
X003674Y013659D01*
X003953Y013381D01*
X004103Y013016D01*
X004103Y012622D01*
X003953Y012258D01*
X003674Y011980D01*
X003310Y011829D01*
X002916Y011829D01*
X002552Y011980D01*
X002273Y012258D01*
X002122Y012622D01*
X002122Y013016D01*
X002273Y013381D01*
X002552Y013659D01*
X002916Y013810D01*
X003310Y013810D01*
X003726Y013607D02*
X040743Y013607D01*
X040743Y013448D02*
X003885Y013448D01*
X003990Y013290D02*
X016870Y013290D01*
X016712Y013131D02*
X016534Y013131D01*
X016347Y013131D02*
X016287Y013131D01*
X016287Y013177D02*
X016276Y013177D01*
X016194Y013164D01*
X016115Y013138D01*
X016040Y013100D01*
X015973Y013051D01*
X015914Y012993D01*
X015865Y012925D01*
X015827Y012851D01*
X015817Y012820D01*
X015807Y012851D01*
X015770Y012925D01*
X015721Y012993D01*
X015662Y013051D01*
X015595Y013100D01*
X015520Y013138D01*
X015441Y013164D01*
X015359Y013177D01*
X015347Y013177D01*
X015347Y012308D01*
X015287Y012308D01*
X015287Y012248D01*
X014789Y012248D01*
X014789Y011866D01*
X014802Y011784D01*
X014827Y011705D01*
X014865Y011631D01*
X014914Y011564D01*
X014973Y011505D01*
X015040Y011456D01*
X015115Y011418D01*
X015194Y011392D01*
X015276Y011379D01*
X015287Y011379D01*
X015287Y012248D01*
X015347Y012248D01*
X015347Y012308D01*
X016287Y012308D01*
X016287Y013177D01*
X016101Y013131D02*
X015534Y013131D01*
X015347Y013131D02*
X015287Y013131D01*
X015287Y013177D02*
X015276Y013177D01*
X015194Y013164D01*
X015115Y013138D01*
X015040Y013100D01*
X014973Y013051D01*
X014914Y012993D01*
X014865Y012925D01*
X014827Y012851D01*
X014802Y012772D01*
X014789Y012690D01*
X014789Y012308D01*
X015287Y012308D01*
X015287Y013177D01*
X015101Y013131D02*
X004056Y013131D01*
X004103Y012973D02*
X014900Y012973D01*
X014815Y012814D02*
X004103Y012814D01*
X004103Y012656D02*
X014789Y012656D01*
X014789Y012497D02*
X004051Y012497D01*
X003986Y012339D02*
X014789Y012339D01*
X014789Y012180D02*
X003874Y012180D01*
X003716Y012022D02*
X014789Y012022D01*
X014789Y011863D02*
X003392Y011863D01*
X002833Y011863D02*
X001624Y011863D01*
X001624Y011705D02*
X014828Y011705D01*
X014932Y011546D02*
X001624Y011546D01*
X001624Y011388D02*
X015224Y011388D01*
X015287Y011388D02*
X015347Y011388D01*
X015411Y011388D02*
X016224Y011388D01*
X016287Y011388D02*
X016347Y011388D01*
X016411Y011388D02*
X016749Y011388D01*
X016945Y011229D02*
X001624Y011229D01*
X001624Y011071D02*
X003863Y011071D01*
X002510Y012022D02*
X001624Y012022D01*
X001624Y012180D02*
X002351Y012180D01*
X002240Y012339D02*
X001624Y012339D01*
X001624Y012497D02*
X002174Y012497D01*
X002122Y012656D02*
X001624Y012656D01*
X001624Y012814D02*
X002122Y012814D01*
X002122Y012973D02*
X001624Y012973D01*
X001624Y013131D02*
X002170Y013131D01*
X002235Y013290D02*
X001624Y013290D01*
X001624Y013448D02*
X002341Y013448D01*
X002499Y013607D02*
X001624Y013607D01*
X001624Y013765D02*
X002807Y013765D01*
X015287Y012973D02*
X015347Y012973D01*
X015347Y012814D02*
X015287Y012814D01*
X015287Y012656D02*
X015347Y012656D01*
X015347Y012497D02*
X015287Y012497D01*
X015287Y012339D02*
X015347Y012339D01*
X015347Y012180D02*
X015287Y012180D01*
X015287Y012022D02*
X015347Y012022D01*
X015347Y011863D02*
X015287Y011863D01*
X015287Y011705D02*
X015347Y011705D01*
X015347Y011546D02*
X015287Y011546D01*
X015703Y011546D02*
X015932Y011546D01*
X015827Y011705D02*
X015817Y011736D01*
X015807Y011705D01*
X016287Y011705D02*
X016347Y011705D01*
X016347Y011863D02*
X016287Y011863D01*
X016287Y012022D02*
X016347Y012022D01*
X016347Y012180D02*
X016287Y012180D01*
X016287Y012339D02*
X016347Y012339D01*
X016347Y012497D02*
X016287Y012497D01*
X016287Y012656D02*
X016347Y012656D01*
X016347Y012814D02*
X016287Y012814D01*
X016287Y012973D02*
X016347Y012973D01*
X015900Y012973D02*
X015735Y012973D01*
X017765Y013290D02*
X017870Y013290D01*
X018765Y013290D02*
X040743Y013290D01*
X040743Y013131D02*
X018923Y013131D01*
X019016Y012973D02*
X040743Y012973D01*
X040743Y012814D02*
X019082Y012814D01*
X019087Y012656D02*
X040743Y012656D01*
X040743Y012497D02*
X019087Y012497D01*
X019087Y012339D02*
X040743Y012339D01*
X040743Y012180D02*
X019087Y012180D01*
X019087Y012022D02*
X040743Y012022D01*
X040743Y011863D02*
X019087Y011863D01*
X019067Y011705D02*
X040743Y011705D01*
X040743Y011546D02*
X019001Y011546D01*
X018886Y011388D02*
X040743Y011388D01*
X040743Y011229D02*
X018690Y011229D01*
X016347Y011546D02*
X016287Y011546D01*
X002612Y038333D02*
X001624Y038333D01*
X001624Y038491D02*
X002418Y038491D01*
X002267Y038650D02*
X001624Y038650D01*
X001624Y038808D02*
X002202Y038808D01*
X002136Y038967D02*
X001624Y038967D01*
X001624Y039125D02*
X002122Y039125D01*
X002122Y039284D02*
X001624Y039284D01*
X001624Y039442D02*
X002142Y039442D01*
X002208Y039601D02*
X001624Y039601D01*
X001624Y039759D02*
X002274Y039759D01*
X002432Y039918D02*
X001624Y039918D01*
X001624Y040076D02*
X002646Y040076D01*
X012552Y039918D02*
X012783Y039918D01*
X013552Y039918D02*
X016783Y039918D01*
X016625Y039759D02*
X013711Y039759D01*
X014148Y039601D02*
X014188Y039601D01*
X014188Y039442D02*
X014148Y039442D01*
X014148Y039284D02*
X014188Y039284D01*
X014528Y039601D02*
X014808Y039601D01*
X015148Y039601D02*
X015188Y039601D01*
X015188Y039442D02*
X015148Y039442D01*
X015148Y039284D02*
X015188Y039284D01*
X015528Y039601D02*
X015808Y039601D01*
X016148Y039601D02*
X016188Y039601D01*
X016188Y039442D02*
X016148Y039442D01*
X016148Y039284D02*
X016188Y039284D01*
X017552Y039918D02*
X017783Y039918D01*
X018552Y039918D02*
X018783Y039918D01*
X019552Y039918D02*
X025536Y039918D01*
X025536Y039759D02*
X019711Y039759D01*
X019869Y039601D02*
X025536Y039601D01*
D12*
X041215Y020670D02*
X041203Y020658D01*
X041203Y010851D01*
X041105Y010752D01*
X004195Y010752D01*
X003999Y010556D01*
X003999Y006127D01*
X004251Y006379D02*
X008470Y006379D01*
X008483Y006392D02*
X008420Y006329D01*
X008366Y006198D01*
X008366Y006055D01*
X008420Y005924D01*
X008521Y005824D01*
X008652Y005769D01*
X008794Y005769D01*
X008925Y005824D01*
X009026Y005924D01*
X009080Y006055D01*
X009080Y006198D01*
X009026Y006329D01*
X008963Y006392D01*
X008963Y010161D01*
X009019Y010217D01*
X023280Y010217D01*
X019444Y006382D01*
X015723Y006382D01*
X015700Y006404D01*
X015580Y006454D01*
X015449Y006454D01*
X015329Y006404D01*
X015237Y006312D01*
X015187Y006192D01*
X015187Y006061D01*
X015237Y005941D01*
X015329Y005849D01*
X015449Y005799D01*
X015580Y005799D01*
X015700Y005849D01*
X015723Y005872D01*
X019600Y005872D01*
X019694Y005910D01*
X023691Y009907D01*
X026067Y009907D01*
X025912Y009843D01*
X025696Y009626D01*
X025578Y009343D01*
X025578Y007855D01*
X025696Y007572D01*
X025912Y007355D01*
X026196Y007238D01*
X026502Y007238D01*
X026785Y007355D01*
X027002Y007572D01*
X027120Y007855D01*
X027120Y009343D01*
X027002Y009626D01*
X026785Y009843D01*
X026630Y009907D01*
X028052Y009907D01*
X027897Y009843D01*
X027680Y009626D01*
X027563Y009343D01*
X027563Y007855D01*
X027680Y007572D01*
X027897Y007355D01*
X028180Y007238D01*
X028486Y007238D01*
X028770Y007355D01*
X028986Y007572D01*
X029104Y007855D01*
X029104Y009343D01*
X028986Y009626D01*
X028770Y009843D01*
X028615Y009907D01*
X030036Y009907D01*
X029881Y009843D01*
X029664Y009626D01*
X029547Y009343D01*
X029547Y007855D01*
X029664Y007572D01*
X029881Y007355D01*
X030164Y007238D01*
X030471Y007238D01*
X030754Y007355D01*
X030971Y007572D01*
X031088Y007855D01*
X031088Y009343D01*
X030971Y009626D01*
X030754Y009843D01*
X030599Y009907D01*
X032319Y009907D01*
X032164Y009843D01*
X031948Y009626D01*
X031830Y009343D01*
X031830Y007855D01*
X031948Y007572D01*
X032164Y007355D01*
X032448Y007238D01*
X032754Y007238D01*
X033037Y007355D01*
X033254Y007572D01*
X033371Y007855D01*
X033371Y009343D01*
X033254Y009626D01*
X033037Y009843D01*
X032882Y009907D01*
X034304Y009907D01*
X034149Y009843D01*
X033932Y009626D01*
X033815Y009343D01*
X033815Y007855D01*
X033932Y007572D01*
X034149Y007355D01*
X034432Y007238D01*
X034738Y007238D01*
X035022Y007355D01*
X035238Y007572D01*
X035356Y007855D01*
X035356Y009343D01*
X035238Y009626D01*
X035022Y009843D01*
X034867Y009907D01*
X036288Y009907D01*
X036133Y009843D01*
X035916Y009626D01*
X035799Y009343D01*
X035799Y007855D01*
X035916Y007572D01*
X036133Y007355D01*
X036416Y007238D01*
X036723Y007238D01*
X037006Y007355D01*
X037223Y007572D01*
X037340Y007855D01*
X037340Y009343D01*
X037223Y009626D01*
X037006Y009843D01*
X036851Y009907D01*
X043124Y009907D01*
X043218Y009946D01*
X043360Y010087D01*
X043431Y010159D01*
X043470Y010253D01*
X043470Y010494D01*
X043994Y010495D01*
X043994Y010368D01*
X043517Y009890D01*
X043444Y009817D01*
X043404Y009722D01*
X043404Y008535D01*
X043444Y008440D01*
X043936Y007948D01*
X044009Y007875D01*
X044104Y007835D01*
X047299Y007835D01*
X047317Y007817D01*
X047437Y007767D01*
X047568Y007767D01*
X047688Y007817D01*
X047780Y007909D01*
X047830Y008030D01*
X047830Y008160D01*
X047780Y008281D01*
X047688Y008373D01*
X047568Y008423D01*
X047437Y008423D01*
X047317Y008373D01*
X047299Y008355D01*
X044264Y008355D01*
X043924Y008695D01*
X043924Y009562D01*
X044475Y010113D01*
X044514Y010209D01*
X044514Y010496D01*
X044924Y010497D01*
X044924Y010418D01*
X045031Y010313D01*
X044156Y009439D01*
X044068Y009226D01*
X044068Y008995D01*
X044156Y008782D01*
X044320Y008619D01*
X044533Y008531D01*
X044764Y008531D01*
X044977Y008619D01*
X045928Y009570D01*
X050278Y009532D01*
X050317Y004689D01*
X049806Y004709D01*
X044905Y004699D01*
X044919Y004705D01*
X045054Y004840D01*
X045127Y005016D01*
X045127Y005206D01*
X045054Y005382D01*
X044919Y005517D01*
X044743Y005589D01*
X044553Y005589D01*
X044377Y005517D01*
X044242Y005382D01*
X044169Y005206D01*
X044169Y005016D01*
X044242Y004840D01*
X044377Y004705D01*
X044394Y004698D01*
X040534Y004689D01*
X040475Y004119D01*
X040475Y001953D01*
X040241Y001719D01*
X021203Y001719D01*
X021206Y001722D01*
X021206Y001900D01*
X021152Y001955D01*
X021206Y002009D01*
X021206Y002187D01*
X021063Y002331D01*
X021025Y002368D01*
X020937Y002456D01*
X020759Y002456D01*
X020695Y002393D01*
X020653Y002351D01*
X020548Y002456D01*
X020227Y002456D01*
X020101Y002331D01*
X020029Y002259D01*
X020029Y002241D01*
X019825Y002241D01*
X019825Y002259D01*
X019753Y002331D01*
X019627Y002456D01*
X019306Y002456D01*
X019236Y002387D01*
X019167Y002456D01*
X018845Y002456D01*
X018719Y002331D01*
X018648Y002259D01*
X018648Y002241D01*
X018444Y002241D01*
X018444Y002259D01*
X018246Y002456D01*
X017925Y002456D01*
X017855Y002387D01*
X017786Y002456D01*
X017464Y002456D01*
X017392Y002385D01*
X017359Y002351D01*
X017342Y002368D01*
X017254Y002456D01*
X017075Y002456D01*
X017012Y002393D01*
X016970Y002351D01*
X016865Y002456D01*
X016543Y002456D01*
X016346Y002259D01*
X016346Y002009D01*
X016400Y001955D01*
X016346Y001900D01*
X016346Y001722D01*
X016348Y001719D01*
X001461Y001719D01*
X001461Y010419D01*
X003759Y010423D01*
X003759Y006392D01*
X003696Y006329D01*
X003641Y006198D01*
X003641Y006055D01*
X003696Y005924D01*
X003796Y005824D01*
X003928Y005769D01*
X004070Y005769D01*
X004201Y005824D01*
X004301Y005924D01*
X004356Y006055D01*
X004356Y006198D01*
X004301Y006329D01*
X004239Y006392D01*
X004239Y010424D01*
X008555Y010432D01*
X008520Y010396D01*
X008483Y010308D01*
X008483Y006392D01*
X008483Y006498D02*
X004239Y006498D01*
X004239Y006616D02*
X008483Y006616D01*
X008483Y006735D02*
X004239Y006735D01*
X004239Y006853D02*
X008483Y006853D01*
X008483Y006972D02*
X004239Y006972D01*
X004239Y007090D02*
X008483Y007090D01*
X008483Y007209D02*
X004239Y007209D01*
X004239Y007327D02*
X008483Y007327D01*
X008483Y007446D02*
X004239Y007446D01*
X004239Y007564D02*
X008483Y007564D01*
X008483Y007683D02*
X004239Y007683D01*
X004239Y007801D02*
X008483Y007801D01*
X008483Y007920D02*
X004239Y007920D01*
X004239Y008038D02*
X008483Y008038D01*
X008483Y008157D02*
X004239Y008157D01*
X004239Y008275D02*
X008483Y008275D01*
X008483Y008394D02*
X004239Y008394D01*
X004239Y008512D02*
X008483Y008512D01*
X008483Y008631D02*
X004239Y008631D01*
X004239Y008749D02*
X008483Y008749D01*
X008483Y008868D02*
X004239Y008868D01*
X004239Y008986D02*
X008483Y008986D01*
X008483Y009105D02*
X004239Y009105D01*
X004239Y009223D02*
X008483Y009223D01*
X008483Y009342D02*
X004239Y009342D01*
X004239Y009460D02*
X008483Y009460D01*
X008483Y009579D02*
X004239Y009579D01*
X004239Y009697D02*
X008483Y009697D01*
X008483Y009816D02*
X004239Y009816D01*
X004239Y009934D02*
X008483Y009934D01*
X008483Y010053D02*
X004239Y010053D01*
X004239Y010171D02*
X008483Y010171D01*
X008483Y010290D02*
X004239Y010290D01*
X004239Y010408D02*
X008531Y010408D01*
X008723Y010260D02*
X008723Y006127D01*
X008975Y006379D02*
X014199Y006379D01*
X014199Y006261D02*
X009054Y006261D01*
X009080Y006142D02*
X014199Y006142D01*
X014199Y006024D02*
X009067Y006024D01*
X009007Y005905D02*
X014199Y005905D01*
X014199Y005787D02*
X008836Y005787D01*
X008610Y005787D02*
X004111Y005787D01*
X004282Y005905D02*
X008439Y005905D01*
X008379Y006024D02*
X004343Y006024D01*
X004356Y006142D02*
X008366Y006142D01*
X008392Y006261D02*
X004330Y006261D01*
X003746Y006379D02*
X001461Y006379D01*
X001461Y006261D02*
X003668Y006261D01*
X003641Y006142D02*
X001461Y006142D01*
X001461Y006024D02*
X003655Y006024D01*
X003715Y005905D02*
X001461Y005905D01*
X001461Y005787D02*
X003886Y005787D01*
X003759Y006498D02*
X001461Y006498D01*
X001461Y006616D02*
X003759Y006616D01*
X003759Y006735D02*
X001461Y006735D01*
X001461Y006853D02*
X003759Y006853D01*
X003759Y006972D02*
X001461Y006972D01*
X001461Y007090D02*
X003759Y007090D01*
X003759Y007209D02*
X001461Y007209D01*
X001461Y007327D02*
X003759Y007327D01*
X003759Y007446D02*
X001461Y007446D01*
X001461Y007564D02*
X003759Y007564D01*
X003759Y007683D02*
X001461Y007683D01*
X001461Y007801D02*
X003759Y007801D01*
X003759Y007920D02*
X001461Y007920D01*
X001461Y008038D02*
X003759Y008038D01*
X003759Y008157D02*
X001461Y008157D01*
X001461Y008275D02*
X003759Y008275D01*
X003759Y008394D02*
X001461Y008394D01*
X001461Y008512D02*
X003759Y008512D01*
X003759Y008631D02*
X001461Y008631D01*
X001461Y008749D02*
X003759Y008749D01*
X003759Y008868D02*
X001461Y008868D01*
X001461Y008986D02*
X003759Y008986D01*
X003759Y009105D02*
X001461Y009105D01*
X001461Y009223D02*
X003759Y009223D01*
X003759Y009342D02*
X001461Y009342D01*
X001461Y009460D02*
X003759Y009460D01*
X003759Y009579D02*
X001461Y009579D01*
X001461Y009697D02*
X003759Y009697D01*
X003759Y009816D02*
X001461Y009816D01*
X001461Y009934D02*
X003759Y009934D01*
X003759Y010053D02*
X001461Y010053D01*
X001461Y010171D02*
X003759Y010171D01*
X003759Y010290D02*
X001461Y010290D01*
X001461Y010408D02*
X003759Y010408D01*
X008723Y010260D02*
X008920Y010457D01*
X042089Y010457D01*
X042188Y010556D01*
X042188Y020642D01*
X042215Y020670D01*
X047798Y016166D02*
X048191Y016560D01*
X059609Y016560D01*
X061380Y014788D01*
X063819Y014788D01*
X063819Y014435D01*
X063783Y014485D01*
X063736Y014532D01*
X063683Y014570D01*
X063625Y014600D01*
X063562Y014620D01*
X063497Y014631D01*
X063226Y014631D01*
X063226Y014253D01*
X063146Y014253D01*
X063146Y014631D01*
X062874Y014631D01*
X062809Y014620D01*
X062747Y014600D01*
X062688Y014570D01*
X062635Y014532D01*
X062588Y014485D01*
X062550Y014432D01*
X062520Y014373D01*
X062500Y014311D01*
X062491Y014253D01*
X063146Y014253D01*
X063146Y014173D01*
X062491Y014173D01*
X062500Y014115D01*
X062520Y014053D01*
X062550Y013994D01*
X062588Y013941D01*
X062627Y013902D01*
X048241Y013902D01*
X047798Y014296D01*
X047798Y016166D01*
X047847Y016215D02*
X059954Y016215D01*
X059835Y016333D02*
X047965Y016333D01*
X048084Y016452D02*
X059717Y016452D01*
X060072Y016096D02*
X047798Y016096D01*
X047798Y015978D02*
X060191Y015978D01*
X060309Y015859D02*
X057148Y015859D01*
X057099Y015866D02*
X057090Y015866D01*
X057090Y015147D01*
X057809Y015147D01*
X057809Y015157D01*
X057796Y015255D01*
X057770Y015351D01*
X057732Y015443D01*
X057682Y015529D01*
X057621Y015608D01*
X057551Y015678D01*
X057472Y015739D01*
X057386Y015789D01*
X057294Y015827D01*
X057198Y015853D01*
X057099Y015866D01*
X057090Y015859D02*
X057010Y015859D01*
X057010Y015866D02*
X057000Y015866D01*
X056901Y015853D01*
X056805Y015827D01*
X056713Y015789D01*
X056627Y015739D01*
X056548Y015678D01*
X056478Y015608D01*
X056418Y015529D01*
X056368Y015443D01*
X056330Y015351D01*
X056304Y015255D01*
X056291Y015157D01*
X056291Y015147D01*
X057010Y015147D01*
X057010Y015866D01*
X056951Y015859D02*
X049668Y015859D01*
X049619Y015866D02*
X049609Y015866D01*
X049609Y015147D01*
X049529Y015147D01*
X049529Y015067D01*
X048811Y015067D01*
X048811Y015057D01*
X048824Y014958D01*
X048849Y014862D01*
X048887Y014771D01*
X048937Y014684D01*
X048998Y014605D01*
X049068Y014535D01*
X049147Y014475D01*
X049233Y014425D01*
X049325Y014387D01*
X049421Y014361D01*
X049520Y014348D01*
X049529Y014348D01*
X049529Y015067D01*
X049609Y015067D01*
X049609Y014348D01*
X049619Y014348D01*
X049718Y014361D01*
X049814Y014387D01*
X049906Y014425D01*
X049992Y014475D01*
X050071Y014535D01*
X050141Y014605D01*
X050202Y014684D01*
X050251Y014771D01*
X050289Y014862D01*
X050315Y014958D01*
X050328Y015057D01*
X050328Y015067D01*
X049609Y015067D01*
X049609Y015147D01*
X050328Y015147D01*
X050328Y015157D01*
X050315Y015255D01*
X050289Y015351D01*
X050251Y015443D01*
X050202Y015529D01*
X050141Y015608D01*
X050071Y015678D01*
X049992Y015739D01*
X049906Y015789D01*
X049814Y015827D01*
X049718Y015853D01*
X049619Y015866D01*
X049609Y015859D02*
X049529Y015859D01*
X049529Y015866D02*
X049520Y015866D01*
X049421Y015853D01*
X049325Y015827D01*
X049233Y015789D01*
X049147Y015739D01*
X049068Y015678D01*
X048998Y015608D01*
X048937Y015529D01*
X048887Y015443D01*
X048849Y015351D01*
X048824Y015255D01*
X048811Y015157D01*
X048811Y015147D01*
X049529Y015147D01*
X049529Y015866D01*
X049471Y015859D02*
X047798Y015859D01*
X047798Y015741D02*
X049150Y015741D01*
X049012Y015622D02*
X047798Y015622D01*
X047798Y015504D02*
X048922Y015504D01*
X048863Y015385D02*
X047798Y015385D01*
X047798Y015267D02*
X048827Y015267D01*
X048811Y015148D02*
X047798Y015148D01*
X047798Y015030D02*
X048814Y015030D01*
X048836Y014911D02*
X047798Y014911D01*
X047798Y014793D02*
X048878Y014793D01*
X048945Y014674D02*
X047798Y014674D01*
X047798Y014556D02*
X049048Y014556D01*
X049212Y014437D02*
X047798Y014437D01*
X047798Y014319D02*
X062502Y014319D01*
X062554Y014437D02*
X057407Y014437D01*
X057386Y014425D02*
X057472Y014475D01*
X057551Y014535D01*
X057621Y014605D01*
X057682Y014684D01*
X057732Y014771D01*
X057770Y014862D01*
X057796Y014958D01*
X057809Y015057D01*
X057809Y015067D01*
X057090Y015067D01*
X057090Y015147D01*
X057010Y015147D01*
X057010Y015067D01*
X057090Y015067D01*
X057090Y014348D01*
X057099Y014348D01*
X057198Y014361D01*
X057294Y014387D01*
X057386Y014425D01*
X057572Y014556D02*
X062668Y014556D01*
X063146Y014556D02*
X063226Y014556D01*
X063226Y014437D02*
X063146Y014437D01*
X063146Y014319D02*
X063226Y014319D01*
X063146Y014200D02*
X047905Y014200D01*
X048039Y014082D02*
X062511Y014082D01*
X062572Y013963D02*
X048172Y013963D01*
X048191Y013607D02*
X062768Y013607D01*
X062747Y013600D01*
X062688Y013570D01*
X062635Y013532D01*
X062588Y013485D01*
X062550Y013432D01*
X062520Y013373D01*
X062500Y013311D01*
X062491Y013253D01*
X063146Y013253D01*
X063146Y013173D01*
X063226Y013173D01*
X063226Y012796D01*
X063497Y012796D01*
X063562Y012806D01*
X063625Y012826D01*
X063683Y012856D01*
X063736Y012895D01*
X063783Y012941D01*
X063819Y012991D01*
X063819Y012564D01*
X063747Y012636D01*
X063564Y012712D01*
X062808Y012712D01*
X062624Y012636D01*
X062484Y012496D01*
X062408Y012312D01*
X062408Y012114D01*
X062484Y011931D01*
X062624Y011790D01*
X062808Y011714D01*
X063564Y011714D01*
X063747Y011790D01*
X063819Y011863D01*
X063819Y007939D01*
X063780Y007978D01*
X063574Y008063D01*
X062675Y008063D01*
X062469Y007978D01*
X062312Y007821D01*
X062227Y007616D01*
X062227Y007393D01*
X062312Y007188D01*
X062469Y007031D01*
X062675Y006946D01*
X063574Y006946D01*
X063780Y007031D01*
X063819Y007070D01*
X063819Y001719D01*
X059018Y001719D01*
X059018Y005733D01*
X048191Y005733D01*
X047798Y006127D01*
X047798Y007870D01*
X047814Y007887D01*
X047870Y008022D01*
X047870Y008168D01*
X047814Y008303D01*
X047798Y008320D01*
X047798Y013213D01*
X048191Y013607D01*
X048074Y013489D02*
X062592Y013489D01*
X062519Y013371D02*
X047955Y013371D01*
X047837Y013252D02*
X063146Y013252D01*
X063146Y013173D02*
X062491Y013173D01*
X062500Y013115D01*
X062520Y013053D01*
X062550Y012994D01*
X062588Y012941D01*
X062635Y012895D01*
X062688Y012856D01*
X062747Y012826D01*
X062809Y012806D01*
X062874Y012796D01*
X063146Y012796D01*
X063146Y013173D01*
X063146Y013134D02*
X063226Y013134D01*
X063226Y013015D02*
X063146Y013015D01*
X063146Y012897D02*
X063226Y012897D01*
X063738Y012897D02*
X063819Y012897D01*
X063819Y012778D02*
X057451Y012778D01*
X057364Y012866D02*
X057090Y012866D01*
X057090Y012147D01*
X057809Y012147D01*
X057809Y012421D01*
X057364Y012866D01*
X057090Y012778D02*
X057010Y012778D01*
X057010Y012866D02*
X056735Y012866D01*
X056291Y012421D01*
X056291Y012147D01*
X057010Y012147D01*
X057010Y012866D01*
X057010Y012660D02*
X057090Y012660D01*
X057090Y012541D02*
X057010Y012541D01*
X057010Y012423D02*
X057090Y012423D01*
X057090Y012304D02*
X057010Y012304D01*
X057010Y012186D02*
X057090Y012186D01*
X057090Y012147D02*
X057010Y012147D01*
X057010Y012067D01*
X049609Y012067D01*
X049609Y011348D01*
X049884Y011348D01*
X050328Y011793D01*
X050328Y012067D01*
X049609Y012067D01*
X049529Y012067D01*
X047798Y012067D01*
X047798Y011949D02*
X048811Y011949D01*
X048811Y012067D02*
X048811Y011793D01*
X049255Y011348D01*
X049529Y011348D01*
X049529Y012067D01*
X048811Y012067D01*
X048811Y012147D02*
X049529Y012147D01*
X049529Y012067D01*
X049529Y012147D02*
X049529Y012866D01*
X049255Y012866D01*
X048811Y012421D01*
X048811Y012147D01*
X048811Y012186D02*
X047798Y012186D01*
X047798Y012304D02*
X048811Y012304D01*
X048812Y012423D02*
X047798Y012423D01*
X047798Y012541D02*
X048931Y012541D01*
X049049Y012660D02*
X047798Y012660D01*
X047798Y012778D02*
X049168Y012778D01*
X049529Y012778D02*
X049609Y012778D01*
X049609Y012866D02*
X049609Y012147D01*
X049529Y012147D01*
X049529Y012186D02*
X049609Y012186D01*
X049609Y012147D02*
X050328Y012147D01*
X050328Y012421D01*
X049884Y012866D01*
X049609Y012866D01*
X049609Y012660D02*
X049529Y012660D01*
X049529Y012541D02*
X049609Y012541D01*
X049609Y012423D02*
X049529Y012423D01*
X049529Y012304D02*
X049609Y012304D01*
X049609Y012147D02*
X049609Y012067D01*
X049609Y011949D02*
X049529Y011949D01*
X049529Y011830D02*
X049609Y011830D01*
X049609Y011712D02*
X049529Y011712D01*
X049529Y011593D02*
X049609Y011593D01*
X049609Y011475D02*
X049529Y011475D01*
X049529Y011356D02*
X049609Y011356D01*
X049892Y011356D02*
X056727Y011356D01*
X056735Y011348D02*
X056291Y011793D01*
X056291Y012067D01*
X057010Y012067D01*
X057090Y012067D01*
X062427Y012067D01*
X062408Y012186D02*
X057809Y012186D01*
X057809Y012304D02*
X062408Y012304D01*
X062454Y012423D02*
X057807Y012423D01*
X057688Y012541D02*
X062530Y012541D01*
X062682Y012660D02*
X057570Y012660D01*
X057809Y012067D02*
X057090Y012067D01*
X057090Y012147D01*
X057090Y012067D02*
X057090Y011348D01*
X057364Y011348D01*
X057809Y011793D01*
X057809Y012067D01*
X057809Y011949D02*
X062477Y011949D01*
X062585Y011830D02*
X057809Y011830D01*
X057728Y011712D02*
X063819Y011712D01*
X063819Y011830D02*
X063787Y011830D01*
X063819Y011593D02*
X057609Y011593D01*
X057491Y011475D02*
X063819Y011475D01*
X063819Y011356D02*
X057372Y011356D01*
X057090Y011356D02*
X057010Y011356D01*
X057010Y011348D02*
X057010Y012067D01*
X057010Y011949D02*
X057090Y011949D01*
X057090Y011830D02*
X057010Y011830D01*
X057010Y011712D02*
X057090Y011712D01*
X057090Y011593D02*
X057010Y011593D01*
X057010Y011475D02*
X057090Y011475D01*
X057010Y011348D02*
X056735Y011348D01*
X056609Y011475D02*
X050010Y011475D01*
X050129Y011593D02*
X056490Y011593D01*
X056372Y011712D02*
X050247Y011712D01*
X050328Y011830D02*
X056291Y011830D01*
X056291Y011949D02*
X050328Y011949D01*
X050328Y012186D02*
X056291Y012186D01*
X056291Y012304D02*
X050328Y012304D01*
X050327Y012423D02*
X056293Y012423D01*
X056411Y012541D02*
X050208Y012541D01*
X050090Y012660D02*
X056530Y012660D01*
X056648Y012778D02*
X049971Y012778D01*
X048811Y011830D02*
X047798Y011830D01*
X047798Y011712D02*
X048892Y011712D01*
X049010Y011593D02*
X047798Y011593D01*
X047798Y011475D02*
X049129Y011475D01*
X049247Y011356D02*
X047798Y011356D01*
X047798Y011238D02*
X063819Y011238D01*
X063819Y011119D02*
X047798Y011119D01*
X047798Y011001D02*
X063819Y011001D01*
X063819Y010882D02*
X062355Y010882D01*
X062333Y010891D02*
X062003Y010891D01*
X061699Y010765D01*
X061466Y010532D01*
X061340Y010228D01*
X061340Y009899D01*
X061466Y009595D01*
X061699Y009362D01*
X062003Y009236D01*
X062333Y009236D01*
X062637Y009362D01*
X062870Y009595D01*
X062996Y009899D01*
X062996Y010228D01*
X062870Y010532D01*
X062637Y010765D01*
X062333Y010891D01*
X062638Y010764D02*
X063819Y010764D01*
X063819Y010645D02*
X062757Y010645D01*
X062872Y010527D02*
X063819Y010527D01*
X063819Y010408D02*
X062921Y010408D01*
X062970Y010290D02*
X063819Y010290D01*
X063819Y010171D02*
X062996Y010171D01*
X062996Y010053D02*
X063819Y010053D01*
X063819Y009934D02*
X062996Y009934D01*
X062961Y009816D02*
X063819Y009816D01*
X063819Y009697D02*
X062912Y009697D01*
X062854Y009579D02*
X063819Y009579D01*
X063819Y009460D02*
X062735Y009460D01*
X062588Y009342D02*
X063819Y009342D01*
X063819Y009223D02*
X047798Y009223D01*
X047798Y009105D02*
X063819Y009105D01*
X063819Y008986D02*
X047798Y008986D01*
X047798Y008868D02*
X063819Y008868D01*
X063819Y008749D02*
X047798Y008749D01*
X047798Y008631D02*
X063819Y008631D01*
X063819Y008512D02*
X047798Y008512D01*
X047798Y008394D02*
X063819Y008394D01*
X063819Y008275D02*
X047826Y008275D01*
X047783Y008275D02*
X050288Y008275D01*
X050289Y008157D02*
X047830Y008157D01*
X047870Y008157D02*
X063819Y008157D01*
X063819Y008038D02*
X063635Y008038D01*
X062614Y008038D02*
X054635Y008038D01*
X054574Y008063D02*
X053675Y008063D01*
X053469Y007978D01*
X053312Y007821D01*
X053227Y007616D01*
X053227Y007393D01*
X053312Y007188D01*
X053469Y007031D01*
X053675Y006946D01*
X054574Y006946D01*
X054780Y007031D01*
X054937Y007188D01*
X055022Y007393D01*
X055022Y007616D01*
X054937Y007821D01*
X054780Y007978D01*
X054574Y008063D01*
X054838Y007920D02*
X062411Y007920D01*
X062304Y007801D02*
X054945Y007801D01*
X054994Y007683D02*
X062255Y007683D01*
X062227Y007564D02*
X055022Y007564D01*
X055022Y007446D02*
X062227Y007446D01*
X062255Y007327D02*
X054995Y007327D01*
X054946Y007209D02*
X062304Y007209D01*
X062410Y007090D02*
X054839Y007090D01*
X054637Y006972D02*
X062612Y006972D01*
X063637Y006972D02*
X063819Y006972D01*
X063819Y006853D02*
X047798Y006853D01*
X047798Y006735D02*
X063819Y006735D01*
X063819Y006616D02*
X047798Y006616D01*
X047798Y006498D02*
X063819Y006498D01*
X063819Y006379D02*
X047798Y006379D01*
X047798Y006261D02*
X063819Y006261D01*
X063819Y006142D02*
X047798Y006142D01*
X047901Y006024D02*
X063819Y006024D01*
X063819Y005905D02*
X048019Y005905D01*
X048138Y005787D02*
X063819Y005787D01*
X063819Y005668D02*
X059018Y005668D01*
X059018Y005550D02*
X063819Y005550D01*
X063819Y005431D02*
X059018Y005431D01*
X059018Y005313D02*
X063819Y005313D01*
X063819Y005194D02*
X059018Y005194D01*
X059018Y005076D02*
X063819Y005076D01*
X063819Y004957D02*
X059018Y004957D01*
X059018Y004839D02*
X063819Y004839D01*
X063819Y004720D02*
X059018Y004720D01*
X059018Y004602D02*
X063819Y004602D01*
X063819Y004483D02*
X059018Y004483D01*
X059018Y004365D02*
X063819Y004365D01*
X063819Y004246D02*
X059018Y004246D01*
X059018Y004128D02*
X063819Y004128D01*
X063819Y004009D02*
X059018Y004009D01*
X059018Y003891D02*
X063819Y003891D01*
X063819Y003772D02*
X059018Y003772D01*
X059018Y003654D02*
X063819Y003654D01*
X063819Y003535D02*
X059018Y003535D01*
X059018Y003417D02*
X063819Y003417D01*
X063819Y003298D02*
X059018Y003298D01*
X059018Y003180D02*
X061114Y003180D01*
X061011Y003137D02*
X060827Y002953D01*
X060727Y002713D01*
X060727Y002453D01*
X060827Y002213D01*
X061011Y002030D01*
X061251Y001930D01*
X061510Y001930D01*
X061750Y002030D01*
X061934Y002213D01*
X062034Y002453D01*
X062034Y002713D01*
X061934Y002953D01*
X061750Y003137D01*
X061510Y003236D01*
X061251Y003236D01*
X061011Y003137D01*
X060935Y003061D02*
X060318Y003061D01*
X060302Y003072D02*
X060222Y003113D01*
X060136Y003141D01*
X060061Y003153D01*
X060061Y002641D01*
X060572Y002641D01*
X060560Y002717D01*
X060532Y002803D01*
X060492Y002883D01*
X060439Y002956D01*
X060375Y003019D01*
X060302Y003072D01*
X060448Y002943D02*
X060822Y002943D01*
X060773Y002824D02*
X060522Y002824D01*
X060562Y002706D02*
X060727Y002706D01*
X060727Y002587D02*
X060061Y002587D01*
X060061Y002641D02*
X060061Y002525D01*
X060572Y002525D01*
X060560Y002449D01*
X060532Y002364D01*
X060492Y002284D01*
X060439Y002211D01*
X060375Y002147D01*
X060302Y002094D01*
X060222Y002053D01*
X060136Y002025D01*
X060061Y002013D01*
X060061Y002525D01*
X059944Y002525D01*
X059433Y002525D01*
X059445Y002449D01*
X059473Y002364D01*
X059513Y002284D01*
X059566Y002211D01*
X059630Y002147D01*
X059703Y002094D01*
X059783Y002053D01*
X059869Y002025D01*
X059944Y002013D01*
X059944Y002525D01*
X059944Y002641D01*
X059433Y002641D01*
X059445Y002717D01*
X059473Y002803D01*
X059513Y002883D01*
X059566Y002956D01*
X059630Y003019D01*
X059703Y003072D01*
X059783Y003113D01*
X059869Y003141D01*
X059944Y003153D01*
X059944Y002641D01*
X060061Y002641D01*
X060061Y002706D02*
X059944Y002706D01*
X059944Y002824D02*
X060061Y002824D01*
X060061Y002943D02*
X059944Y002943D01*
X059944Y003061D02*
X060061Y003061D01*
X059687Y003061D02*
X059018Y003061D01*
X059018Y002943D02*
X059557Y002943D01*
X059484Y002824D02*
X059018Y002824D01*
X059018Y002706D02*
X059443Y002706D01*
X059442Y002469D02*
X059018Y002469D01*
X059018Y002587D02*
X059944Y002587D01*
X059944Y002469D02*
X060061Y002469D01*
X060061Y002350D02*
X059944Y002350D01*
X059944Y002232D02*
X060061Y002232D01*
X060061Y002113D02*
X059944Y002113D01*
X059677Y002113D02*
X059018Y002113D01*
X059018Y001995D02*
X061095Y001995D01*
X060927Y002113D02*
X060328Y002113D01*
X060454Y002232D02*
X060819Y002232D01*
X060770Y002350D02*
X060526Y002350D01*
X060563Y002469D02*
X060727Y002469D01*
X061666Y001995D02*
X062473Y001995D01*
X062388Y002030D02*
X062629Y001930D01*
X062888Y001930D01*
X063128Y002030D01*
X063312Y002213D01*
X063411Y002453D01*
X063411Y002713D01*
X063312Y002953D01*
X063128Y003137D01*
X062888Y003236D01*
X062629Y003236D01*
X062388Y003137D01*
X062205Y002953D01*
X062105Y002713D01*
X062105Y002453D01*
X062205Y002213D01*
X062388Y002030D01*
X062305Y002113D02*
X061834Y002113D01*
X061942Y002232D02*
X062197Y002232D01*
X062148Y002350D02*
X061991Y002350D01*
X062034Y002469D02*
X062105Y002469D01*
X062105Y002587D02*
X062034Y002587D01*
X062034Y002706D02*
X062105Y002706D01*
X062151Y002824D02*
X061988Y002824D01*
X061938Y002943D02*
X062200Y002943D01*
X062313Y003061D02*
X061826Y003061D01*
X061647Y003180D02*
X062492Y003180D01*
X063025Y003180D02*
X063819Y003180D01*
X063819Y003061D02*
X063204Y003061D01*
X063316Y002943D02*
X063819Y002943D01*
X063819Y002824D02*
X063366Y002824D01*
X063411Y002706D02*
X063819Y002706D01*
X063819Y002587D02*
X063411Y002587D01*
X063411Y002469D02*
X063819Y002469D01*
X063819Y002350D02*
X063369Y002350D01*
X063320Y002232D02*
X063819Y002232D01*
X063819Y002113D02*
X063212Y002113D01*
X063044Y001995D02*
X063819Y001995D01*
X063819Y001876D02*
X059018Y001876D01*
X059018Y001758D02*
X063819Y001758D01*
X059551Y002232D02*
X059018Y002232D01*
X059018Y002350D02*
X059480Y002350D01*
X053612Y006972D02*
X047798Y006972D01*
X047798Y007090D02*
X053410Y007090D01*
X053304Y007209D02*
X047798Y007209D01*
X047798Y007327D02*
X053255Y007327D01*
X053227Y007446D02*
X047798Y007446D01*
X047798Y007564D02*
X053227Y007564D01*
X053255Y007683D02*
X047798Y007683D01*
X047798Y007801D02*
X053304Y007801D01*
X053411Y007920D02*
X047828Y007920D01*
X047784Y007920D02*
X050291Y007920D01*
X050290Y008038D02*
X047830Y008038D01*
X047870Y008038D02*
X053614Y008038D01*
X050292Y007801D02*
X047649Y007801D01*
X047356Y007801D02*
X042545Y007801D01*
X042663Y007920D02*
X043964Y007920D01*
X043845Y008038D02*
X042782Y008038D01*
X042900Y008157D02*
X043727Y008157D01*
X043608Y008275D02*
X043016Y008275D01*
X043014Y008270D02*
X038179Y003436D01*
X038016Y003273D01*
X037803Y003184D01*
X035941Y003184D01*
X036137Y003103D01*
X036310Y002930D01*
X036403Y002705D01*
X036403Y002461D01*
X036310Y002236D01*
X036137Y002063D01*
X035912Y001970D01*
X035668Y001970D01*
X035443Y002063D01*
X035270Y002236D01*
X035177Y002461D01*
X035177Y002705D01*
X035270Y002930D01*
X035443Y003103D01*
X035639Y003184D01*
X034563Y003184D01*
X034759Y003103D01*
X034932Y002930D01*
X035025Y002705D01*
X035025Y002461D01*
X034932Y002236D01*
X034759Y002063D01*
X034534Y001970D01*
X034290Y001970D01*
X034065Y002063D01*
X033892Y002236D01*
X033799Y002461D01*
X033799Y002705D01*
X033892Y002930D01*
X034065Y003103D01*
X034261Y003184D01*
X033185Y003184D01*
X033381Y003103D01*
X033554Y002930D01*
X033647Y002705D01*
X033647Y002461D01*
X033554Y002236D01*
X033381Y002063D01*
X033156Y001970D01*
X032912Y001970D01*
X032687Y002063D01*
X032514Y002236D01*
X032421Y002461D01*
X032421Y002705D01*
X032514Y002930D01*
X032687Y003103D01*
X032883Y003184D01*
X029838Y003184D01*
X030035Y003103D01*
X030207Y002930D01*
X030301Y002705D01*
X030301Y002461D01*
X030207Y002236D01*
X030035Y002063D01*
X029810Y001970D01*
X029566Y001970D01*
X029340Y002063D01*
X029168Y002236D01*
X029074Y002461D01*
X029074Y002705D01*
X029168Y002930D01*
X029340Y003103D01*
X029537Y003184D01*
X028460Y003184D01*
X028657Y003103D01*
X028829Y002930D01*
X028923Y002705D01*
X028923Y002461D01*
X028829Y002236D01*
X028657Y002063D01*
X028432Y001970D01*
X028188Y001970D01*
X027962Y002063D01*
X027790Y002236D01*
X027697Y002461D01*
X027697Y002705D01*
X027790Y002930D01*
X027962Y003103D01*
X028159Y003184D01*
X027082Y003184D01*
X027279Y003103D01*
X027451Y002930D01*
X027545Y002705D01*
X027545Y002461D01*
X027451Y002236D01*
X027279Y002063D01*
X027054Y001970D01*
X026810Y001970D01*
X026584Y002063D01*
X026412Y002236D01*
X026319Y002461D01*
X026319Y002705D01*
X026412Y002930D01*
X026584Y003103D01*
X026781Y003184D01*
X025241Y003184D01*
X025028Y003273D01*
X023258Y005043D01*
X020281Y005043D01*
X020068Y005131D01*
X019905Y005294D01*
X019816Y005507D01*
X019816Y005738D01*
X019905Y005951D01*
X020068Y006114D01*
X020281Y006203D01*
X023614Y006203D01*
X023827Y006114D01*
X023990Y005951D01*
X025597Y004344D01*
X025996Y004344D01*
X025912Y004379D01*
X025696Y004596D01*
X025578Y004879D01*
X025578Y006366D01*
X025696Y006650D01*
X025912Y006866D01*
X026196Y006984D01*
X026502Y006984D01*
X026785Y006866D01*
X027002Y006650D01*
X027120Y006366D01*
X027120Y004879D01*
X027002Y004596D01*
X026785Y004379D01*
X026702Y004344D01*
X027980Y004344D01*
X027897Y004379D01*
X027680Y004596D01*
X027563Y004879D01*
X027563Y006366D01*
X027680Y006650D01*
X027897Y006866D01*
X028180Y006984D01*
X028486Y006984D01*
X028770Y006866D01*
X028986Y006650D01*
X029104Y006366D01*
X029104Y004879D01*
X028986Y004596D01*
X028770Y004379D01*
X028686Y004344D01*
X029964Y004344D01*
X029881Y004379D01*
X029664Y004596D01*
X029547Y004879D01*
X029547Y006366D01*
X029664Y006650D01*
X029881Y006866D01*
X030164Y006984D01*
X030471Y006984D01*
X030754Y006866D01*
X030971Y006650D01*
X031088Y006366D01*
X031088Y004879D01*
X030971Y004596D01*
X030754Y004379D01*
X030671Y004344D01*
X032248Y004344D01*
X032164Y004379D01*
X031948Y004596D01*
X031830Y004879D01*
X031830Y006366D01*
X031948Y006650D01*
X032164Y006866D01*
X032448Y006984D01*
X032754Y006984D01*
X033037Y006866D01*
X033254Y006650D01*
X033371Y006366D01*
X033371Y004879D01*
X033254Y004596D01*
X033037Y004379D01*
X032954Y004344D01*
X034232Y004344D01*
X034149Y004379D01*
X033932Y004596D01*
X033815Y004879D01*
X033815Y006366D01*
X033932Y006650D01*
X034149Y006866D01*
X034432Y006984D01*
X034738Y006984D01*
X035022Y006866D01*
X035238Y006650D01*
X035356Y006366D01*
X035356Y004879D01*
X035238Y004596D01*
X035022Y004379D01*
X034938Y004344D01*
X036216Y004344D01*
X036133Y004379D01*
X035916Y004596D01*
X035799Y004879D01*
X035799Y006366D01*
X035916Y006650D01*
X036133Y006866D01*
X036416Y006984D01*
X036723Y006984D01*
X037006Y006866D01*
X037223Y006650D01*
X037340Y006366D01*
X037340Y004879D01*
X037223Y004596D01*
X037006Y004379D01*
X036923Y004344D01*
X037447Y004344D01*
X042194Y009091D01*
X042407Y009179D01*
X042638Y009179D01*
X042851Y009091D01*
X043014Y008927D01*
X043102Y008714D01*
X043102Y008484D01*
X043014Y008270D01*
X043065Y008394D02*
X043490Y008394D01*
X043414Y008512D02*
X043102Y008512D01*
X043102Y008631D02*
X043404Y008631D01*
X043404Y008749D02*
X043088Y008749D01*
X043039Y008868D02*
X043404Y008868D01*
X043404Y008986D02*
X042955Y008986D01*
X042817Y009105D02*
X043404Y009105D01*
X043404Y009223D02*
X037340Y009223D01*
X037340Y009105D02*
X042227Y009105D01*
X042089Y008986D02*
X037340Y008986D01*
X037340Y008868D02*
X041971Y008868D01*
X041852Y008749D02*
X037340Y008749D01*
X037340Y008631D02*
X041734Y008631D01*
X041615Y008512D02*
X037340Y008512D01*
X037340Y008394D02*
X041497Y008394D01*
X041378Y008275D02*
X037340Y008275D01*
X037340Y008157D02*
X041260Y008157D01*
X041141Y008038D02*
X037340Y008038D01*
X037340Y007920D02*
X041023Y007920D01*
X040904Y007801D02*
X037318Y007801D01*
X037269Y007683D02*
X040786Y007683D01*
X040667Y007564D02*
X037215Y007564D01*
X037096Y007446D02*
X040549Y007446D01*
X040430Y007327D02*
X036938Y007327D01*
X036752Y006972D02*
X040075Y006972D01*
X040193Y007090D02*
X020874Y007090D01*
X020755Y006972D02*
X026167Y006972D01*
X025899Y006853D02*
X020637Y006853D01*
X020518Y006735D02*
X025781Y006735D01*
X025682Y006616D02*
X020400Y006616D01*
X020281Y006498D02*
X025633Y006498D01*
X025584Y006379D02*
X020163Y006379D01*
X020044Y006261D02*
X025578Y006261D01*
X025578Y006142D02*
X023760Y006142D01*
X023918Y006024D02*
X025578Y006024D01*
X025578Y005905D02*
X024036Y005905D01*
X024155Y005787D02*
X025578Y005787D01*
X025578Y005668D02*
X024273Y005668D01*
X024392Y005550D02*
X025578Y005550D01*
X025578Y005431D02*
X024510Y005431D01*
X024629Y005313D02*
X025578Y005313D01*
X025578Y005194D02*
X024747Y005194D01*
X024866Y005076D02*
X025578Y005076D01*
X025578Y004957D02*
X024984Y004957D01*
X025103Y004839D02*
X025595Y004839D01*
X025644Y004720D02*
X025221Y004720D01*
X025340Y004602D02*
X025693Y004602D01*
X025808Y004483D02*
X025458Y004483D01*
X025577Y004365D02*
X025947Y004365D01*
X026751Y004365D02*
X027931Y004365D01*
X027792Y004483D02*
X026890Y004483D01*
X027005Y004602D02*
X027677Y004602D01*
X027628Y004720D02*
X027054Y004720D01*
X027103Y004839D02*
X027579Y004839D01*
X027563Y004957D02*
X027120Y004957D01*
X027120Y005076D02*
X027563Y005076D01*
X027563Y005194D02*
X027120Y005194D01*
X027120Y005313D02*
X027563Y005313D01*
X027563Y005431D02*
X027120Y005431D01*
X027120Y005550D02*
X027563Y005550D01*
X027563Y005668D02*
X027120Y005668D01*
X027120Y005787D02*
X027563Y005787D01*
X027563Y005905D02*
X027120Y005905D01*
X027120Y006024D02*
X027563Y006024D01*
X027563Y006142D02*
X027120Y006142D01*
X027120Y006261D02*
X027563Y006261D01*
X027568Y006379D02*
X027114Y006379D01*
X027065Y006498D02*
X027617Y006498D01*
X027666Y006616D02*
X027016Y006616D01*
X026917Y006735D02*
X027765Y006735D01*
X027883Y006853D02*
X026799Y006853D01*
X026531Y006972D02*
X028151Y006972D01*
X028516Y006972D02*
X030135Y006972D01*
X029868Y006853D02*
X028783Y006853D01*
X028901Y006735D02*
X029749Y006735D01*
X029650Y006616D02*
X029000Y006616D01*
X029049Y006498D02*
X029601Y006498D01*
X029552Y006379D02*
X029099Y006379D01*
X029104Y006261D02*
X029547Y006261D01*
X029547Y006142D02*
X029104Y006142D01*
X029104Y006024D02*
X029547Y006024D01*
X029547Y005905D02*
X029104Y005905D01*
X029104Y005787D02*
X029547Y005787D01*
X029547Y005668D02*
X029104Y005668D01*
X029104Y005550D02*
X029547Y005550D01*
X029547Y005431D02*
X029104Y005431D01*
X029104Y005313D02*
X029547Y005313D01*
X029547Y005194D02*
X029104Y005194D01*
X029104Y005076D02*
X029547Y005076D01*
X029547Y004957D02*
X029104Y004957D01*
X029087Y004839D02*
X029564Y004839D01*
X029613Y004720D02*
X029038Y004720D01*
X028989Y004602D02*
X029662Y004602D01*
X029777Y004483D02*
X028874Y004483D01*
X028735Y004365D02*
X029915Y004365D01*
X030720Y004365D02*
X032199Y004365D01*
X032060Y004483D02*
X030858Y004483D01*
X030973Y004602D02*
X031945Y004602D01*
X031896Y004720D02*
X031022Y004720D01*
X031071Y004839D02*
X031847Y004839D01*
X031830Y004957D02*
X031088Y004957D01*
X031088Y005076D02*
X031830Y005076D01*
X031830Y005194D02*
X031088Y005194D01*
X031088Y005313D02*
X031830Y005313D01*
X031830Y005431D02*
X031088Y005431D01*
X031088Y005550D02*
X031830Y005550D01*
X031830Y005668D02*
X031088Y005668D01*
X031088Y005787D02*
X031830Y005787D01*
X031830Y005905D02*
X031088Y005905D01*
X031088Y006024D02*
X031830Y006024D01*
X031830Y006142D02*
X031088Y006142D01*
X031088Y006261D02*
X031830Y006261D01*
X031836Y006379D02*
X031083Y006379D01*
X031034Y006498D02*
X031885Y006498D01*
X031934Y006616D02*
X030985Y006616D01*
X030886Y006735D02*
X032033Y006735D01*
X032151Y006853D02*
X030767Y006853D01*
X030500Y006972D02*
X032419Y006972D01*
X032783Y006972D02*
X034403Y006972D01*
X034135Y006853D02*
X033051Y006853D01*
X033169Y006735D02*
X034017Y006735D01*
X033918Y006616D02*
X033268Y006616D01*
X033317Y006498D02*
X033869Y006498D01*
X033820Y006379D02*
X033366Y006379D01*
X033371Y006261D02*
X033815Y006261D01*
X033815Y006142D02*
X033371Y006142D01*
X033371Y006024D02*
X033815Y006024D01*
X033815Y005905D02*
X033371Y005905D01*
X033371Y005787D02*
X033815Y005787D01*
X033815Y005668D02*
X033371Y005668D01*
X033371Y005550D02*
X033815Y005550D01*
X033815Y005431D02*
X033371Y005431D01*
X033371Y005313D02*
X033815Y005313D01*
X033815Y005194D02*
X033371Y005194D01*
X033371Y005076D02*
X033815Y005076D01*
X033815Y004957D02*
X033371Y004957D01*
X033355Y004839D02*
X033831Y004839D01*
X033880Y004720D02*
X033306Y004720D01*
X033257Y004602D02*
X033929Y004602D01*
X034044Y004483D02*
X033142Y004483D01*
X033003Y004365D02*
X034183Y004365D01*
X034987Y004365D02*
X036167Y004365D01*
X036029Y004483D02*
X035126Y004483D01*
X035241Y004602D02*
X035914Y004602D01*
X035865Y004720D02*
X035290Y004720D01*
X035339Y004839D02*
X035816Y004839D01*
X035799Y004957D02*
X035356Y004957D01*
X035356Y005076D02*
X035799Y005076D01*
X035799Y005194D02*
X035356Y005194D01*
X035356Y005313D02*
X035799Y005313D01*
X035799Y005431D02*
X035356Y005431D01*
X035356Y005550D02*
X035799Y005550D01*
X035799Y005668D02*
X035356Y005668D01*
X035356Y005787D02*
X035799Y005787D01*
X035799Y005905D02*
X035356Y005905D01*
X035356Y006024D02*
X035799Y006024D01*
X035799Y006142D02*
X035356Y006142D01*
X035356Y006261D02*
X035799Y006261D01*
X035804Y006379D02*
X035350Y006379D01*
X035301Y006498D02*
X035853Y006498D01*
X035902Y006616D02*
X035252Y006616D01*
X035153Y006735D02*
X036001Y006735D01*
X036120Y006853D02*
X035035Y006853D01*
X034768Y006972D02*
X036387Y006972D01*
X036201Y007327D02*
X034954Y007327D01*
X035112Y007446D02*
X036043Y007446D01*
X035924Y007564D02*
X035231Y007564D01*
X035284Y007683D02*
X035870Y007683D01*
X035821Y007801D02*
X035333Y007801D01*
X035356Y007920D02*
X035799Y007920D01*
X035799Y008038D02*
X035356Y008038D01*
X035356Y008157D02*
X035799Y008157D01*
X035799Y008275D02*
X035356Y008275D01*
X035356Y008394D02*
X035799Y008394D01*
X035799Y008512D02*
X035356Y008512D01*
X035356Y008631D02*
X035799Y008631D01*
X035799Y008749D02*
X035356Y008749D01*
X035356Y008868D02*
X035799Y008868D01*
X035799Y008986D02*
X035356Y008986D01*
X035356Y009105D02*
X035799Y009105D01*
X035799Y009223D02*
X035356Y009223D01*
X035356Y009342D02*
X035799Y009342D01*
X035848Y009460D02*
X035307Y009460D01*
X035258Y009579D02*
X035897Y009579D01*
X035987Y009697D02*
X035167Y009697D01*
X035049Y009816D02*
X036106Y009816D01*
X037033Y009816D02*
X043443Y009816D01*
X043404Y009697D02*
X037152Y009697D01*
X037242Y009579D02*
X043404Y009579D01*
X043404Y009460D02*
X037291Y009460D01*
X037340Y009342D02*
X043404Y009342D01*
X043924Y009342D02*
X044116Y009342D01*
X044068Y009223D02*
X043924Y009223D01*
X043924Y009105D02*
X044068Y009105D01*
X044072Y008986D02*
X043924Y008986D01*
X043924Y008868D02*
X044121Y008868D01*
X044190Y008749D02*
X043924Y008749D01*
X043988Y008631D02*
X044308Y008631D01*
X044107Y008512D02*
X050286Y008512D01*
X050287Y008394D02*
X047638Y008394D01*
X047367Y008394D02*
X044225Y008394D01*
X044988Y008631D02*
X050285Y008631D01*
X050284Y008749D02*
X045107Y008749D01*
X045225Y008868D02*
X050284Y008868D01*
X050283Y008986D02*
X045344Y008986D01*
X045462Y009105D02*
X050282Y009105D01*
X050281Y009223D02*
X045581Y009223D01*
X045699Y009342D02*
X050280Y009342D01*
X050279Y009460D02*
X045818Y009460D01*
X044651Y009934D02*
X044296Y009934D01*
X044177Y009816D02*
X044533Y009816D01*
X044414Y009697D02*
X044059Y009697D01*
X043940Y009579D02*
X044296Y009579D01*
X044177Y009460D02*
X043924Y009460D01*
X043561Y009934D02*
X043190Y009934D01*
X043325Y010053D02*
X043679Y010053D01*
X043798Y010171D02*
X043436Y010171D01*
X043470Y010290D02*
X043916Y010290D01*
X043994Y010408D02*
X043470Y010408D01*
X044414Y010053D02*
X044770Y010053D01*
X044888Y010171D02*
X044499Y010171D01*
X044514Y010290D02*
X045007Y010290D01*
X044934Y010408D02*
X044514Y010408D01*
X047798Y010408D02*
X061415Y010408D01*
X061464Y010527D02*
X047798Y010527D01*
X047798Y010645D02*
X061579Y010645D01*
X061697Y010764D02*
X047798Y010764D01*
X047798Y010882D02*
X061981Y010882D01*
X061366Y010290D02*
X047798Y010290D01*
X047798Y010171D02*
X061340Y010171D01*
X061340Y010053D02*
X047798Y010053D01*
X047798Y009934D02*
X061340Y009934D01*
X061375Y009816D02*
X047798Y009816D01*
X047798Y009697D02*
X061424Y009697D01*
X061482Y009579D02*
X047798Y009579D01*
X047798Y009460D02*
X061601Y009460D01*
X061748Y009342D02*
X047798Y009342D01*
X050293Y007683D02*
X042426Y007683D01*
X042308Y007564D02*
X050294Y007564D01*
X050295Y007446D02*
X042189Y007446D01*
X042071Y007327D02*
X050296Y007327D01*
X050297Y007209D02*
X041952Y007209D01*
X041834Y007090D02*
X050298Y007090D01*
X050299Y006972D02*
X041715Y006972D01*
X041597Y006853D02*
X050300Y006853D01*
X050301Y006735D02*
X041478Y006735D01*
X041360Y006616D02*
X050302Y006616D01*
X050303Y006498D02*
X046604Y006498D01*
X046593Y006508D02*
X046246Y006508D01*
X046001Y006263D01*
X046001Y005916D01*
X046246Y005670D01*
X046593Y005670D01*
X046839Y005916D01*
X046839Y006263D01*
X046593Y006508D01*
X046722Y006379D02*
X050304Y006379D01*
X050305Y006261D02*
X046839Y006261D01*
X046839Y006142D02*
X050306Y006142D01*
X050307Y006024D02*
X046839Y006024D01*
X046828Y005905D02*
X050308Y005905D01*
X050309Y005787D02*
X046710Y005787D01*
X046763Y005717D02*
X046542Y005495D01*
X046542Y005359D01*
X046900Y005359D01*
X046900Y005717D01*
X046763Y005717D01*
X046715Y005668D02*
X046183Y005668D01*
X046093Y005758D02*
X045746Y005758D01*
X045501Y005513D01*
X045501Y005166D01*
X045746Y004920D01*
X046093Y004920D01*
X046339Y005166D01*
X046339Y005513D01*
X046093Y005758D01*
X046130Y005787D02*
X043011Y005787D01*
X043037Y005725D02*
X042958Y005914D01*
X042814Y006059D01*
X042625Y006137D01*
X042420Y006137D01*
X042231Y006059D01*
X042086Y005914D01*
X042008Y005725D01*
X042008Y005520D01*
X042086Y005331D01*
X042231Y005186D01*
X042420Y005108D01*
X042625Y005108D01*
X042814Y005186D01*
X042958Y005331D01*
X043037Y005520D01*
X043037Y005725D01*
X043037Y005668D02*
X045657Y005668D01*
X045538Y005550D02*
X044840Y005550D01*
X045005Y005431D02*
X045501Y005431D01*
X045501Y005313D02*
X045083Y005313D01*
X045127Y005194D02*
X045501Y005194D01*
X045591Y005076D02*
X045127Y005076D01*
X045103Y004957D02*
X045710Y004957D01*
X046130Y004957D02*
X050315Y004957D01*
X050316Y004839D02*
X045053Y004839D01*
X044935Y004720D02*
X050317Y004720D01*
X050314Y005076D02*
X047190Y005076D01*
X047297Y005183D02*
X047297Y005319D01*
X046940Y005319D01*
X046940Y005359D01*
X047297Y005359D01*
X047297Y005495D01*
X047076Y005717D01*
X046940Y005717D01*
X046940Y005359D01*
X046900Y005359D01*
X046900Y005319D01*
X046940Y005319D01*
X046940Y004962D01*
X047076Y004962D01*
X047297Y005183D01*
X047297Y005194D02*
X050313Y005194D01*
X050312Y005313D02*
X047297Y005313D01*
X047297Y005431D02*
X050311Y005431D01*
X050310Y005550D02*
X047243Y005550D01*
X047125Y005668D02*
X050310Y005668D01*
X046940Y005668D02*
X046900Y005668D01*
X046900Y005550D02*
X046940Y005550D01*
X046940Y005431D02*
X046900Y005431D01*
X046900Y005319D02*
X046542Y005319D01*
X046542Y005183D01*
X046763Y004962D01*
X046900Y004962D01*
X046900Y005319D01*
X046900Y005313D02*
X046940Y005313D01*
X046940Y005194D02*
X046900Y005194D01*
X046900Y005076D02*
X046940Y005076D01*
X046650Y005076D02*
X046249Y005076D01*
X046339Y005194D02*
X046542Y005194D01*
X046542Y005313D02*
X046339Y005313D01*
X046339Y005431D02*
X046542Y005431D01*
X046597Y005550D02*
X046302Y005550D01*
X046012Y005905D02*
X042962Y005905D01*
X042849Y006024D02*
X046001Y006024D01*
X046001Y006142D02*
X040886Y006142D01*
X041004Y006261D02*
X046001Y006261D01*
X046118Y006379D02*
X041123Y006379D01*
X041241Y006498D02*
X046236Y006498D01*
X044457Y005550D02*
X043037Y005550D01*
X043000Y005431D02*
X044291Y005431D01*
X044214Y005313D02*
X042940Y005313D01*
X042822Y005194D02*
X044169Y005194D01*
X044169Y005076D02*
X039819Y005076D01*
X039938Y005194D02*
X042223Y005194D01*
X042104Y005313D02*
X040056Y005313D01*
X040175Y005431D02*
X042044Y005431D01*
X042008Y005550D02*
X040293Y005550D01*
X040412Y005668D02*
X042008Y005668D01*
X042033Y005787D02*
X040530Y005787D01*
X040649Y005905D02*
X042082Y005905D01*
X042195Y006024D02*
X040767Y006024D01*
X039956Y006853D02*
X037019Y006853D01*
X037138Y006735D02*
X039838Y006735D01*
X039719Y006616D02*
X037237Y006616D01*
X037286Y006498D02*
X039601Y006498D01*
X039482Y006379D02*
X037335Y006379D01*
X037340Y006261D02*
X039364Y006261D01*
X039245Y006142D02*
X037340Y006142D01*
X037340Y006024D02*
X039127Y006024D01*
X039008Y005905D02*
X037340Y005905D01*
X037340Y005787D02*
X038890Y005787D01*
X038771Y005668D02*
X037340Y005668D01*
X037340Y005550D02*
X038653Y005550D01*
X038534Y005431D02*
X037340Y005431D01*
X037340Y005313D02*
X038416Y005313D01*
X038297Y005194D02*
X037340Y005194D01*
X037340Y005076D02*
X038179Y005076D01*
X038060Y004957D02*
X037340Y004957D01*
X037323Y004839D02*
X037942Y004839D01*
X037823Y004720D02*
X037274Y004720D01*
X037225Y004602D02*
X037705Y004602D01*
X037586Y004483D02*
X037110Y004483D01*
X036972Y004365D02*
X037468Y004365D01*
X038516Y003772D02*
X040475Y003772D01*
X040475Y003654D02*
X038397Y003654D01*
X038279Y003535D02*
X040475Y003535D01*
X040475Y003417D02*
X038160Y003417D01*
X038185Y003354D02*
X037964Y003133D01*
X037964Y002997D01*
X038321Y002997D01*
X038321Y002957D01*
X037964Y002957D01*
X037964Y002821D01*
X038185Y002599D01*
X038321Y002599D01*
X038321Y002957D01*
X038361Y002957D01*
X038361Y002599D01*
X038497Y002599D01*
X038719Y002821D01*
X038719Y002957D01*
X038361Y002957D01*
X038361Y002997D01*
X038321Y002997D01*
X038321Y003354D01*
X038185Y003354D01*
X038128Y003298D02*
X038042Y003298D01*
X038010Y003180D02*
X035952Y003180D01*
X036179Y003061D02*
X037964Y003061D01*
X037964Y002943D02*
X036298Y002943D01*
X036354Y002824D02*
X037964Y002824D01*
X038079Y002706D02*
X036403Y002706D01*
X036403Y002587D02*
X039139Y002587D01*
X039168Y002558D02*
X039515Y002558D01*
X039760Y002803D01*
X039760Y003150D01*
X039515Y003396D01*
X039168Y003396D01*
X038922Y003150D01*
X038922Y002803D01*
X039168Y002558D01*
X039020Y002706D02*
X038604Y002706D01*
X038719Y002824D02*
X038922Y002824D01*
X038922Y002943D02*
X038719Y002943D01*
X038719Y002997D02*
X038719Y003133D01*
X038497Y003354D01*
X038361Y003354D01*
X038361Y002997D01*
X038719Y002997D01*
X038719Y003061D02*
X038922Y003061D01*
X038952Y003180D02*
X038672Y003180D01*
X038554Y003298D02*
X039070Y003298D01*
X039612Y003298D02*
X040475Y003298D01*
X040475Y003180D02*
X039731Y003180D01*
X039760Y003061D02*
X040475Y003061D01*
X040475Y002943D02*
X039760Y002943D01*
X039760Y002824D02*
X040475Y002824D01*
X040475Y002706D02*
X039662Y002706D01*
X039543Y002587D02*
X040475Y002587D01*
X040475Y002469D02*
X036403Y002469D01*
X036357Y002350D02*
X040475Y002350D01*
X040475Y002232D02*
X036305Y002232D01*
X036187Y002113D02*
X040475Y002113D01*
X040475Y001995D02*
X035971Y001995D01*
X035609Y001995D02*
X034593Y001995D01*
X034809Y002113D02*
X035393Y002113D01*
X035275Y002232D02*
X034927Y002232D01*
X034979Y002350D02*
X035223Y002350D01*
X035177Y002469D02*
X035025Y002469D01*
X035025Y002587D02*
X035177Y002587D01*
X035177Y002706D02*
X035025Y002706D01*
X034976Y002824D02*
X035226Y002824D01*
X035282Y002943D02*
X034920Y002943D01*
X034801Y003061D02*
X035401Y003061D01*
X035628Y003180D02*
X034574Y003180D01*
X034250Y003180D02*
X033196Y003180D01*
X033423Y003061D02*
X034023Y003061D01*
X033904Y002943D02*
X033542Y002943D01*
X033598Y002824D02*
X033848Y002824D01*
X033799Y002706D02*
X033647Y002706D01*
X033647Y002587D02*
X033799Y002587D01*
X033799Y002469D02*
X033647Y002469D01*
X033601Y002350D02*
X033845Y002350D01*
X033897Y002232D02*
X033549Y002232D01*
X033431Y002113D02*
X034015Y002113D01*
X034231Y001995D02*
X033215Y001995D01*
X032853Y001995D02*
X029869Y001995D01*
X030084Y002113D02*
X032637Y002113D01*
X032519Y002232D02*
X030203Y002232D01*
X030255Y002350D02*
X032467Y002350D01*
X032421Y002469D02*
X030301Y002469D01*
X030301Y002587D02*
X032421Y002587D01*
X032421Y002706D02*
X030300Y002706D01*
X030251Y002824D02*
X032470Y002824D01*
X032526Y002943D02*
X030195Y002943D01*
X030077Y003061D02*
X032645Y003061D01*
X032872Y003180D02*
X029850Y003180D01*
X029525Y003180D02*
X028472Y003180D01*
X028699Y003061D02*
X029298Y003061D01*
X029180Y002943D02*
X028817Y002943D01*
X028873Y002824D02*
X029124Y002824D01*
X029075Y002706D02*
X028922Y002706D01*
X028923Y002587D02*
X029074Y002587D01*
X029074Y002469D02*
X028923Y002469D01*
X028877Y002350D02*
X029121Y002350D01*
X029172Y002232D02*
X028825Y002232D01*
X028707Y002113D02*
X029291Y002113D01*
X029507Y001995D02*
X028491Y001995D01*
X028129Y001995D02*
X027113Y001995D01*
X027329Y002113D02*
X027913Y002113D01*
X027794Y002232D02*
X027447Y002232D01*
X027499Y002350D02*
X027743Y002350D01*
X027697Y002469D02*
X027545Y002469D01*
X027545Y002587D02*
X027697Y002587D01*
X027697Y002706D02*
X027545Y002706D01*
X027495Y002824D02*
X027746Y002824D01*
X027802Y002943D02*
X027439Y002943D01*
X027321Y003061D02*
X027920Y003061D01*
X028147Y003180D02*
X027094Y003180D01*
X026769Y003180D02*
X024810Y003180D01*
X024856Y003133D02*
X024635Y003354D01*
X024499Y003354D01*
X024499Y002997D01*
X024856Y002997D01*
X024856Y003133D01*
X024856Y003061D02*
X026543Y003061D01*
X026424Y002943D02*
X024856Y002943D01*
X024856Y002957D02*
X024499Y002957D01*
X024499Y002997D01*
X024459Y002997D01*
X024459Y003354D01*
X024323Y003354D01*
X024101Y003133D01*
X024101Y002997D01*
X024459Y002997D01*
X024459Y002957D01*
X024499Y002957D01*
X024499Y002599D01*
X024635Y002599D01*
X024856Y002821D01*
X024856Y002957D01*
X024856Y002824D02*
X026368Y002824D01*
X026319Y002706D02*
X024741Y002706D01*
X024499Y002706D02*
X024459Y002706D01*
X024459Y002599D02*
X024459Y002957D01*
X024101Y002957D01*
X024101Y002821D01*
X024323Y002599D01*
X024459Y002599D01*
X024459Y002824D02*
X024499Y002824D01*
X024499Y002943D02*
X024459Y002943D01*
X024459Y003061D02*
X024499Y003061D01*
X024499Y003180D02*
X024459Y003180D01*
X024459Y003298D02*
X024499Y003298D01*
X024692Y003298D02*
X025003Y003298D01*
X024884Y003417D02*
X022248Y003417D01*
X022248Y003535D02*
X024766Y003535D01*
X024647Y003654D02*
X022199Y003654D01*
X022149Y003772D02*
X024529Y003772D01*
X024410Y003891D02*
X022070Y003891D01*
X022122Y003839D02*
X021889Y004072D01*
X021584Y004198D01*
X021255Y004198D01*
X020951Y004072D01*
X020718Y003839D01*
X020592Y003535D01*
X001461Y003535D01*
X001461Y003417D02*
X020592Y003417D01*
X020592Y003535D02*
X020592Y003206D01*
X020718Y002902D01*
X020951Y002669D01*
X021255Y002543D01*
X021584Y002543D01*
X021889Y002669D01*
X022122Y002902D01*
X022248Y003206D01*
X022248Y003535D01*
X022122Y003839D01*
X021952Y004009D02*
X024292Y004009D01*
X024173Y004128D02*
X021755Y004128D01*
X021084Y004128D02*
X012387Y004128D01*
X012372Y004163D02*
X012427Y004032D01*
X012427Y003890D01*
X012372Y003759D01*
X012272Y003658D01*
X012140Y003604D01*
X011998Y003604D01*
X011933Y003631D01*
X006793Y003631D01*
X006727Y003604D01*
X006585Y003604D01*
X006454Y003658D01*
X006353Y003759D01*
X006299Y003890D01*
X006299Y004032D01*
X006353Y004163D01*
X006454Y004264D01*
X006585Y004318D01*
X006727Y004318D01*
X006793Y004291D01*
X011933Y004291D01*
X011998Y004318D01*
X012140Y004318D01*
X012272Y004264D01*
X012372Y004163D01*
X012290Y004246D02*
X024055Y004246D01*
X023936Y004365D02*
X001461Y004365D01*
X001461Y004483D02*
X023818Y004483D01*
X023699Y004602D02*
X001461Y004602D01*
X001461Y004720D02*
X014676Y004720D01*
X014613Y004746D02*
X014771Y004681D01*
X018254Y004681D01*
X018372Y004632D01*
X018562Y004632D01*
X018738Y004705D01*
X018873Y004840D01*
X018946Y005016D01*
X018946Y005206D01*
X018873Y005382D01*
X018738Y005517D01*
X018562Y005589D01*
X018372Y005589D01*
X018254Y005541D01*
X015059Y005541D01*
X015059Y007787D01*
X014993Y007945D01*
X014872Y008066D01*
X014714Y008131D01*
X014543Y008131D01*
X014385Y008066D01*
X014264Y007945D01*
X014199Y007787D01*
X014199Y005254D01*
X014264Y005096D01*
X014492Y004867D01*
X014613Y004746D01*
X014521Y004839D02*
X001461Y004839D01*
X001461Y004957D02*
X014402Y004957D01*
X014284Y005076D02*
X001461Y005076D01*
X001461Y005194D02*
X014223Y005194D01*
X014199Y005313D02*
X001461Y005313D01*
X001461Y005431D02*
X014199Y005431D01*
X014199Y005550D02*
X001461Y005550D01*
X001461Y005668D02*
X014199Y005668D01*
X015059Y005668D02*
X019816Y005668D01*
X019816Y005550D02*
X018659Y005550D01*
X018824Y005431D02*
X019848Y005431D01*
X019897Y005313D02*
X018902Y005313D01*
X018946Y005194D02*
X020004Y005194D01*
X020201Y005076D02*
X018946Y005076D01*
X018922Y004957D02*
X023344Y004957D01*
X023462Y004839D02*
X018872Y004839D01*
X018753Y004720D02*
X023581Y004720D01*
X023652Y003396D02*
X023305Y003396D01*
X023060Y003150D01*
X023060Y002803D01*
X023305Y002558D01*
X023652Y002558D01*
X023898Y002803D01*
X023898Y003150D01*
X023652Y003396D01*
X023750Y003298D02*
X024266Y003298D01*
X024148Y003180D02*
X023868Y003180D01*
X023898Y003061D02*
X024101Y003061D01*
X024101Y002943D02*
X023898Y002943D01*
X023898Y002824D02*
X024101Y002824D01*
X024216Y002706D02*
X023800Y002706D01*
X023681Y002587D02*
X026319Y002587D01*
X026319Y002469D02*
X011403Y002469D01*
X011403Y002461D02*
X011310Y002236D01*
X011137Y002063D01*
X010912Y001970D01*
X010668Y001970D01*
X010443Y002063D01*
X010270Y002236D01*
X010177Y002461D01*
X010177Y002705D01*
X010270Y002930D01*
X010443Y003103D01*
X010668Y003196D01*
X010912Y003196D01*
X011137Y003103D01*
X011310Y002930D01*
X011403Y002705D01*
X011403Y002461D01*
X011357Y002350D02*
X016437Y002350D01*
X016346Y002232D02*
X011305Y002232D01*
X011187Y002113D02*
X016346Y002113D01*
X016360Y001995D02*
X010971Y001995D01*
X010609Y001995D02*
X009593Y001995D01*
X009534Y001970D02*
X009759Y002063D01*
X009932Y002236D01*
X010025Y002461D01*
X010025Y002705D01*
X009932Y002930D01*
X009759Y003103D01*
X009534Y003196D01*
X009290Y003196D01*
X009065Y003103D01*
X008892Y002930D01*
X008799Y002705D01*
X008799Y002461D01*
X008892Y002236D01*
X009065Y002063D01*
X009290Y001970D01*
X009534Y001970D01*
X009231Y001995D02*
X006247Y001995D01*
X006187Y001970D02*
X006413Y002063D01*
X006585Y002236D01*
X006679Y002461D01*
X006679Y002705D01*
X006585Y002930D01*
X006413Y003103D01*
X006187Y003196D01*
X005944Y003196D01*
X005718Y003103D01*
X005546Y002930D01*
X005452Y002705D01*
X005452Y002461D01*
X005546Y002236D01*
X005718Y002063D01*
X005944Y001970D01*
X006187Y001970D01*
X005884Y001995D02*
X004869Y001995D01*
X004810Y001970D02*
X005035Y002063D01*
X005207Y002236D01*
X005301Y002461D01*
X005301Y002705D01*
X005207Y002930D01*
X005035Y003103D01*
X004810Y003196D01*
X004566Y003196D01*
X004340Y003103D01*
X004168Y002930D01*
X004074Y002705D01*
X004074Y002461D01*
X004168Y002236D01*
X004340Y002063D01*
X004566Y001970D01*
X004810Y001970D01*
X004507Y001995D02*
X001461Y001995D01*
X001461Y002113D02*
X002984Y002113D01*
X003010Y002094D02*
X003090Y002053D01*
X003176Y002025D01*
X003251Y002013D01*
X003251Y002525D01*
X002740Y002525D01*
X002752Y002449D01*
X002780Y002364D01*
X002821Y002284D01*
X002873Y002211D01*
X002937Y002147D01*
X003010Y002094D01*
X002858Y002232D02*
X001461Y002232D01*
X001461Y002350D02*
X002787Y002350D01*
X002749Y002469D02*
X001461Y002469D01*
X001461Y002587D02*
X003251Y002587D01*
X003251Y002641D02*
X003251Y002525D01*
X003368Y002525D01*
X003368Y002641D01*
X003879Y002641D01*
X003867Y002717D01*
X003840Y002803D01*
X003799Y002883D01*
X003746Y002956D01*
X003682Y003019D01*
X003609Y003072D01*
X003529Y003113D01*
X003444Y003141D01*
X003368Y003153D01*
X003368Y002641D01*
X003251Y002641D01*
X002740Y002641D01*
X002752Y002717D01*
X002780Y002803D01*
X002821Y002883D01*
X002873Y002956D01*
X002937Y003019D01*
X003010Y003072D01*
X003090Y003113D01*
X003176Y003141D01*
X003251Y003153D01*
X003251Y002641D01*
X003251Y002706D02*
X003368Y002706D01*
X003368Y002824D02*
X003251Y002824D01*
X003251Y002943D02*
X003368Y002943D01*
X003368Y003061D02*
X003251Y003061D01*
X002995Y003061D02*
X001461Y003061D01*
X001461Y002943D02*
X002864Y002943D01*
X002791Y002824D02*
X001461Y002824D01*
X001461Y002706D02*
X002750Y002706D01*
X003251Y002469D02*
X003368Y002469D01*
X003368Y002525D02*
X003368Y002013D01*
X003444Y002025D01*
X003529Y002053D01*
X003609Y002094D01*
X003682Y002147D01*
X003746Y002211D01*
X003799Y002284D01*
X003840Y002364D01*
X003867Y002449D01*
X003879Y002525D01*
X003368Y002525D01*
X003368Y002587D02*
X004074Y002587D01*
X004074Y002469D02*
X003870Y002469D01*
X003833Y002350D02*
X004121Y002350D01*
X004172Y002232D02*
X003761Y002232D01*
X003635Y002113D02*
X004291Y002113D01*
X004075Y002706D02*
X003869Y002706D01*
X003829Y002824D02*
X004124Y002824D01*
X004180Y002943D02*
X003755Y002943D01*
X003625Y003061D02*
X004298Y003061D01*
X004525Y003180D02*
X001461Y003180D01*
X001461Y003298D02*
X020592Y003298D01*
X020603Y003180D02*
X010952Y003180D01*
X011179Y003061D02*
X020652Y003061D01*
X020701Y002943D02*
X011298Y002943D01*
X011354Y002824D02*
X020796Y002824D01*
X020914Y002706D02*
X011403Y002706D01*
X011403Y002587D02*
X021148Y002587D01*
X021043Y002350D02*
X026365Y002350D01*
X026416Y002232D02*
X021162Y002232D01*
X021206Y002113D02*
X026535Y002113D01*
X026751Y001995D02*
X021192Y001995D01*
X021206Y001876D02*
X040398Y001876D01*
X040279Y001758D02*
X021206Y001758D01*
X021063Y002331D02*
X021063Y002331D01*
X021691Y002587D02*
X023277Y002587D01*
X023158Y002706D02*
X021925Y002706D01*
X022044Y002824D02*
X023060Y002824D01*
X023060Y002943D02*
X022138Y002943D01*
X022188Y003061D02*
X023060Y003061D01*
X023089Y003180D02*
X022237Y003180D01*
X022248Y003298D02*
X023208Y003298D01*
X020888Y004009D02*
X012427Y004009D01*
X012427Y003891D02*
X020769Y003891D01*
X020690Y003772D02*
X012378Y003772D01*
X012260Y003654D02*
X020641Y003654D01*
X020120Y002350D02*
X019734Y002350D01*
X018739Y002350D02*
X018352Y002350D01*
X016346Y001876D02*
X001461Y001876D01*
X001461Y001758D02*
X016346Y001758D01*
X015059Y005550D02*
X018276Y005550D01*
X019682Y005905D02*
X019885Y005905D01*
X019836Y005787D02*
X015059Y005787D01*
X015059Y005905D02*
X015272Y005905D01*
X015202Y006024D02*
X015059Y006024D01*
X015059Y006142D02*
X015187Y006142D01*
X015215Y006261D02*
X015059Y006261D01*
X015059Y006379D02*
X015304Y006379D01*
X015059Y006498D02*
X019560Y006498D01*
X019679Y006616D02*
X015059Y006616D01*
X015059Y006735D02*
X019797Y006735D01*
X019916Y006853D02*
X015059Y006853D01*
X015059Y006972D02*
X020034Y006972D01*
X020153Y007090D02*
X015059Y007090D01*
X015059Y007209D02*
X020271Y007209D01*
X020390Y007327D02*
X015059Y007327D01*
X015059Y007446D02*
X020508Y007446D01*
X020627Y007564D02*
X015059Y007564D01*
X015059Y007683D02*
X020745Y007683D01*
X020864Y007801D02*
X016956Y007801D01*
X016869Y007714D02*
X017114Y007959D01*
X017114Y008306D01*
X016869Y008551D01*
X016522Y008551D01*
X016277Y008306D01*
X016277Y007959D01*
X016522Y007714D01*
X016869Y007714D01*
X017075Y007920D02*
X020982Y007920D01*
X021101Y008038D02*
X017114Y008038D01*
X017114Y008157D02*
X020119Y008157D01*
X020105Y008163D02*
X020294Y008084D01*
X020499Y008084D01*
X020688Y008163D01*
X020833Y008307D01*
X020911Y008497D01*
X020911Y008701D01*
X020833Y008890D01*
X020688Y009035D01*
X020499Y009114D01*
X020294Y009114D01*
X020105Y009035D01*
X019960Y008890D01*
X019882Y008701D01*
X019882Y008497D01*
X019960Y008307D01*
X020105Y008163D01*
X019992Y008275D02*
X017114Y008275D01*
X017026Y008394D02*
X019924Y008394D01*
X019882Y008512D02*
X017417Y008512D01*
X017369Y008464D02*
X017614Y008709D01*
X017614Y009056D01*
X017369Y009301D01*
X017022Y009301D01*
X016777Y009056D01*
X016777Y008709D01*
X017022Y008464D01*
X017369Y008464D01*
X017536Y008631D02*
X019882Y008631D01*
X019901Y008749D02*
X018782Y008749D01*
X018738Y008705D02*
X018873Y008840D01*
X018946Y009016D01*
X018946Y009206D01*
X018873Y009382D01*
X018738Y009517D01*
X018562Y009589D01*
X018372Y009589D01*
X018196Y009517D01*
X018061Y009382D01*
X017988Y009206D01*
X017988Y009016D01*
X018061Y008840D01*
X018196Y008705D01*
X018372Y008632D01*
X018562Y008632D01*
X018738Y008705D01*
X018885Y008868D02*
X019950Y008868D01*
X020056Y008986D02*
X018934Y008986D01*
X018946Y009105D02*
X020272Y009105D01*
X020520Y009105D02*
X022167Y009105D01*
X022286Y009223D02*
X018939Y009223D01*
X018890Y009342D02*
X022404Y009342D01*
X022523Y009460D02*
X018795Y009460D01*
X018589Y009579D02*
X022641Y009579D01*
X022760Y009697D02*
X008963Y009697D01*
X008963Y009579D02*
X018346Y009579D01*
X018139Y009460D02*
X008963Y009460D01*
X008963Y009342D02*
X018045Y009342D01*
X017995Y009223D02*
X017447Y009223D01*
X017565Y009105D02*
X017988Y009105D01*
X018001Y008986D02*
X017614Y008986D01*
X017614Y008868D02*
X018050Y008868D01*
X018152Y008749D02*
X017614Y008749D01*
X016974Y008512D02*
X016908Y008512D01*
X016855Y008631D02*
X016477Y008631D01*
X016483Y008512D02*
X016359Y008512D01*
X016352Y008505D02*
X016573Y008726D01*
X016573Y008862D01*
X016215Y008862D01*
X016215Y008505D01*
X016352Y008505D01*
X016364Y008394D02*
X008963Y008394D01*
X008963Y008512D02*
X016032Y008512D01*
X016039Y008505D02*
X016175Y008505D01*
X016175Y008862D01*
X016215Y008862D01*
X016215Y008902D01*
X016573Y008902D01*
X016573Y009039D01*
X016352Y009260D01*
X016215Y009260D01*
X016215Y008902D01*
X016175Y008902D01*
X016175Y008862D01*
X015818Y008862D01*
X015818Y008726D01*
X016039Y008505D01*
X016175Y008512D02*
X016215Y008512D01*
X016215Y008631D02*
X016175Y008631D01*
X016175Y008749D02*
X016215Y008749D01*
X016215Y008868D02*
X016777Y008868D01*
X016777Y008986D02*
X016573Y008986D01*
X016507Y009105D02*
X016825Y009105D01*
X016944Y009223D02*
X016389Y009223D01*
X016215Y009223D02*
X016175Y009223D01*
X016175Y009260D02*
X016039Y009260D01*
X015818Y009039D01*
X015818Y008902D01*
X016175Y008902D01*
X016175Y009260D01*
X016175Y009105D02*
X016215Y009105D01*
X016215Y008986D02*
X016175Y008986D01*
X016175Y008868D02*
X008963Y008868D01*
X008963Y008986D02*
X015818Y008986D01*
X015884Y009105D02*
X008963Y009105D01*
X008963Y009223D02*
X016002Y009223D01*
X015818Y008749D02*
X008963Y008749D01*
X008963Y008631D02*
X015913Y008631D01*
X016277Y008275D02*
X008963Y008275D01*
X008963Y008157D02*
X016277Y008157D01*
X016277Y008038D02*
X014900Y008038D01*
X015004Y007920D02*
X016316Y007920D01*
X016435Y007801D02*
X015053Y007801D01*
X014357Y008038D02*
X008963Y008038D01*
X008963Y007920D02*
X014253Y007920D01*
X014204Y007801D02*
X008963Y007801D01*
X008963Y007683D02*
X014199Y007683D01*
X014199Y007564D02*
X008963Y007564D01*
X008963Y007446D02*
X014199Y007446D01*
X014199Y007327D02*
X008963Y007327D01*
X008963Y007209D02*
X014199Y007209D01*
X014199Y007090D02*
X008963Y007090D01*
X008963Y006972D02*
X014199Y006972D01*
X014199Y006853D02*
X008963Y006853D01*
X008963Y006735D02*
X014199Y006735D01*
X014199Y006616D02*
X008963Y006616D01*
X008963Y006498D02*
X014199Y006498D01*
X016573Y008749D02*
X016777Y008749D01*
X020673Y008157D02*
X021219Y008157D01*
X021338Y008275D02*
X020800Y008275D01*
X020868Y008394D02*
X021456Y008394D01*
X021575Y008512D02*
X020911Y008512D01*
X020911Y008631D02*
X021693Y008631D01*
X021812Y008749D02*
X020891Y008749D01*
X020842Y008868D02*
X021930Y008868D01*
X022049Y008986D02*
X020737Y008986D01*
X021703Y007920D02*
X025578Y007920D01*
X025578Y008038D02*
X021822Y008038D01*
X021940Y008157D02*
X025578Y008157D01*
X025578Y008275D02*
X022059Y008275D01*
X022177Y008394D02*
X025578Y008394D01*
X025578Y008512D02*
X022296Y008512D01*
X022414Y008631D02*
X025578Y008631D01*
X025578Y008749D02*
X022533Y008749D01*
X022651Y008868D02*
X025578Y008868D01*
X025578Y008986D02*
X022770Y008986D01*
X022888Y009105D02*
X025578Y009105D01*
X025578Y009223D02*
X023007Y009223D01*
X023125Y009342D02*
X025578Y009342D01*
X025627Y009460D02*
X023244Y009460D01*
X023362Y009579D02*
X025676Y009579D01*
X025767Y009697D02*
X023481Y009697D01*
X023599Y009816D02*
X025885Y009816D01*
X026813Y009816D02*
X027870Y009816D01*
X027751Y009697D02*
X026931Y009697D01*
X027022Y009579D02*
X027660Y009579D01*
X027611Y009460D02*
X027071Y009460D01*
X027120Y009342D02*
X027563Y009342D01*
X027563Y009223D02*
X027120Y009223D01*
X027120Y009105D02*
X027563Y009105D01*
X027563Y008986D02*
X027120Y008986D01*
X027120Y008868D02*
X027563Y008868D01*
X027563Y008749D02*
X027120Y008749D01*
X027120Y008631D02*
X027563Y008631D01*
X027563Y008512D02*
X027120Y008512D01*
X027120Y008394D02*
X027563Y008394D01*
X027563Y008275D02*
X027120Y008275D01*
X027120Y008157D02*
X027563Y008157D01*
X027563Y008038D02*
X027120Y008038D01*
X027120Y007920D02*
X027563Y007920D01*
X027585Y007801D02*
X027097Y007801D01*
X027048Y007683D02*
X027634Y007683D01*
X027688Y007564D02*
X026994Y007564D01*
X026876Y007446D02*
X027806Y007446D01*
X027964Y007327D02*
X026718Y007327D01*
X025980Y007327D02*
X021111Y007327D01*
X020992Y007209D02*
X040312Y007209D01*
X039701Y004957D02*
X044194Y004957D01*
X044243Y004839D02*
X039582Y004839D01*
X039464Y004720D02*
X044362Y004720D01*
X040525Y004602D02*
X039345Y004602D01*
X039227Y004483D02*
X040513Y004483D01*
X040500Y004365D02*
X039108Y004365D01*
X038990Y004246D02*
X040488Y004246D01*
X040476Y004128D02*
X038871Y004128D01*
X038753Y004009D02*
X040475Y004009D01*
X040475Y003891D02*
X038634Y003891D01*
X038361Y003298D02*
X038321Y003298D01*
X038321Y003180D02*
X038361Y003180D01*
X038361Y003061D02*
X038321Y003061D01*
X038321Y002943D02*
X038361Y002943D01*
X038361Y002824D02*
X038321Y002824D01*
X038321Y002706D02*
X038361Y002706D01*
X034216Y007327D02*
X032970Y007327D01*
X033128Y007446D02*
X034058Y007446D01*
X033940Y007564D02*
X033246Y007564D01*
X033300Y007683D02*
X033886Y007683D01*
X033837Y007801D02*
X033349Y007801D01*
X033371Y007920D02*
X033815Y007920D01*
X033815Y008038D02*
X033371Y008038D01*
X033371Y008157D02*
X033815Y008157D01*
X033815Y008275D02*
X033371Y008275D01*
X033371Y008394D02*
X033815Y008394D01*
X033815Y008512D02*
X033371Y008512D01*
X033371Y008631D02*
X033815Y008631D01*
X033815Y008749D02*
X033371Y008749D01*
X033371Y008868D02*
X033815Y008868D01*
X033815Y008986D02*
X033371Y008986D01*
X033371Y009105D02*
X033815Y009105D01*
X033815Y009223D02*
X033371Y009223D01*
X033371Y009342D02*
X033815Y009342D01*
X033863Y009460D02*
X033323Y009460D01*
X033274Y009579D02*
X033912Y009579D01*
X034003Y009697D02*
X033183Y009697D01*
X033065Y009816D02*
X034122Y009816D01*
X032137Y009816D02*
X030781Y009816D01*
X030900Y009697D02*
X032019Y009697D01*
X031928Y009579D02*
X030990Y009579D01*
X031039Y009460D02*
X031879Y009460D01*
X031830Y009342D02*
X031088Y009342D01*
X031088Y009223D02*
X031830Y009223D01*
X031830Y009105D02*
X031088Y009105D01*
X031088Y008986D02*
X031830Y008986D01*
X031830Y008868D02*
X031088Y008868D01*
X031088Y008749D02*
X031830Y008749D01*
X031830Y008631D02*
X031088Y008631D01*
X031088Y008512D02*
X031830Y008512D01*
X031830Y008394D02*
X031088Y008394D01*
X031088Y008275D02*
X031830Y008275D01*
X031830Y008157D02*
X031088Y008157D01*
X031088Y008038D02*
X031830Y008038D01*
X031830Y007920D02*
X031088Y007920D01*
X031066Y007801D02*
X031853Y007801D01*
X031902Y007683D02*
X031017Y007683D01*
X030963Y007564D02*
X031956Y007564D01*
X032074Y007446D02*
X030844Y007446D01*
X030686Y007327D02*
X032232Y007327D01*
X029949Y007327D02*
X028702Y007327D01*
X028860Y007446D02*
X029791Y007446D01*
X029672Y007564D02*
X028979Y007564D01*
X029032Y007683D02*
X029618Y007683D01*
X029569Y007801D02*
X029081Y007801D01*
X029104Y007920D02*
X029547Y007920D01*
X029547Y008038D02*
X029104Y008038D01*
X029104Y008157D02*
X029547Y008157D01*
X029547Y008275D02*
X029104Y008275D01*
X029104Y008394D02*
X029547Y008394D01*
X029547Y008512D02*
X029104Y008512D01*
X029104Y008631D02*
X029547Y008631D01*
X029547Y008749D02*
X029104Y008749D01*
X029104Y008868D02*
X029547Y008868D01*
X029547Y008986D02*
X029104Y008986D01*
X029104Y009105D02*
X029547Y009105D01*
X029547Y009223D02*
X029104Y009223D01*
X029104Y009342D02*
X029547Y009342D01*
X029596Y009460D02*
X029055Y009460D01*
X029006Y009579D02*
X029645Y009579D01*
X029735Y009697D02*
X028915Y009697D01*
X028797Y009816D02*
X029854Y009816D01*
X025822Y007446D02*
X021229Y007446D01*
X021348Y007564D02*
X025704Y007564D01*
X025650Y007683D02*
X021466Y007683D01*
X021585Y007801D02*
X025601Y007801D01*
X022997Y009934D02*
X008963Y009934D01*
X008963Y009816D02*
X022878Y009816D01*
X023115Y010053D02*
X008963Y010053D01*
X008973Y010171D02*
X023234Y010171D01*
X020135Y006142D02*
X019926Y006142D01*
X019977Y006024D02*
X019807Y006024D01*
X010628Y003180D02*
X009574Y003180D01*
X009801Y003061D02*
X010401Y003061D01*
X010282Y002943D02*
X009920Y002943D01*
X009976Y002824D02*
X010226Y002824D01*
X010177Y002706D02*
X010025Y002706D01*
X010025Y002587D02*
X010177Y002587D01*
X010177Y002469D02*
X010025Y002469D01*
X009979Y002350D02*
X010223Y002350D01*
X010275Y002232D02*
X009927Y002232D01*
X009809Y002113D02*
X010393Y002113D01*
X009015Y002113D02*
X008360Y002113D01*
X008334Y002094D02*
X008407Y002147D01*
X008470Y002211D01*
X008523Y002284D01*
X008564Y002364D01*
X008592Y002449D01*
X008604Y002525D01*
X008092Y002525D01*
X008092Y002013D01*
X008168Y002025D01*
X008254Y002053D01*
X008334Y002094D01*
X008485Y002232D02*
X008897Y002232D01*
X008845Y002350D02*
X008557Y002350D01*
X008595Y002469D02*
X008799Y002469D01*
X008799Y002587D02*
X008092Y002587D01*
X008092Y002641D02*
X008604Y002641D01*
X008592Y002717D01*
X008564Y002803D01*
X008523Y002883D01*
X008470Y002956D01*
X008407Y003019D01*
X008334Y003072D01*
X008254Y003113D01*
X008168Y003141D01*
X008092Y003153D01*
X008092Y002641D01*
X008092Y002525D01*
X007976Y002525D01*
X007976Y002013D01*
X007900Y002025D01*
X007815Y002053D01*
X007734Y002094D01*
X007662Y002147D01*
X007598Y002211D01*
X007545Y002284D01*
X007504Y002364D01*
X007476Y002449D01*
X007464Y002525D01*
X007976Y002525D01*
X007976Y002641D01*
X007464Y002641D01*
X007476Y002717D01*
X007504Y002803D01*
X007545Y002883D01*
X007598Y002956D01*
X007662Y003019D01*
X007734Y003072D01*
X007815Y003113D01*
X007900Y003141D01*
X007976Y003153D01*
X007976Y002641D01*
X008092Y002641D01*
X008092Y002706D02*
X007976Y002706D01*
X007976Y002824D02*
X008092Y002824D01*
X008092Y002943D02*
X007976Y002943D01*
X007976Y003061D02*
X008092Y003061D01*
X008349Y003061D02*
X009023Y003061D01*
X008904Y002943D02*
X008480Y002943D01*
X008553Y002824D02*
X008848Y002824D01*
X008799Y002706D02*
X008594Y002706D01*
X008092Y002469D02*
X007976Y002469D01*
X007976Y002587D02*
X006679Y002587D01*
X006679Y002469D02*
X007473Y002469D01*
X007511Y002350D02*
X006633Y002350D01*
X006581Y002232D02*
X007583Y002232D01*
X007708Y002113D02*
X006462Y002113D01*
X006678Y002706D02*
X007474Y002706D01*
X007515Y002824D02*
X006629Y002824D01*
X006573Y002943D02*
X007588Y002943D01*
X007719Y003061D02*
X006455Y003061D01*
X006228Y003180D02*
X009250Y003180D01*
X008092Y002350D02*
X007976Y002350D01*
X007976Y002232D02*
X008092Y002232D01*
X008092Y002113D02*
X007976Y002113D01*
X006465Y003654D02*
X001461Y003654D01*
X001461Y003772D02*
X006348Y003772D01*
X006299Y003891D02*
X001461Y003891D01*
X001461Y004009D02*
X006299Y004009D01*
X006338Y004128D02*
X001461Y004128D01*
X001461Y004246D02*
X006436Y004246D01*
X005903Y003180D02*
X004850Y003180D01*
X005077Y003061D02*
X005676Y003061D01*
X005558Y002943D02*
X005195Y002943D01*
X005251Y002824D02*
X005502Y002824D01*
X005453Y002706D02*
X005300Y002706D01*
X005301Y002587D02*
X005452Y002587D01*
X005452Y002469D02*
X005301Y002469D01*
X005255Y002350D02*
X005498Y002350D01*
X005550Y002232D02*
X005203Y002232D01*
X005084Y002113D02*
X005669Y002113D01*
X003368Y002113D02*
X003251Y002113D01*
X003251Y002232D02*
X003368Y002232D01*
X003368Y002350D02*
X003251Y002350D01*
X047798Y012897D02*
X062633Y012897D01*
X062539Y013015D02*
X047798Y013015D01*
X047798Y013134D02*
X062497Y013134D01*
X063690Y012660D02*
X063819Y012660D01*
X063818Y014437D02*
X063819Y014437D01*
X063819Y014556D02*
X063703Y014556D01*
X063819Y014674D02*
X057674Y014674D01*
X057741Y014793D02*
X061376Y014793D01*
X061257Y014911D02*
X057783Y014911D01*
X057805Y015030D02*
X061139Y015030D01*
X061020Y015148D02*
X057809Y015148D01*
X057792Y015267D02*
X060902Y015267D01*
X060783Y015385D02*
X057756Y015385D01*
X057697Y015504D02*
X060665Y015504D01*
X060546Y015622D02*
X057607Y015622D01*
X057469Y015741D02*
X060428Y015741D01*
X057090Y015741D02*
X057010Y015741D01*
X057010Y015622D02*
X057090Y015622D01*
X057090Y015504D02*
X057010Y015504D01*
X057010Y015385D02*
X057090Y015385D01*
X057090Y015267D02*
X057010Y015267D01*
X057010Y015148D02*
X057090Y015148D01*
X057010Y015067D02*
X056291Y015067D01*
X056291Y015057D01*
X056304Y014958D01*
X056330Y014862D01*
X056368Y014771D01*
X056418Y014684D01*
X056478Y014605D01*
X056548Y014535D01*
X056627Y014475D01*
X056713Y014425D01*
X056805Y014387D01*
X056901Y014361D01*
X057000Y014348D01*
X057010Y014348D01*
X057010Y015067D01*
X057010Y015030D02*
X057090Y015030D01*
X057090Y014911D02*
X057010Y014911D01*
X057010Y014793D02*
X057090Y014793D01*
X057090Y014674D02*
X057010Y014674D01*
X057010Y014556D02*
X057090Y014556D01*
X057090Y014437D02*
X057010Y014437D01*
X056692Y014437D02*
X049927Y014437D01*
X050091Y014556D02*
X056528Y014556D01*
X056425Y014674D02*
X050194Y014674D01*
X050261Y014793D02*
X056359Y014793D01*
X056317Y014911D02*
X050303Y014911D01*
X050325Y015030D02*
X056295Y015030D01*
X056291Y015148D02*
X050328Y015148D01*
X050312Y015267D02*
X056307Y015267D01*
X056344Y015385D02*
X050275Y015385D01*
X050216Y015504D02*
X056403Y015504D01*
X056492Y015622D02*
X050127Y015622D01*
X049989Y015741D02*
X056630Y015741D01*
X049609Y015741D02*
X049529Y015741D01*
X049529Y015622D02*
X049609Y015622D01*
X049609Y015504D02*
X049529Y015504D01*
X049529Y015385D02*
X049609Y015385D01*
X049609Y015267D02*
X049529Y015267D01*
X049529Y015148D02*
X049609Y015148D01*
X049609Y015030D02*
X049529Y015030D01*
X049529Y014911D02*
X049609Y014911D01*
X049609Y014793D02*
X049529Y014793D01*
X049529Y014674D02*
X049609Y014674D01*
X049609Y014556D02*
X049529Y014556D01*
X049529Y014437D02*
X049609Y014437D01*
X062249Y036639D02*
X062620Y036639D01*
X062620Y037380D01*
X062249Y037380D01*
X062126Y037256D01*
X062126Y037133D01*
X062249Y037010D01*
X062620Y037010D01*
X062249Y037010D02*
X062126Y036886D01*
X062126Y036763D01*
X062249Y036639D01*
D13*
X020991Y002098D02*
X020848Y002241D01*
X020848Y001811D01*
X020991Y001811D02*
X020704Y001811D01*
X020531Y001811D02*
X020244Y002098D01*
X020244Y002170D01*
X020316Y002241D01*
X020459Y002241D01*
X020531Y002170D01*
X020531Y001811D02*
X020244Y001811D01*
X020070Y002026D02*
X019783Y002026D01*
X019610Y001883D02*
X019323Y002170D01*
X019323Y001883D01*
X019395Y001811D01*
X019538Y001811D01*
X019610Y001883D01*
X019610Y002170D01*
X019538Y002241D01*
X019395Y002241D01*
X019323Y002170D01*
X019150Y002170D02*
X019150Y002098D01*
X019078Y002026D01*
X018863Y002026D01*
X018863Y001883D02*
X018863Y002170D01*
X018934Y002241D01*
X019078Y002241D01*
X019150Y002170D01*
X019150Y001883D02*
X019078Y001811D01*
X018934Y001811D01*
X018863Y001883D01*
X018689Y002026D02*
X018402Y002026D01*
X018229Y002170D02*
X018157Y002241D01*
X018014Y002241D01*
X017942Y002170D01*
X017942Y002098D01*
X018229Y001811D01*
X017942Y001811D01*
X017768Y001883D02*
X017481Y002170D01*
X017481Y001883D01*
X017553Y001811D01*
X017697Y001811D01*
X017768Y001883D01*
X017768Y002170D01*
X017697Y002241D01*
X017553Y002241D01*
X017481Y002170D01*
X017308Y002098D02*
X017165Y002241D01*
X017165Y001811D01*
X017308Y001811D02*
X017021Y001811D01*
X016848Y001811D02*
X016561Y002098D01*
X016561Y002170D01*
X016632Y002241D01*
X016776Y002241D01*
X016848Y002170D01*
X016848Y001811D02*
X016561Y001811D01*
D14*
X036034Y016868D03*
X037034Y016868D03*
X038034Y016868D03*
X038034Y017868D03*
X037034Y017868D03*
X036034Y017868D03*
X027215Y022670D03*
X026215Y022670D03*
X026215Y023670D03*
X027215Y023670D03*
X027215Y024670D03*
X026215Y024670D03*
X026215Y025670D03*
X027215Y025670D03*
X027215Y026670D03*
X026215Y026670D03*
X026215Y027670D03*
X027215Y027670D03*
X027215Y028670D03*
X026215Y028670D03*
X026215Y029670D03*
X027215Y029670D03*
X027215Y030670D03*
X026215Y030670D03*
X026215Y031670D03*
X027215Y031670D03*
X027215Y032670D03*
X026215Y032670D03*
X026215Y033670D03*
X027215Y033670D03*
X027215Y034670D03*
X026215Y034670D03*
X026215Y035670D03*
X027215Y035670D03*
X027215Y036670D03*
X026215Y036670D03*
X026215Y037670D03*
X027215Y037670D03*
X027215Y038670D03*
X026215Y038670D03*
X026215Y039670D03*
X027215Y039670D03*
D15*
X030215Y039949D02*
X030215Y039391D01*
X031215Y039391D02*
X031215Y039949D01*
X032215Y039949D02*
X032215Y039391D01*
X033215Y039391D02*
X033215Y039949D01*
X034215Y039949D02*
X034215Y039391D01*
X035215Y039391D02*
X035215Y039949D01*
X036215Y039949D02*
X036215Y039391D01*
X037215Y039391D02*
X037215Y039949D01*
X039215Y039949D02*
X039215Y039391D01*
X040215Y039391D02*
X040215Y039949D01*
X041215Y039949D02*
X041215Y039391D01*
X042215Y039391D02*
X042215Y039949D01*
X043215Y039949D02*
X043215Y039391D01*
X044215Y039391D02*
X044215Y039949D01*
X045215Y039949D02*
X045215Y039391D01*
X046215Y039391D02*
X046215Y039949D01*
X047815Y039949D02*
X047815Y039391D01*
X048815Y039391D02*
X048815Y039949D01*
X049815Y039949D02*
X049815Y039391D01*
X050815Y039391D02*
X050815Y039949D01*
X051815Y039949D02*
X051815Y039391D01*
X052815Y039391D02*
X052815Y039949D01*
X053815Y039949D02*
X053815Y039391D01*
X054815Y039391D02*
X054815Y039949D01*
X051215Y020949D02*
X051215Y020391D01*
X050215Y020391D02*
X050215Y020949D01*
X049215Y020949D02*
X049215Y020391D01*
X048215Y020391D02*
X048215Y020949D01*
X047215Y020949D02*
X047215Y020391D01*
X046215Y020391D02*
X046215Y020949D01*
X044215Y020949D02*
X044215Y020391D01*
X043215Y020391D02*
X043215Y020949D01*
X042215Y020949D02*
X042215Y020391D01*
X041215Y020391D02*
X041215Y020949D01*
X040215Y020949D02*
X040215Y020391D01*
X039215Y020391D02*
X039215Y020949D01*
X038215Y020949D02*
X038215Y020391D01*
X037215Y020391D02*
X037215Y020949D01*
X035215Y020949D02*
X035215Y020391D01*
X034215Y020391D02*
X034215Y020949D01*
X033215Y020949D02*
X033215Y020391D01*
X032215Y020391D02*
X032215Y020949D01*
X031215Y020949D02*
X031215Y020391D01*
X030215Y020391D02*
X030215Y020949D01*
X029215Y020949D02*
X029215Y020391D01*
X028215Y020391D02*
X028215Y020949D01*
X047585Y002681D02*
X047585Y002123D01*
X048585Y002123D02*
X048585Y002681D01*
X049585Y002681D02*
X049585Y002123D01*
X052900Y002123D02*
X052900Y002681D01*
X053900Y002681D02*
X053900Y002123D01*
X054900Y002123D02*
X054900Y002681D01*
X062907Y012213D02*
X063464Y012213D01*
X063464Y013213D02*
X062907Y013213D01*
X062907Y014213D02*
X063464Y014213D01*
D16*
X044648Y009111D03*
X044648Y005111D03*
X018467Y005111D03*
X018467Y009111D03*
D17*
X017195Y008882D03*
X016195Y008882D03*
X016695Y008132D03*
X023479Y002977D03*
X024479Y002977D03*
X038341Y002977D03*
X039341Y002977D03*
X045920Y005339D03*
X046920Y005339D03*
X046420Y006089D03*
X062357Y018036D03*
X063357Y018036D03*
D18*
X036569Y009189D02*
X036569Y008008D01*
X034585Y008008D02*
X034585Y009189D01*
X032601Y009189D02*
X032601Y008008D01*
X030317Y008008D02*
X030317Y009189D01*
X028333Y009189D02*
X028333Y008008D01*
X026349Y008008D02*
X026349Y009189D01*
X026349Y006213D02*
X026349Y005032D01*
X028333Y005032D02*
X028333Y006213D01*
X030317Y006213D02*
X030317Y005032D01*
X032601Y005032D02*
X032601Y006213D01*
X034585Y006213D02*
X034585Y005032D01*
X036569Y005032D02*
X036569Y006213D01*
D19*
X042522Y005623D03*
X042522Y008599D03*
X020396Y008599D03*
X020396Y005623D03*
D20*
X026932Y002583D03*
X028310Y002583D03*
X029688Y002583D03*
X033034Y002583D03*
X034412Y002583D03*
X035790Y002583D03*
X041695Y002583D03*
X043073Y002583D03*
X044451Y002583D03*
X060003Y002583D03*
X061380Y002583D03*
X062758Y002583D03*
X010790Y002583D03*
X009412Y002583D03*
X008034Y002583D03*
X006066Y002583D03*
X004688Y002583D03*
X003310Y002583D03*
D21*
X049569Y012107D03*
X057050Y012107D03*
D22*
X057050Y015107D03*
X049569Y015107D03*
D23*
X053786Y007504D02*
X054463Y007504D01*
X062786Y007504D02*
X063463Y007504D01*
D24*
X019168Y038213D03*
X018168Y038213D03*
X018168Y039213D03*
X019168Y039213D03*
X017168Y039213D03*
X016168Y039213D03*
X016168Y038213D03*
X017168Y038213D03*
X015168Y038213D03*
X014168Y038213D03*
X014168Y039213D03*
X015168Y039213D03*
X013168Y039213D03*
X012168Y039213D03*
X012168Y038213D03*
X013168Y038213D03*
D25*
X015317Y012648D02*
X015317Y011908D01*
X016317Y011908D02*
X016317Y012648D01*
X017317Y012648D02*
X017317Y011908D01*
X018317Y011908D02*
X018317Y012648D01*
D26*
X020041Y015674D03*
X020141Y016674D03*
X020041Y017674D03*
X020141Y018674D03*
X020041Y019674D03*
X020141Y020674D03*
X020041Y021674D03*
X020141Y022674D03*
X020041Y023674D03*
X020141Y024674D03*
X020041Y025674D03*
X020141Y026674D03*
X020041Y027674D03*
X020141Y028674D03*
X020041Y029674D03*
X020141Y030674D03*
D27*
X036134Y015674D03*
X044845Y015674D03*
D28*
X057050Y013213D02*
X057050Y012107D01*
X057050Y013213D02*
X063186Y013213D01*
D29*
X059018Y004158D02*
X060593Y003371D01*
X060593Y001709D01*
X055073Y001709D01*
X055154Y001743D01*
X055281Y001869D01*
X055349Y002034D01*
X055349Y002770D01*
X055281Y002935D01*
X055154Y003061D01*
X054989Y003130D01*
X054811Y003130D01*
X054646Y003061D01*
X054520Y002935D01*
X054451Y002770D01*
X054451Y002034D01*
X054520Y001869D01*
X054646Y001743D01*
X054727Y001709D01*
X054073Y001709D01*
X054154Y001743D01*
X054281Y001869D01*
X054349Y002034D01*
X054349Y002770D01*
X054281Y002935D01*
X054154Y003061D01*
X053989Y003130D01*
X053811Y003130D01*
X053646Y003061D01*
X053520Y002935D01*
X053451Y002770D01*
X053451Y002034D01*
X053520Y001869D01*
X053646Y001743D01*
X053727Y001709D01*
X053073Y001709D01*
X053154Y001743D01*
X053281Y001869D01*
X053349Y002034D01*
X053349Y002770D01*
X053281Y002935D01*
X053154Y003061D01*
X052989Y003130D01*
X052811Y003130D01*
X052646Y003061D01*
X052520Y002935D01*
X052451Y002770D01*
X052451Y002034D01*
X052520Y001869D01*
X052646Y001743D01*
X052727Y001709D01*
X049758Y001709D01*
X049839Y001743D01*
X049966Y001869D01*
X050034Y002034D01*
X050034Y002770D01*
X049966Y002935D01*
X049839Y003061D01*
X049674Y003130D01*
X049496Y003130D01*
X049331Y003061D01*
X049205Y002935D01*
X049136Y002770D01*
X049136Y002034D01*
X049205Y001869D01*
X049331Y001743D01*
X049412Y001709D01*
X047758Y001709D01*
X047839Y001743D01*
X047966Y001869D01*
X048034Y002034D01*
X048034Y002770D01*
X047966Y002935D01*
X047839Y003061D01*
X047674Y003130D01*
X047496Y003130D01*
X047331Y003061D01*
X047205Y002935D01*
X047136Y002770D01*
X047136Y002034D01*
X047205Y001869D01*
X047331Y001743D01*
X047412Y001709D01*
X040908Y001709D01*
X040908Y003961D01*
X041105Y004158D01*
X059018Y004158D01*
X059211Y004062D02*
X041008Y004062D01*
X040910Y003963D02*
X059408Y003963D01*
X059605Y003865D02*
X040908Y003865D01*
X040908Y003766D02*
X059802Y003766D01*
X059999Y003668D02*
X040908Y003668D01*
X040908Y003569D02*
X060196Y003569D01*
X060393Y003471D02*
X040908Y003471D01*
X040908Y003372D02*
X060590Y003372D01*
X060593Y003274D02*
X040908Y003274D01*
X040908Y003175D02*
X042926Y003175D01*
X042953Y003186D02*
X042732Y003094D01*
X042562Y002925D01*
X042470Y002703D01*
X042470Y002463D01*
X042562Y002242D01*
X042732Y002072D01*
X042953Y001980D01*
X043193Y001980D01*
X043415Y002072D01*
X043585Y002242D01*
X043676Y002463D01*
X043676Y002703D01*
X043585Y002925D01*
X043415Y003094D01*
X043193Y003186D01*
X042953Y003186D01*
X042714Y003077D02*
X041965Y003077D01*
X041990Y003064D02*
X041911Y003104D01*
X041827Y003131D01*
X041745Y003144D01*
X041745Y002633D01*
X041645Y002633D01*
X041645Y002533D01*
X041135Y002533D01*
X041147Y002452D01*
X041175Y002368D01*
X041215Y002289D01*
X041267Y002217D01*
X041329Y002155D01*
X041401Y002103D01*
X041480Y002063D01*
X041564Y002035D01*
X041645Y002022D01*
X041645Y002533D01*
X041745Y002533D01*
X041745Y002022D01*
X041827Y002035D01*
X041911Y002063D01*
X041990Y002103D01*
X042061Y002155D01*
X042124Y002217D01*
X042176Y002289D01*
X042216Y002368D01*
X042243Y002452D01*
X042256Y002533D01*
X041745Y002533D01*
X041745Y002633D01*
X042256Y002633D01*
X042243Y002715D01*
X042216Y002799D01*
X042176Y002878D01*
X042124Y002949D01*
X042061Y003012D01*
X041990Y003064D01*
X042095Y002978D02*
X042615Y002978D01*
X042543Y002880D02*
X042175Y002880D01*
X042222Y002781D02*
X042503Y002781D01*
X042470Y002683D02*
X042249Y002683D01*
X042249Y002486D02*
X042470Y002486D01*
X042470Y002584D02*
X041745Y002584D01*
X041745Y002486D02*
X041645Y002486D01*
X041645Y002584D02*
X040908Y002584D01*
X040908Y002486D02*
X041142Y002486D01*
X041168Y002387D02*
X040908Y002387D01*
X040908Y002289D02*
X041215Y002289D01*
X041294Y002190D02*
X040908Y002190D01*
X040908Y002092D02*
X041423Y002092D01*
X041645Y002092D02*
X041745Y002092D01*
X041745Y002190D02*
X041645Y002190D01*
X041645Y002289D02*
X041745Y002289D01*
X041745Y002387D02*
X041645Y002387D01*
X041645Y002633D02*
X041135Y002633D01*
X041147Y002715D01*
X041175Y002799D01*
X041215Y002878D01*
X041267Y002949D01*
X041329Y003012D01*
X041401Y003064D01*
X041480Y003104D01*
X041564Y003131D01*
X041645Y003144D01*
X041645Y002633D01*
X041645Y002683D02*
X041745Y002683D01*
X041745Y002781D02*
X041645Y002781D01*
X041645Y002880D02*
X041745Y002880D01*
X041745Y002978D02*
X041645Y002978D01*
X041645Y003077D02*
X041745Y003077D01*
X041426Y003077D02*
X040908Y003077D01*
X040908Y002978D02*
X041296Y002978D01*
X041216Y002880D02*
X040908Y002880D01*
X040908Y002781D02*
X041169Y002781D01*
X041142Y002683D02*
X040908Y002683D01*
X040908Y001993D02*
X042922Y001993D01*
X042712Y002092D02*
X041968Y002092D01*
X042097Y002190D02*
X042614Y002190D01*
X042543Y002289D02*
X042176Y002289D01*
X042222Y002387D02*
X042502Y002387D01*
X043225Y001993D02*
X044300Y001993D01*
X044331Y001980D02*
X044571Y001980D01*
X044793Y002072D01*
X044963Y002242D01*
X045054Y002463D01*
X045054Y002703D01*
X044963Y002925D01*
X044793Y003094D01*
X044571Y003186D01*
X044331Y003186D01*
X044110Y003094D01*
X043940Y002925D01*
X043848Y002703D01*
X043848Y002463D01*
X043940Y002242D01*
X044110Y002072D01*
X044331Y001980D01*
X044090Y002092D02*
X043435Y002092D01*
X043533Y002190D02*
X043992Y002190D01*
X043921Y002289D02*
X043604Y002289D01*
X043645Y002387D02*
X043880Y002387D01*
X043848Y002486D02*
X043676Y002486D01*
X043676Y002584D02*
X043848Y002584D01*
X043848Y002683D02*
X043676Y002683D01*
X043644Y002781D02*
X043881Y002781D01*
X043921Y002880D02*
X043603Y002880D01*
X043531Y002978D02*
X043993Y002978D01*
X044092Y003077D02*
X043433Y003077D01*
X043220Y003175D02*
X044304Y003175D01*
X044598Y003175D02*
X060593Y003175D01*
X060593Y003077D02*
X060272Y003077D01*
X060297Y003064D02*
X060218Y003104D01*
X060134Y003131D01*
X060053Y003144D01*
X060053Y002633D01*
X060563Y002633D01*
X060550Y002715D01*
X060523Y002799D01*
X060483Y002878D01*
X060431Y002949D01*
X060369Y003012D01*
X060297Y003064D01*
X060402Y002978D02*
X060593Y002978D01*
X060593Y002880D02*
X060482Y002880D01*
X060529Y002781D02*
X060593Y002781D01*
X060593Y002683D02*
X060556Y002683D01*
X060593Y002584D02*
X060053Y002584D01*
X060053Y002633D02*
X060053Y002533D01*
X060563Y002533D01*
X060550Y002452D01*
X060523Y002368D01*
X060483Y002289D01*
X060431Y002217D01*
X060369Y002155D01*
X060297Y002103D01*
X060218Y002063D01*
X060134Y002035D01*
X060053Y002022D01*
X060053Y002533D01*
X059953Y002533D01*
X059953Y002022D01*
X059871Y002035D01*
X059787Y002063D01*
X059708Y002103D01*
X059637Y002155D01*
X059574Y002217D01*
X059522Y002289D01*
X059482Y002368D01*
X059455Y002452D01*
X059442Y002533D01*
X059953Y002533D01*
X059953Y002633D01*
X059953Y003144D01*
X059871Y003131D01*
X059787Y003104D01*
X059708Y003064D01*
X059637Y003012D01*
X059574Y002949D01*
X059522Y002878D01*
X059482Y002799D01*
X059455Y002715D01*
X059442Y002633D01*
X059953Y002633D01*
X060053Y002633D01*
X060053Y002683D02*
X059953Y002683D01*
X059953Y002781D02*
X060053Y002781D01*
X060053Y002880D02*
X059953Y002880D01*
X059953Y002978D02*
X060053Y002978D01*
X060053Y003077D02*
X059953Y003077D01*
X059733Y003077D02*
X055117Y003077D01*
X055238Y002978D02*
X059603Y002978D01*
X059523Y002880D02*
X055304Y002880D01*
X055344Y002781D02*
X059476Y002781D01*
X059449Y002683D02*
X055349Y002683D01*
X055349Y002584D02*
X059953Y002584D01*
X059953Y002486D02*
X060053Y002486D01*
X060053Y002387D02*
X059953Y002387D01*
X059953Y002289D02*
X060053Y002289D01*
X060053Y002190D02*
X059953Y002190D01*
X059953Y002092D02*
X060053Y002092D01*
X060275Y002092D02*
X060593Y002092D01*
X060593Y002190D02*
X060404Y002190D01*
X060483Y002289D02*
X060593Y002289D01*
X060593Y002387D02*
X060530Y002387D01*
X060556Y002486D02*
X060593Y002486D01*
X060593Y001993D02*
X055332Y001993D01*
X055349Y002092D02*
X059730Y002092D01*
X059601Y002190D02*
X055349Y002190D01*
X055349Y002289D02*
X059522Y002289D01*
X059476Y002387D02*
X055349Y002387D01*
X055349Y002486D02*
X059449Y002486D01*
X060593Y001895D02*
X055291Y001895D01*
X055208Y001796D02*
X060593Y001796D01*
X054593Y001796D02*
X054208Y001796D01*
X054291Y001895D02*
X054509Y001895D01*
X054468Y001993D02*
X054332Y001993D01*
X054349Y002092D02*
X054451Y002092D01*
X054451Y002190D02*
X054349Y002190D01*
X054349Y002289D02*
X054451Y002289D01*
X054451Y002387D02*
X054349Y002387D01*
X054349Y002486D02*
X054451Y002486D01*
X054451Y002584D02*
X054349Y002584D01*
X054349Y002683D02*
X054451Y002683D01*
X054456Y002781D02*
X054344Y002781D01*
X054304Y002880D02*
X054497Y002880D01*
X054563Y002978D02*
X054238Y002978D01*
X054117Y003077D02*
X054683Y003077D01*
X053683Y003077D02*
X053117Y003077D01*
X053238Y002978D02*
X053563Y002978D01*
X053497Y002880D02*
X053304Y002880D01*
X053344Y002781D02*
X053456Y002781D01*
X053451Y002683D02*
X053349Y002683D01*
X053349Y002584D02*
X053451Y002584D01*
X053451Y002486D02*
X053349Y002486D01*
X053349Y002387D02*
X053451Y002387D01*
X053451Y002289D02*
X053349Y002289D01*
X053349Y002190D02*
X053451Y002190D01*
X053451Y002092D02*
X053349Y002092D01*
X053332Y001993D02*
X053468Y001993D01*
X053509Y001895D02*
X053291Y001895D01*
X053208Y001796D02*
X053593Y001796D01*
X052593Y001796D02*
X049893Y001796D01*
X049976Y001895D02*
X052509Y001895D01*
X052468Y001993D02*
X050017Y001993D01*
X050034Y002092D02*
X052451Y002092D01*
X052451Y002190D02*
X050034Y002190D01*
X050034Y002289D02*
X052451Y002289D01*
X052451Y002387D02*
X050034Y002387D01*
X050034Y002486D02*
X052451Y002486D01*
X052451Y002584D02*
X050034Y002584D01*
X050034Y002683D02*
X052451Y002683D01*
X052456Y002781D02*
X050029Y002781D01*
X049989Y002880D02*
X052497Y002880D01*
X052563Y002978D02*
X049923Y002978D01*
X049802Y003077D02*
X052683Y003077D01*
X049368Y003077D02*
X048686Y003077D01*
X048681Y003078D02*
X048635Y003085D01*
X048635Y002452D01*
X048535Y002452D01*
X048535Y002352D01*
X048178Y002352D01*
X048178Y002091D01*
X048188Y002028D01*
X048208Y001967D01*
X048237Y001910D01*
X048274Y001858D01*
X048320Y001813D01*
X048372Y001775D01*
X048429Y001746D01*
X048490Y001726D01*
X048535Y001719D01*
X048535Y002352D01*
X048635Y002352D01*
X048635Y001719D01*
X048681Y001726D01*
X048742Y001746D01*
X048799Y001775D01*
X048851Y001813D01*
X048896Y001858D01*
X048934Y001910D01*
X048963Y001967D01*
X048983Y002028D01*
X048993Y002091D01*
X048993Y002352D01*
X048635Y002352D01*
X048635Y002452D01*
X048993Y002452D01*
X048993Y002713D01*
X048983Y002776D01*
X048963Y002837D01*
X048934Y002894D01*
X048896Y002946D01*
X048851Y002992D01*
X048799Y003029D01*
X048742Y003058D01*
X048681Y003078D01*
X048635Y003077D02*
X048535Y003077D01*
X048535Y003085D02*
X048490Y003078D01*
X048429Y003058D01*
X048372Y003029D01*
X048320Y002992D01*
X048274Y002946D01*
X048237Y002894D01*
X048208Y002837D01*
X048188Y002776D01*
X048178Y002713D01*
X048178Y002452D01*
X048535Y002452D01*
X048535Y003085D01*
X048485Y003077D02*
X047802Y003077D01*
X047923Y002978D02*
X048306Y002978D01*
X048229Y002880D02*
X047989Y002880D01*
X048029Y002781D02*
X048189Y002781D01*
X048178Y002683D02*
X048034Y002683D01*
X048034Y002584D02*
X048178Y002584D01*
X048178Y002486D02*
X048034Y002486D01*
X048034Y002387D02*
X048535Y002387D01*
X048535Y002289D02*
X048635Y002289D01*
X048635Y002387D02*
X049136Y002387D01*
X049136Y002289D02*
X048993Y002289D01*
X048993Y002190D02*
X049136Y002190D01*
X049136Y002092D02*
X048993Y002092D01*
X048971Y001993D02*
X049153Y001993D01*
X049194Y001895D02*
X048923Y001895D01*
X048828Y001796D02*
X049278Y001796D01*
X048635Y001796D02*
X048535Y001796D01*
X048535Y001895D02*
X048635Y001895D01*
X048635Y001993D02*
X048535Y001993D01*
X048535Y002092D02*
X048635Y002092D01*
X048635Y002190D02*
X048535Y002190D01*
X048535Y002486D02*
X048635Y002486D01*
X048635Y002584D02*
X048535Y002584D01*
X048535Y002683D02*
X048635Y002683D01*
X048635Y002781D02*
X048535Y002781D01*
X048535Y002880D02*
X048635Y002880D01*
X048635Y002978D02*
X048535Y002978D01*
X048864Y002978D02*
X049248Y002978D01*
X049182Y002880D02*
X048941Y002880D01*
X048981Y002781D02*
X049141Y002781D01*
X049136Y002683D02*
X048993Y002683D01*
X048993Y002584D02*
X049136Y002584D01*
X049136Y002486D02*
X048993Y002486D01*
X048178Y002289D02*
X048034Y002289D01*
X048034Y002190D02*
X048178Y002190D01*
X048178Y002092D02*
X048034Y002092D01*
X048017Y001993D02*
X048199Y001993D01*
X048248Y001895D02*
X047976Y001895D01*
X047893Y001796D02*
X048342Y001796D01*
X047278Y001796D02*
X040908Y001796D01*
X040908Y001895D02*
X047194Y001895D01*
X047153Y001993D02*
X044603Y001993D01*
X044813Y002092D02*
X047136Y002092D01*
X047136Y002190D02*
X044911Y002190D01*
X044982Y002289D02*
X047136Y002289D01*
X047136Y002387D02*
X045023Y002387D01*
X045054Y002486D02*
X047136Y002486D01*
X047136Y002584D02*
X045054Y002584D01*
X045054Y002683D02*
X047136Y002683D01*
X047141Y002781D02*
X045022Y002781D01*
X044981Y002880D02*
X047182Y002880D01*
X047248Y002978D02*
X044909Y002978D01*
X044811Y003077D02*
X047368Y003077D01*
X037034Y017868D02*
X037034Y019056D01*
X036331Y019758D01*
X036331Y023056D01*
X035741Y023646D01*
X027239Y023646D01*
X027215Y023670D01*
X018221Y032160D02*
X012168Y038213D01*
X013168Y038213D02*
X018188Y033193D01*
X036774Y033193D01*
X043215Y039634D01*
X043215Y039670D01*
X044215Y039670D02*
X044215Y039601D01*
X036774Y032160D01*
X018221Y032160D01*
X018203Y034178D02*
X014168Y038213D01*
X015168Y038213D02*
X018219Y035162D01*
X036774Y035162D01*
X041233Y039621D01*
X041215Y039670D01*
X042215Y039670D02*
X042215Y039619D01*
X036774Y034178D01*
X018203Y034178D01*
X019205Y038164D02*
X019156Y038213D01*
X019205Y038164D02*
X031016Y038164D01*
X031215Y038363D01*
X031215Y039670D01*
X030215Y039670D02*
X030215Y039282D01*
X030081Y039148D01*
X019205Y039148D01*
X019156Y039197D01*
D30*
X046223Y019512D03*
X046223Y019020D03*
X046223Y018528D03*
X046223Y018036D03*
X048979Y008095D03*
X049569Y008095D03*
X049569Y007504D03*
X048979Y007504D03*
X048979Y006914D03*
X049569Y006914D03*
X049569Y006323D03*
X048979Y006323D03*
X050160Y006323D03*
X050160Y006914D03*
X050160Y007504D03*
X050160Y008095D03*
D31*
X055967Y003961D03*
X012069Y003961D03*
X008723Y006127D03*
X006656Y003961D03*
X003999Y006127D03*
D32*
X055967Y003961D02*
X056262Y003961D01*
D33*
X015928Y003469D03*
X015928Y003016D03*
X015928Y002564D03*
X015416Y002564D03*
X015416Y003016D03*
X015436Y003469D03*
X014629Y006717D03*
X014629Y007209D03*
X014629Y007701D03*
D34*
X015514Y006127D03*
X047503Y008095D03*
D35*
X043215Y010304D02*
X043215Y020670D01*
X043215Y010304D02*
X043073Y010162D01*
X023585Y010162D01*
X019550Y006127D01*
X015514Y006127D01*
D36*
X017877Y036097D02*
X017532Y036441D01*
X017532Y037849D01*
X017168Y038213D01*
X017680Y038701D02*
X017168Y039213D01*
X017680Y038701D02*
X017680Y036491D01*
X017926Y036245D01*
X031607Y036245D01*
X034215Y038853D01*
X034215Y039670D01*
X035215Y039670D02*
X035215Y039656D01*
X031656Y036097D01*
X017877Y036097D01*
X018861Y037081D02*
X018516Y037426D01*
X018516Y037865D01*
X018168Y038213D01*
X018664Y038717D02*
X018168Y039213D01*
X018664Y038717D02*
X018664Y037475D01*
X018910Y037229D01*
X031607Y037229D01*
X032215Y037837D01*
X032215Y039670D01*
X033215Y039670D02*
X033215Y038640D01*
X031656Y037081D01*
X018861Y037081D01*
D37*
X046215Y020670D02*
X046215Y010678D01*
X044648Y009111D01*
X042522Y008599D02*
X037688Y003764D01*
X025357Y003764D01*
X023499Y005623D01*
X020396Y005623D01*
D38*
X018467Y005111D02*
X014857Y005111D01*
X014629Y005339D01*
X014629Y007701D01*
D39*
X012069Y003961D02*
X006656Y003961D01*
M02*
