%
M48
M72
T01C0.0138
T02C0.0197
T03C0.0320
T04C0.0394
T05C0.0400
T06C0.0440
T07C0.0472
T08C0.0551
T09C0.0591
T10C0.1181
%
T01
X5612Y23093
X6597Y23093
X6498Y24865
X5612Y24865
X5711Y26636
X6498Y26636
X6794Y28900
X7876Y29688
X19490Y12069
X19490Y11184
X19490Y10298
T02
X11616Y12562
X11616Y14727
X11518Y19451
X12010Y21518
X12010Y23290
X12010Y25062
X12010Y26833
X9648Y26833
X9254Y26144
X9648Y25062
X9254Y24373
X9648Y23290
X9254Y22601
X9648Y21518
X9156Y27916
T03
X9935Y16302
X10935Y16302
X11034Y11676
X10034Y11676
X10034Y6951
X11034Y6951
X10731Y2629
X10731Y1629
X12502Y1629
X12502Y2629
X14274Y2629
X14274Y1629
X16046Y1629
X16046Y2629
X8959Y2629
X8959Y1629
T04
X8368Y10022
X8368Y14747
X8368Y19471
T05
X14668Y28014
X14668Y29014
X15668Y29014
X15668Y28014
X16668Y28014
X16668Y29014
X17668Y29014
X17668Y28014
X18668Y28014
X18668Y29014
X19668Y29014
X19668Y28014
X20668Y28014
X20668Y29014
X21668Y29014
X21668Y28014
X22641Y20475
X22541Y19475
X22641Y18475
X22541Y17475
X22641Y16475
X22541Y15475
X22641Y14475
X22541Y13475
X22641Y12475
X22541Y11475
X22641Y10475
X22541Y9475
X22641Y8475
X22541Y7475
X22641Y6475
X22541Y5475
T06
X20817Y2079
X19817Y2079
X18817Y2079
X17817Y2079
T07
X4825Y22995
X4825Y24373
X4825Y25751
X4825Y27129
T08
X5219Y6459
X5219Y7936
X5219Y9412
X5219Y11184
X5219Y12660
X5219Y14136
X5219Y15908
X5219Y17384
X5219Y18861
T09
X7778Y17384
X7778Y12660
X7778Y7936
T10
X5612Y2621
X5612Y28999
M30
