G75*
G70*
%OFA0B0*%
%FSLAX24Y24*%
%IPPOS*%
%LPD*%
%AMOC8*
5,1,8,0,0,1.08239X$1,22.5*
%
%ADD10C,0.1260*%
%ADD11OC8,0.0819*%
%ADD12C,0.0945*%
%ADD13C,0.0630*%
%ADD14C,0.0669*%
%ADD15C,0.0819*%
%ADD16C,0.0819*%
%ADD17R,0.0591X0.0709*%
%ADD18OC8,0.0556*%
%ADD19R,0.0559X0.0323*%
%ADD20C,0.0945*%
%ADD21R,0.0591X0.0669*%
%ADD22C,0.0433*%
%ADD23C,0.0374*%
D10*
X005612Y002621D03*
X005612Y028999D03*
D11*
X014668Y029014D03*
X014668Y028014D03*
X015668Y028014D03*
X015668Y029014D03*
X016668Y029014D03*
X016668Y028014D03*
X017668Y028014D03*
X017668Y029014D03*
X018668Y029014D03*
X018668Y028014D03*
X019668Y028014D03*
X019668Y029014D03*
X020668Y029014D03*
X020668Y028014D03*
X021668Y028014D03*
X021668Y029014D03*
D12*
X008801Y019471D02*
X007935Y019471D01*
X005219Y017817D02*
X005219Y016951D01*
X007935Y014747D02*
X008801Y014747D01*
X005219Y013093D02*
X005219Y012227D01*
X007935Y010022D02*
X008801Y010022D01*
X005219Y008369D02*
X005219Y007503D01*
D13*
X005219Y006459D03*
X005219Y009412D03*
X005219Y011184D03*
X005219Y014136D03*
X005219Y015908D03*
X005219Y018861D03*
D14*
X007778Y017384D03*
X007778Y012660D03*
X007778Y007936D03*
D15*
X017817Y002449D02*
X017817Y001709D01*
X018817Y001709D02*
X018817Y002449D01*
X019817Y002449D02*
X019817Y001709D01*
X020817Y001709D02*
X020817Y002449D01*
D16*
X022541Y005475D03*
X022641Y006475D03*
X022541Y007475D03*
X022641Y008475D03*
X022541Y009475D03*
X022641Y010475D03*
X022541Y011475D03*
X022641Y012475D03*
X022541Y013475D03*
X022641Y014475D03*
X022541Y015475D03*
X022641Y016475D03*
X022541Y017475D03*
X022641Y018475D03*
X022541Y019475D03*
X022641Y020475D03*
D17*
X021046Y012069D03*
X020297Y012069D03*
X020297Y011184D03*
X020297Y010298D03*
X021046Y010298D03*
X021046Y011184D03*
X021046Y009412D03*
X020297Y009412D03*
X020297Y008526D03*
X021046Y008526D03*
X021046Y007640D03*
X020297Y007640D03*
X020297Y006754D03*
X021046Y006754D03*
X021046Y005869D03*
X020297Y005869D03*
X010711Y008821D03*
X009963Y008821D03*
X009963Y010003D03*
X010711Y010003D03*
X010711Y013546D03*
X009963Y013546D03*
X009963Y014727D03*
X010711Y014727D03*
X010711Y018270D03*
X009963Y018270D03*
X009963Y019451D03*
X010711Y019451D03*
X010337Y021518D03*
X010337Y022404D03*
X010337Y023290D03*
X010337Y024176D03*
X010337Y025062D03*
X010337Y025947D03*
X010337Y026833D03*
X010337Y027719D03*
X011124Y027719D03*
X011124Y026833D03*
X011124Y025947D03*
X011124Y025062D03*
X011124Y024176D03*
X011124Y023290D03*
X011124Y022404D03*
X011124Y021518D03*
D18*
X010935Y016302D03*
X009935Y016302D03*
X010034Y011676D03*
X011034Y011676D03*
X011034Y006951D03*
X010034Y006951D03*
X010731Y002629D03*
X010731Y001629D03*
X012502Y001629D03*
X012502Y002629D03*
X014274Y002629D03*
X014274Y001629D03*
X016046Y001629D03*
X016046Y002629D03*
X008959Y002629D03*
X008959Y001629D03*
D19*
X008486Y021856D03*
X008486Y022230D03*
X008486Y022604D03*
X008486Y022978D03*
X008486Y023628D03*
X008486Y024002D03*
X008486Y024376D03*
X008486Y024750D03*
X008486Y025399D03*
X008486Y025773D03*
X008486Y026147D03*
X008486Y026521D03*
X008486Y027171D03*
X008486Y027545D03*
X008486Y027919D03*
X008486Y028293D03*
X007463Y028293D03*
X007463Y027919D03*
X007463Y027545D03*
X007463Y027171D03*
X007463Y026521D03*
X007463Y026147D03*
X007463Y025773D03*
X007463Y025399D03*
X007463Y024750D03*
X007463Y024376D03*
X007463Y024002D03*
X007463Y023628D03*
X007463Y022978D03*
X007463Y022604D03*
X007463Y022230D03*
X007463Y021856D03*
D20*
X004825Y022995D03*
X004825Y024373D03*
X004825Y025751D03*
X004825Y027129D03*
D21*
X011046Y028999D03*
X011794Y028999D03*
D22*
X012010Y026833D03*
X012010Y025062D03*
X012010Y023290D03*
X012010Y021518D03*
X011518Y019451D03*
X009648Y021518D03*
X009254Y022601D03*
X009648Y023290D03*
X009254Y024373D03*
X009648Y025062D03*
X009254Y026144D03*
X009648Y026833D03*
X009156Y027916D03*
X011616Y014727D03*
X011616Y012562D03*
D23*
X019490Y012069D03*
X019490Y011184D03*
X019490Y010298D03*
X006597Y023093D03*
X005612Y023093D03*
X005612Y024865D03*
X006498Y024865D03*
X006498Y026636D03*
X005711Y026636D03*
X006794Y028900D03*
X007876Y029688D03*
M02*
