G75*
G70*
%OFA0B0*%
%FSLAX24Y24*%
%IPPOS*%
%LPD*%
%AMOC8*
5,1,8,0,0,1.08239X$1,22.5*
%
%ADD10C,0.0000*%
%ADD11C,0.0120*%
%ADD12C,0.0100*%
%ADD13OC8,0.0740*%
%ADD14C,0.0866*%
%ADD15C,0.0740*%
%ADD16C,0.0740*%
%ADD17OC8,0.0477*%
%ADD18C,0.0866*%
%ADD19C,0.0354*%
%ADD20C,0.0320*%
%ADD21C,0.0295*%
%ADD22C,0.0500*%
%ADD23C,0.0200*%
D10*
X004943Y006459D02*
X004945Y006492D01*
X004951Y006524D01*
X004960Y006555D01*
X004973Y006585D01*
X004990Y006613D01*
X005010Y006639D01*
X005033Y006663D01*
X005058Y006683D01*
X005086Y006701D01*
X005115Y006715D01*
X005146Y006725D01*
X005178Y006732D01*
X005211Y006735D01*
X005244Y006734D01*
X005276Y006729D01*
X005307Y006720D01*
X005338Y006708D01*
X005366Y006692D01*
X005393Y006673D01*
X005417Y006651D01*
X005438Y006626D01*
X005457Y006599D01*
X005472Y006570D01*
X005483Y006540D01*
X005491Y006508D01*
X005495Y006475D01*
X005495Y006443D01*
X005491Y006410D01*
X005483Y006378D01*
X005472Y006348D01*
X005457Y006319D01*
X005438Y006292D01*
X005417Y006267D01*
X005393Y006245D01*
X005366Y006226D01*
X005338Y006210D01*
X005307Y006198D01*
X005276Y006189D01*
X005244Y006184D01*
X005211Y006183D01*
X005178Y006186D01*
X005146Y006193D01*
X005115Y006203D01*
X005086Y006217D01*
X005058Y006235D01*
X005033Y006255D01*
X005010Y006279D01*
X004990Y006305D01*
X004973Y006333D01*
X004960Y006363D01*
X004951Y006394D01*
X004945Y006426D01*
X004943Y006459D01*
X004943Y009412D02*
X004945Y009445D01*
X004951Y009477D01*
X004960Y009508D01*
X004973Y009538D01*
X004990Y009566D01*
X005010Y009592D01*
X005033Y009616D01*
X005058Y009636D01*
X005086Y009654D01*
X005115Y009668D01*
X005146Y009678D01*
X005178Y009685D01*
X005211Y009688D01*
X005244Y009687D01*
X005276Y009682D01*
X005307Y009673D01*
X005338Y009661D01*
X005366Y009645D01*
X005393Y009626D01*
X005417Y009604D01*
X005438Y009579D01*
X005457Y009552D01*
X005472Y009523D01*
X005483Y009493D01*
X005491Y009461D01*
X005495Y009428D01*
X005495Y009396D01*
X005491Y009363D01*
X005483Y009331D01*
X005472Y009301D01*
X005457Y009272D01*
X005438Y009245D01*
X005417Y009220D01*
X005393Y009198D01*
X005366Y009179D01*
X005338Y009163D01*
X005307Y009151D01*
X005276Y009142D01*
X005244Y009137D01*
X005211Y009136D01*
X005178Y009139D01*
X005146Y009146D01*
X005115Y009156D01*
X005086Y009170D01*
X005058Y009188D01*
X005033Y009208D01*
X005010Y009232D01*
X004990Y009258D01*
X004973Y009286D01*
X004960Y009316D01*
X004951Y009347D01*
X004945Y009379D01*
X004943Y009412D01*
X004943Y011184D02*
X004945Y011217D01*
X004951Y011249D01*
X004960Y011280D01*
X004973Y011310D01*
X004990Y011338D01*
X005010Y011364D01*
X005033Y011388D01*
X005058Y011408D01*
X005086Y011426D01*
X005115Y011440D01*
X005146Y011450D01*
X005178Y011457D01*
X005211Y011460D01*
X005244Y011459D01*
X005276Y011454D01*
X005307Y011445D01*
X005338Y011433D01*
X005366Y011417D01*
X005393Y011398D01*
X005417Y011376D01*
X005438Y011351D01*
X005457Y011324D01*
X005472Y011295D01*
X005483Y011265D01*
X005491Y011233D01*
X005495Y011200D01*
X005495Y011168D01*
X005491Y011135D01*
X005483Y011103D01*
X005472Y011073D01*
X005457Y011044D01*
X005438Y011017D01*
X005417Y010992D01*
X005393Y010970D01*
X005366Y010951D01*
X005338Y010935D01*
X005307Y010923D01*
X005276Y010914D01*
X005244Y010909D01*
X005211Y010908D01*
X005178Y010911D01*
X005146Y010918D01*
X005115Y010928D01*
X005086Y010942D01*
X005058Y010960D01*
X005033Y010980D01*
X005010Y011004D01*
X004990Y011030D01*
X004973Y011058D01*
X004960Y011088D01*
X004951Y011119D01*
X004945Y011151D01*
X004943Y011184D01*
X004943Y014136D02*
X004945Y014169D01*
X004951Y014201D01*
X004960Y014232D01*
X004973Y014262D01*
X004990Y014290D01*
X005010Y014316D01*
X005033Y014340D01*
X005058Y014360D01*
X005086Y014378D01*
X005115Y014392D01*
X005146Y014402D01*
X005178Y014409D01*
X005211Y014412D01*
X005244Y014411D01*
X005276Y014406D01*
X005307Y014397D01*
X005338Y014385D01*
X005366Y014369D01*
X005393Y014350D01*
X005417Y014328D01*
X005438Y014303D01*
X005457Y014276D01*
X005472Y014247D01*
X005483Y014217D01*
X005491Y014185D01*
X005495Y014152D01*
X005495Y014120D01*
X005491Y014087D01*
X005483Y014055D01*
X005472Y014025D01*
X005457Y013996D01*
X005438Y013969D01*
X005417Y013944D01*
X005393Y013922D01*
X005366Y013903D01*
X005338Y013887D01*
X005307Y013875D01*
X005276Y013866D01*
X005244Y013861D01*
X005211Y013860D01*
X005178Y013863D01*
X005146Y013870D01*
X005115Y013880D01*
X005086Y013894D01*
X005058Y013912D01*
X005033Y013932D01*
X005010Y013956D01*
X004990Y013982D01*
X004973Y014010D01*
X004960Y014040D01*
X004951Y014071D01*
X004945Y014103D01*
X004943Y014136D01*
X004943Y015908D02*
X004945Y015941D01*
X004951Y015973D01*
X004960Y016004D01*
X004973Y016034D01*
X004990Y016062D01*
X005010Y016088D01*
X005033Y016112D01*
X005058Y016132D01*
X005086Y016150D01*
X005115Y016164D01*
X005146Y016174D01*
X005178Y016181D01*
X005211Y016184D01*
X005244Y016183D01*
X005276Y016178D01*
X005307Y016169D01*
X005338Y016157D01*
X005366Y016141D01*
X005393Y016122D01*
X005417Y016100D01*
X005438Y016075D01*
X005457Y016048D01*
X005472Y016019D01*
X005483Y015989D01*
X005491Y015957D01*
X005495Y015924D01*
X005495Y015892D01*
X005491Y015859D01*
X005483Y015827D01*
X005472Y015797D01*
X005457Y015768D01*
X005438Y015741D01*
X005417Y015716D01*
X005393Y015694D01*
X005366Y015675D01*
X005338Y015659D01*
X005307Y015647D01*
X005276Y015638D01*
X005244Y015633D01*
X005211Y015632D01*
X005178Y015635D01*
X005146Y015642D01*
X005115Y015652D01*
X005086Y015666D01*
X005058Y015684D01*
X005033Y015704D01*
X005010Y015728D01*
X004990Y015754D01*
X004973Y015782D01*
X004960Y015812D01*
X004951Y015843D01*
X004945Y015875D01*
X004943Y015908D01*
X004943Y018861D02*
X004945Y018894D01*
X004951Y018926D01*
X004960Y018957D01*
X004973Y018987D01*
X004990Y019015D01*
X005010Y019041D01*
X005033Y019065D01*
X005058Y019085D01*
X005086Y019103D01*
X005115Y019117D01*
X005146Y019127D01*
X005178Y019134D01*
X005211Y019137D01*
X005244Y019136D01*
X005276Y019131D01*
X005307Y019122D01*
X005338Y019110D01*
X005366Y019094D01*
X005393Y019075D01*
X005417Y019053D01*
X005438Y019028D01*
X005457Y019001D01*
X005472Y018972D01*
X005483Y018942D01*
X005491Y018910D01*
X005495Y018877D01*
X005495Y018845D01*
X005491Y018812D01*
X005483Y018780D01*
X005472Y018750D01*
X005457Y018721D01*
X005438Y018694D01*
X005417Y018669D01*
X005393Y018647D01*
X005366Y018628D01*
X005338Y018612D01*
X005307Y018600D01*
X005276Y018591D01*
X005244Y018586D01*
X005211Y018585D01*
X005178Y018588D01*
X005146Y018595D01*
X005115Y018605D01*
X005086Y018619D01*
X005058Y018637D01*
X005033Y018657D01*
X005010Y018681D01*
X004990Y018707D01*
X004973Y018735D01*
X004960Y018765D01*
X004951Y018796D01*
X004945Y018828D01*
X004943Y018861D01*
X007483Y017384D02*
X007485Y017418D01*
X007491Y017452D01*
X007501Y017485D01*
X007514Y017516D01*
X007532Y017546D01*
X007552Y017574D01*
X007576Y017599D01*
X007602Y017621D01*
X007630Y017639D01*
X007661Y017655D01*
X007693Y017667D01*
X007727Y017675D01*
X007761Y017679D01*
X007795Y017679D01*
X007829Y017675D01*
X007863Y017667D01*
X007895Y017655D01*
X007925Y017639D01*
X007954Y017621D01*
X007980Y017599D01*
X008004Y017574D01*
X008024Y017546D01*
X008042Y017516D01*
X008055Y017485D01*
X008065Y017452D01*
X008071Y017418D01*
X008073Y017384D01*
X008071Y017350D01*
X008065Y017316D01*
X008055Y017283D01*
X008042Y017252D01*
X008024Y017222D01*
X008004Y017194D01*
X007980Y017169D01*
X007954Y017147D01*
X007926Y017129D01*
X007895Y017113D01*
X007863Y017101D01*
X007829Y017093D01*
X007795Y017089D01*
X007761Y017089D01*
X007727Y017093D01*
X007693Y017101D01*
X007661Y017113D01*
X007630Y017129D01*
X007602Y017147D01*
X007576Y017169D01*
X007552Y017194D01*
X007532Y017222D01*
X007514Y017252D01*
X007501Y017283D01*
X007491Y017316D01*
X007485Y017350D01*
X007483Y017384D01*
X007483Y012660D02*
X007485Y012694D01*
X007491Y012728D01*
X007501Y012761D01*
X007514Y012792D01*
X007532Y012822D01*
X007552Y012850D01*
X007576Y012875D01*
X007602Y012897D01*
X007630Y012915D01*
X007661Y012931D01*
X007693Y012943D01*
X007727Y012951D01*
X007761Y012955D01*
X007795Y012955D01*
X007829Y012951D01*
X007863Y012943D01*
X007895Y012931D01*
X007925Y012915D01*
X007954Y012897D01*
X007980Y012875D01*
X008004Y012850D01*
X008024Y012822D01*
X008042Y012792D01*
X008055Y012761D01*
X008065Y012728D01*
X008071Y012694D01*
X008073Y012660D01*
X008071Y012626D01*
X008065Y012592D01*
X008055Y012559D01*
X008042Y012528D01*
X008024Y012498D01*
X008004Y012470D01*
X007980Y012445D01*
X007954Y012423D01*
X007926Y012405D01*
X007895Y012389D01*
X007863Y012377D01*
X007829Y012369D01*
X007795Y012365D01*
X007761Y012365D01*
X007727Y012369D01*
X007693Y012377D01*
X007661Y012389D01*
X007630Y012405D01*
X007602Y012423D01*
X007576Y012445D01*
X007552Y012470D01*
X007532Y012498D01*
X007514Y012528D01*
X007501Y012559D01*
X007491Y012592D01*
X007485Y012626D01*
X007483Y012660D01*
X007483Y007936D02*
X007485Y007970D01*
X007491Y008004D01*
X007501Y008037D01*
X007514Y008068D01*
X007532Y008098D01*
X007552Y008126D01*
X007576Y008151D01*
X007602Y008173D01*
X007630Y008191D01*
X007661Y008207D01*
X007693Y008219D01*
X007727Y008227D01*
X007761Y008231D01*
X007795Y008231D01*
X007829Y008227D01*
X007863Y008219D01*
X007895Y008207D01*
X007925Y008191D01*
X007954Y008173D01*
X007980Y008151D01*
X008004Y008126D01*
X008024Y008098D01*
X008042Y008068D01*
X008055Y008037D01*
X008065Y008004D01*
X008071Y007970D01*
X008073Y007936D01*
X008071Y007902D01*
X008065Y007868D01*
X008055Y007835D01*
X008042Y007804D01*
X008024Y007774D01*
X008004Y007746D01*
X007980Y007721D01*
X007954Y007699D01*
X007926Y007681D01*
X007895Y007665D01*
X007863Y007653D01*
X007829Y007645D01*
X007795Y007641D01*
X007761Y007641D01*
X007727Y007645D01*
X007693Y007653D01*
X007661Y007665D01*
X007630Y007681D01*
X007602Y007699D01*
X007576Y007721D01*
X007552Y007746D01*
X007532Y007774D01*
X007514Y007804D01*
X007501Y007835D01*
X007491Y007868D01*
X007485Y007902D01*
X007483Y007936D01*
X005021Y002621D02*
X005023Y002669D01*
X005029Y002717D01*
X005039Y002764D01*
X005052Y002810D01*
X005070Y002855D01*
X005090Y002899D01*
X005115Y002941D01*
X005143Y002980D01*
X005173Y003017D01*
X005207Y003051D01*
X005244Y003083D01*
X005282Y003112D01*
X005323Y003137D01*
X005366Y003159D01*
X005411Y003177D01*
X005457Y003191D01*
X005504Y003202D01*
X005552Y003209D01*
X005600Y003212D01*
X005648Y003211D01*
X005696Y003206D01*
X005744Y003197D01*
X005790Y003185D01*
X005835Y003168D01*
X005879Y003148D01*
X005921Y003125D01*
X005961Y003098D01*
X005999Y003068D01*
X006034Y003035D01*
X006066Y002999D01*
X006096Y002961D01*
X006122Y002920D01*
X006144Y002877D01*
X006164Y002833D01*
X006179Y002788D01*
X006191Y002741D01*
X006199Y002693D01*
X006203Y002645D01*
X006203Y002597D01*
X006199Y002549D01*
X006191Y002501D01*
X006179Y002454D01*
X006164Y002409D01*
X006144Y002365D01*
X006122Y002322D01*
X006096Y002281D01*
X006066Y002243D01*
X006034Y002207D01*
X005999Y002174D01*
X005961Y002144D01*
X005921Y002117D01*
X005879Y002094D01*
X005835Y002074D01*
X005790Y002057D01*
X005744Y002045D01*
X005696Y002036D01*
X005648Y002031D01*
X005600Y002030D01*
X005552Y002033D01*
X005504Y002040D01*
X005457Y002051D01*
X005411Y002065D01*
X005366Y002083D01*
X005323Y002105D01*
X005282Y002130D01*
X005244Y002159D01*
X005207Y002191D01*
X005173Y002225D01*
X005143Y002262D01*
X005115Y002301D01*
X005090Y002343D01*
X005070Y002387D01*
X005052Y002432D01*
X005039Y002478D01*
X005029Y002525D01*
X005023Y002573D01*
X005021Y002621D01*
X005021Y028999D02*
X005023Y029047D01*
X005029Y029095D01*
X005039Y029142D01*
X005052Y029188D01*
X005070Y029233D01*
X005090Y029277D01*
X005115Y029319D01*
X005143Y029358D01*
X005173Y029395D01*
X005207Y029429D01*
X005244Y029461D01*
X005282Y029490D01*
X005323Y029515D01*
X005366Y029537D01*
X005411Y029555D01*
X005457Y029569D01*
X005504Y029580D01*
X005552Y029587D01*
X005600Y029590D01*
X005648Y029589D01*
X005696Y029584D01*
X005744Y029575D01*
X005790Y029563D01*
X005835Y029546D01*
X005879Y029526D01*
X005921Y029503D01*
X005961Y029476D01*
X005999Y029446D01*
X006034Y029413D01*
X006066Y029377D01*
X006096Y029339D01*
X006122Y029298D01*
X006144Y029255D01*
X006164Y029211D01*
X006179Y029166D01*
X006191Y029119D01*
X006199Y029071D01*
X006203Y029023D01*
X006203Y028975D01*
X006199Y028927D01*
X006191Y028879D01*
X006179Y028832D01*
X006164Y028787D01*
X006144Y028743D01*
X006122Y028700D01*
X006096Y028659D01*
X006066Y028621D01*
X006034Y028585D01*
X005999Y028552D01*
X005961Y028522D01*
X005921Y028495D01*
X005879Y028472D01*
X005835Y028452D01*
X005790Y028435D01*
X005744Y028423D01*
X005696Y028414D01*
X005648Y028409D01*
X005600Y028408D01*
X005552Y028411D01*
X005504Y028418D01*
X005457Y028429D01*
X005411Y028443D01*
X005366Y028461D01*
X005323Y028483D01*
X005282Y028508D01*
X005244Y028537D01*
X005207Y028569D01*
X005173Y028603D01*
X005143Y028640D01*
X005115Y028679D01*
X005090Y028721D01*
X005070Y028765D01*
X005052Y028810D01*
X005039Y028856D01*
X005029Y028903D01*
X005023Y028951D01*
X005021Y028999D01*
D11*
X003644Y030573D02*
X003644Y001046D01*
X023329Y001046D01*
X023329Y030573D01*
X021668Y029971D02*
X021668Y029014D01*
X021164Y028408D02*
X021164Y029688D01*
X020967Y029884D01*
X008073Y029884D01*
X007876Y029688D01*
X007089Y030180D02*
X006794Y029884D01*
X006794Y028900D01*
X007089Y030180D02*
X021459Y030180D01*
X021668Y029971D01*
X021164Y028408D02*
X021569Y028003D01*
X021656Y028003D01*
X021668Y028014D01*
X010935Y016302D02*
X010935Y012455D01*
X011321Y012069D01*
X019490Y012069D01*
X019490Y011184D02*
X011223Y011184D01*
X011034Y011373D01*
X011034Y011676D01*
X014372Y010298D02*
X019490Y010298D01*
X014372Y010298D02*
X011231Y007156D01*
X011034Y006951D01*
X006597Y023093D02*
X005612Y023093D01*
X005612Y024865D02*
X006498Y024865D01*
X006498Y026636D02*
X005711Y026636D01*
D12*
X003644Y030573D02*
X023329Y030573D01*
D13*
X021668Y029014D03*
X021668Y028014D03*
X020668Y028014D03*
X020668Y029014D03*
X019668Y029014D03*
X019668Y028014D03*
X018668Y028014D03*
X018668Y029014D03*
X017668Y029014D03*
X017668Y028014D03*
X016668Y028014D03*
X016668Y029014D03*
X015668Y029014D03*
X015668Y028014D03*
X014668Y028014D03*
X014668Y029014D03*
D14*
X008801Y019471D02*
X007935Y019471D01*
X005219Y017817D02*
X005219Y016951D01*
X007935Y014747D02*
X008801Y014747D01*
X005219Y013093D02*
X005219Y012227D01*
X007935Y010022D02*
X008801Y010022D01*
X005219Y008369D02*
X005219Y007503D01*
D15*
X017817Y002449D02*
X017817Y001709D01*
X018817Y001709D02*
X018817Y002449D01*
X019817Y002449D02*
X019817Y001709D01*
X020817Y001709D02*
X020817Y002449D01*
D16*
X022541Y005475D03*
X022641Y006475D03*
X022541Y007475D03*
X022641Y008475D03*
X022541Y009475D03*
X022641Y010475D03*
X022541Y011475D03*
X022641Y012475D03*
X022541Y013475D03*
X022641Y014475D03*
X022541Y015475D03*
X022641Y016475D03*
X022541Y017475D03*
X022641Y018475D03*
X022541Y019475D03*
X022641Y020475D03*
D17*
X010935Y016302D03*
X009935Y016302D03*
X010034Y011676D03*
X011034Y011676D03*
X011034Y006951D03*
X010034Y006951D03*
X010731Y002629D03*
X010731Y001629D03*
X012502Y001629D03*
X012502Y002629D03*
X014274Y002629D03*
X014274Y001629D03*
X016046Y001629D03*
X016046Y002629D03*
X008959Y002629D03*
X008959Y001629D03*
D18*
X004825Y022995D03*
X004825Y024373D03*
X004825Y025751D03*
X004825Y027129D03*
D19*
X009156Y027916D03*
X009648Y026833D03*
X009254Y026144D03*
X009648Y025062D03*
X009254Y024373D03*
X009648Y023290D03*
X009254Y022601D03*
X009648Y021518D03*
X011518Y019451D03*
X012010Y021518D03*
X012010Y023290D03*
X012010Y025062D03*
X012010Y026833D03*
X011616Y014727D03*
X011616Y012562D03*
D20*
X012010Y021518D02*
X009648Y021518D01*
X009648Y023290D02*
X012010Y023290D01*
X012010Y025062D02*
X009648Y025062D01*
X009648Y026833D02*
X012010Y026833D01*
D21*
X007876Y029688D03*
X006794Y028900D03*
X006498Y026636D03*
X005711Y026636D03*
X005612Y024865D03*
X006498Y024865D03*
X006597Y023093D03*
X005612Y023093D03*
X019490Y012069D03*
X019490Y011184D03*
X019490Y010298D03*
D22*
X011616Y012562D02*
X011616Y014727D01*
X011616Y019353D01*
X011518Y019451D01*
D23*
X009254Y022601D02*
X005219Y022601D01*
X004825Y022995D01*
X004825Y024373D02*
X009254Y024373D01*
X009254Y026144D02*
X005219Y026144D01*
X004825Y025751D01*
X004825Y027129D02*
X005612Y027916D01*
X009156Y027916D01*
M02*
