G75*
G70*
%OFA0B0*%
%FSLAX24Y24*%
%IPPOS*%
%LPD*%
%AMOC8*
5,1,8,0,0,1.08239X$1,22.5*
%
%ADD10C,0.1260*%
%ADD11OC8,0.0819*%
%ADD12C,0.0945*%
%ADD13C,0.0630*%
%ADD14C,0.0669*%
%ADD15C,0.0819*%
%ADD16C,0.0819*%
%ADD17OC8,0.0556*%
%ADD18C,0.0945*%
%ADD19C,0.0433*%
%ADD20C,0.0374*%
D10*
X005612Y002621D03*
X005612Y028999D03*
D11*
X014668Y029014D03*
X014668Y028014D03*
X015668Y028014D03*
X015668Y029014D03*
X016668Y029014D03*
X016668Y028014D03*
X017668Y028014D03*
X017668Y029014D03*
X018668Y029014D03*
X018668Y028014D03*
X019668Y028014D03*
X019668Y029014D03*
X020668Y029014D03*
X020668Y028014D03*
X021668Y028014D03*
X021668Y029014D03*
D12*
X008801Y019471D02*
X007935Y019471D01*
X005219Y017817D02*
X005219Y016951D01*
X007935Y014747D02*
X008801Y014747D01*
X005219Y013093D02*
X005219Y012227D01*
X007935Y010022D02*
X008801Y010022D01*
X005219Y008369D02*
X005219Y007503D01*
D13*
X005219Y006459D03*
X005219Y009412D03*
X005219Y011184D03*
X005219Y014136D03*
X005219Y015908D03*
X005219Y018861D03*
D14*
X007778Y017384D03*
X007778Y012660D03*
X007778Y007936D03*
D15*
X017817Y002449D02*
X017817Y001709D01*
X018817Y001709D02*
X018817Y002449D01*
X019817Y002449D02*
X019817Y001709D01*
X020817Y001709D02*
X020817Y002449D01*
D16*
X022541Y005475D03*
X022641Y006475D03*
X022541Y007475D03*
X022641Y008475D03*
X022541Y009475D03*
X022641Y010475D03*
X022541Y011475D03*
X022641Y012475D03*
X022541Y013475D03*
X022641Y014475D03*
X022541Y015475D03*
X022641Y016475D03*
X022541Y017475D03*
X022641Y018475D03*
X022541Y019475D03*
X022641Y020475D03*
D17*
X010935Y016302D03*
X009935Y016302D03*
X010034Y011676D03*
X011034Y011676D03*
X011034Y006951D03*
X010034Y006951D03*
X010731Y002629D03*
X010731Y001629D03*
X012502Y001629D03*
X012502Y002629D03*
X014274Y002629D03*
X014274Y001629D03*
X016046Y001629D03*
X016046Y002629D03*
X008959Y002629D03*
X008959Y001629D03*
D18*
X004825Y022995D03*
X004825Y024373D03*
X004825Y025751D03*
X004825Y027129D03*
D19*
X009156Y027916D03*
X009648Y026833D03*
X009254Y026144D03*
X009648Y025062D03*
X009254Y024373D03*
X009648Y023290D03*
X009254Y022601D03*
X009648Y021518D03*
X011518Y019451D03*
X012010Y021518D03*
X012010Y023290D03*
X012010Y025062D03*
X012010Y026833D03*
X011616Y014727D03*
X011616Y012562D03*
D20*
X019490Y012069D03*
X019490Y011184D03*
X019490Y010298D03*
X006597Y023093D03*
X005612Y023093D03*
X005612Y024865D03*
X006498Y024865D03*
X006498Y026636D03*
X005711Y026636D03*
X006794Y028900D03*
X007876Y029688D03*
M02*
